<mxfile host="app.diagrams.net" modified="2022-03-09T00:09:32.134Z" agent="5.0 (X11; CrOS x86_64 14469.41.0) AppleWebKit/537.36 (KHTML, like Gecko) Chrome/99.0.4844.57 Safari/537.36" etag="BSx5aCrPmXmQhYjsXdSr" version="16.6.7" type="github">
  <diagram id="R2lEEEUBdFMjLlhIrx00" name="Page-1">
    <mxGraphModel dx="2070" dy="699" grid="1" gridSize="10" guides="1" tooltips="1" connect="1" arrows="1" fold="1" page="1" pageScale="1" pageWidth="850" pageHeight="1100" math="0" shadow="0" extFonts="Permanent Marker^https://fonts.googleapis.com/css?family=Permanent+Marker">
      <root>
        <mxCell id="0" />
        <mxCell id="1" parent="0" />
        <mxCell id="C1Lx6RwTq1piZFSp2DUt-427" value="" style="shape=note;size=20;whiteSpace=wrap;html=1;rounded=1;shadow=0;sketch=0;fillColor=#ffe6cc;align=right;strokeColor=#d79b00;" parent="1" vertex="1">
          <mxGeometry x="1180" y="960" width="960" height="560" as="geometry" />
        </mxCell>
        <mxCell id="C1Lx6RwTq1piZFSp2DUt-428" value="" style="shape=note;size=20;whiteSpace=wrap;html=1;rounded=1;shadow=0;sketch=0;fillColor=#d5e8d4;strokeColor=#82b366;points=[[1,0.51,0,0,0]];" parent="1" vertex="1">
          <mxGeometry x="160" y="1500" width="1320" height="1130" as="geometry" />
        </mxCell>
        <mxCell id="C1Lx6RwTq1piZFSp2DUt-426" value="" style="shape=note;size=20;whiteSpace=wrap;html=1;rounded=1;shadow=0;sketch=0;fillColor=#dae8fc;strokeColor=#6c8ebf;" parent="1" vertex="1">
          <mxGeometry x="-60" y="420" width="1210" height="930" as="geometry" />
        </mxCell>
        <UserObject label="" lucidchartObjectId="g.TYRhDjpyAQ" id="C1Lx6RwTq1piZFSp2DUt-48">
          <mxCell style="html=1;jettySize=18;whiteSpace=wrap;fontSize=13;strokeColor=#000000;strokeWidth=1.5;rounded=1;arcSize=12;edgeStyle=orthogonalEdgeStyle;startArrow=ERone;startSize=16;endArrow=ERmandOne;endSize=16;endFill=0;startFill=0;entryX=0;entryY=0.5;entryDx=0;entryDy=0;exitX=1;exitY=0.5;exitDx=0;exitDy=0;" parent="1" source="C1Lx6RwTq1piZFSp2DUt-316" target="C1Lx6RwTq1piZFSp2DUt-332" edge="1">
            <mxGeometry width="100" height="100" relative="1" as="geometry">
              <Array as="points">
                <mxPoint x="10" y="1365" />
                <mxPoint x="10" y="575" />
              </Array>
              <mxPoint x="-210" y="1370" as="sourcePoint" />
              <mxPoint x="110" y="650" as="targetPoint" />
            </mxGeometry>
          </mxCell>
        </UserObject>
        <UserObject label="" lucidchartObjectId="EQ3Y5i.bJJNg" id="C1Lx6RwTq1piZFSp2DUt-91">
          <mxCell style="html=1;jettySize=18;whiteSpace=wrap;fontSize=13;strokeColor=#1A1A1A;strokeWidth=1.5;rounded=1;arcSize=12;edgeStyle=orthogonalEdgeStyle;startArrow=ERone;startSize=10;endArrow=ERone;endSize=10;startFill=0;entryX=1;entryY=0.5;entryDx=0;entryDy=0;exitX=0;exitY=0.5;exitDx=0;exitDy=0;endFill=0;" parent="1" source="C1Lx6RwTq1piZFSp2DUt-346" target="C1Lx6RwTq1piZFSp2DUt-329" edge="1">
            <mxGeometry width="100" height="100" relative="1" as="geometry">
              <Array as="points">
                <mxPoint x="440" y="575" />
                <mxPoint x="440" y="545" />
              </Array>
              <mxPoint x="630" y="770" as="sourcePoint" />
              <mxPoint x="490" y="550" as="targetPoint" />
            </mxGeometry>
          </mxCell>
        </UserObject>
        <UserObject label="" lucidchartObjectId="0VwZFwrsJFYA" id="C1Lx6RwTq1piZFSp2DUt-157">
          <mxCell style="html=1;jettySize=18;whiteSpace=wrap;fontSize=13;strokeColor=#1A1A1A;strokeWidth=1.5;rounded=1;arcSize=12;edgeStyle=orthogonalEdgeStyle;startArrow=ERmany;startSize=10;endArrow=ERone;endSize=10;entryX=1;entryY=0.5;entryDx=0;entryDy=0;exitX=0;exitY=0.5;exitDx=0;exitDy=0;endFill=0;" parent="1" source="C1Lx6RwTq1piZFSp2DUt-490" target="C1Lx6RwTq1piZFSp2DUt-329" edge="1">
            <mxGeometry width="100" height="100" relative="1" as="geometry">
              <Array as="points">
                <mxPoint x="760" y="1051" />
                <mxPoint x="760" y="780" />
                <mxPoint x="440" y="780" />
                <mxPoint x="440" y="545" />
              </Array>
              <mxPoint x="990" y="750" as="sourcePoint" />
              <mxPoint x="430" y="580" as="targetPoint" />
            </mxGeometry>
          </mxCell>
        </UserObject>
        <UserObject label="" lucidchartObjectId="3WwZ.9l3khhY" id="C1Lx6RwTq1piZFSp2DUt-158">
          <mxCell style="html=1;jettySize=18;whiteSpace=wrap;fontSize=13;strokeColor=#1A1A1A;strokeWidth=1.5;rounded=1;arcSize=12;edgeStyle=orthogonalEdgeStyle;startArrow=ERmany;startSize=10;endArrow=ERone;endSize=10;exitX=0;exitY=0.5;entryX=1;entryY=0.5;entryDx=0;entryDy=0;exitDx=0;exitDy=0;endFill=0;" parent="1" source="C1Lx6RwTq1piZFSp2DUt-503" target="C1Lx6RwTq1piZFSp2DUt-329" edge="1">
            <mxGeometry width="100" height="100" relative="1" as="geometry">
              <Array as="points">
                <mxPoint x="440" y="875" />
                <mxPoint x="440" y="545" />
              </Array>
              <mxPoint x="502.8299999999999" y="956.0239999999999" as="sourcePoint" />
              <mxPoint x="430" y="750" as="targetPoint" />
            </mxGeometry>
          </mxCell>
        </UserObject>
        <UserObject label="" lucidchartObjectId="AZwZduy-sLHQ" id="C1Lx6RwTq1piZFSp2DUt-175">
          <mxCell style="html=1;jettySize=18;whiteSpace=wrap;fontSize=13;strokeColor=#1A1A1A;strokeWidth=1.5;rounded=1;arcSize=12;edgeStyle=orthogonalEdgeStyle;startArrow=ERone;startSize=16;endArrow=ERone;endSize=16;entryX=1;entryY=0.5;entryDx=0;entryDy=0;exitX=0;exitY=0.5;exitDx=0;exitDy=0;" parent="1" source="C1Lx6RwTq1piZFSp2DUt-544" target="C1Lx6RwTq1piZFSp2DUt-316" edge="1">
            <mxGeometry width="100" height="100" relative="1" as="geometry">
              <Array as="points">
                <mxPoint x="10" y="1615" />
                <mxPoint x="10" y="1365" />
              </Array>
              <mxPoint x="-90" y="1670" as="sourcePoint" />
              <mxPoint x="-150" y="1390" as="targetPoint" />
            </mxGeometry>
          </mxCell>
        </UserObject>
        <UserObject label="" lucidchartObjectId="PZwZSAhJE6X4" id="C1Lx6RwTq1piZFSp2DUt-176">
          <mxCell style="html=1;jettySize=18;whiteSpace=wrap;fontSize=13;strokeColor=#1A1A1A;strokeWidth=1.5;rounded=1;arcSize=12;edgeStyle=orthogonalEdgeStyle;startArrow=ERone;startSize=16;endArrow=ERone;endSize=16;exitX=0;exitY=0.5;entryX=1;entryY=0.5;entryDx=0;entryDy=0;exitDx=0;exitDy=0;" parent="1" source="C1Lx6RwTq1piZFSp2DUt-556" target="C1Lx6RwTq1piZFSp2DUt-316" edge="1">
            <mxGeometry width="100" height="100" relative="1" as="geometry">
              <Array as="points">
                <mxPoint x="10" y="1754" />
                <mxPoint x="10" y="1365" />
              </Array>
              <mxPoint x="188.8479999999995" y="1782.9940000000001" as="sourcePoint" />
              <mxPoint x="-150" y="1390" as="targetPoint" />
            </mxGeometry>
          </mxCell>
        </UserObject>
        <UserObject label="" lucidchartObjectId="2ZwZLEUFzzat" id="C1Lx6RwTq1piZFSp2DUt-177">
          <mxCell style="html=1;jettySize=18;whiteSpace=wrap;fontSize=13;strokeColor=#1A1A1A;strokeWidth=1.5;rounded=1;arcSize=12;edgeStyle=orthogonalEdgeStyle;startArrow=ERmany;startSize=10;endArrow=ERone;endSize=16;exitX=0;exitY=0.5;entryX=1;entryY=0.5;entryDx=0;entryDy=0;exitDx=0;exitDy=0;" parent="1" source="C1Lx6RwTq1piZFSp2DUt-581" target="C1Lx6RwTq1piZFSp2DUt-316" edge="1">
            <mxGeometry width="100" height="100" relative="1" as="geometry">
              <Array as="points">
                <mxPoint x="10" y="1955" />
                <mxPoint x="10" y="1365" />
              </Array>
              <mxPoint x="353.9499999999998" y="1950.85" as="sourcePoint" />
              <mxPoint x="-150" y="1390" as="targetPoint" />
            </mxGeometry>
          </mxCell>
        </UserObject>
        <UserObject label="" lucidchartObjectId="91wZb2Q~xOBS" id="C1Lx6RwTq1piZFSp2DUt-178">
          <mxCell style="html=1;jettySize=18;whiteSpace=wrap;fontSize=13;strokeColor=#1A1A1A;strokeWidth=1.5;rounded=1;arcSize=12;edgeStyle=orthogonalEdgeStyle;startArrow=ERmany;startSize=10;endArrow=ERone;endSize=10;exitX=0;exitY=0.5;entryX=1;entryY=0.5;entryDx=0;entryDy=0;startFill=0;exitDx=0;exitDy=0;endFill=0;" parent="1" source="C1Lx6RwTq1piZFSp2DUt-451" target="C1Lx6RwTq1piZFSp2DUt-329" edge="1">
            <mxGeometry width="100" height="100" relative="1" as="geometry">
              <Array as="points">
                <mxPoint x="440" y="1235" />
                <mxPoint x="440" y="545" />
              </Array>
              <mxPoint x="502.8299999999999" y="1271.024" as="sourcePoint" />
              <mxPoint x="420" y="645" as="targetPoint" />
            </mxGeometry>
          </mxCell>
        </UserObject>
        <UserObject label="" lucidchartObjectId="b2wZSPcaYlge" id="C1Lx6RwTq1piZFSp2DUt-179">
          <mxCell style="html=1;jettySize=18;whiteSpace=wrap;fontSize=13;strokeColor=#1A1A1A;strokeWidth=1.5;rounded=1;arcSize=12;edgeStyle=orthogonalEdgeStyle;startArrow=ERmany;startSize=10;endArrow=ERone;endSize=10;exitX=0;exitY=0.5;entryX=1;entryY=0.5;entryDx=0;entryDy=0;endFill=0;exitDx=0;exitDy=0;startFill=0;" parent="1" source="C1Lx6RwTq1piZFSp2DUt-477" target="C1Lx6RwTq1piZFSp2DUt-329" edge="1">
            <mxGeometry width="100" height="100" relative="1" as="geometry">
              <Array as="points">
                <mxPoint x="440" y="1055" />
                <mxPoint x="440" y="545" />
              </Array>
              <mxPoint x="502.8299999999999" y="1115.024" as="sourcePoint" />
              <mxPoint x="430" y="645" as="targetPoint" />
            </mxGeometry>
          </mxCell>
        </UserObject>
        <UserObject label="" lucidchartObjectId="k2wZOZAYCCmJ" id="C1Lx6RwTq1piZFSp2DUt-180">
          <mxCell style="html=1;jettySize=18;whiteSpace=wrap;fontSize=13;strokeColor=#1A1A1A;strokeWidth=1.5;rounded=1;arcSize=12;edgeStyle=orthogonalEdgeStyle;startArrow=ERmany;startSize=10;endArrow=ERone;endSize=10;entryX=1;entryY=0.5;entryDx=0;entryDy=0;exitX=0;exitY=0.5;exitDx=0;exitDy=0;endFill=0;" parent="1" source="C1Lx6RwTq1piZFSp2DUt-516" target="C1Lx6RwTq1piZFSp2DUt-329" edge="1">
            <mxGeometry width="100" height="100" relative="1" as="geometry">
              <Array as="points">
                <mxPoint x="760" y="1235" />
                <mxPoint x="760" y="780" />
                <mxPoint x="440" y="780" />
                <mxPoint x="440" y="545" />
              </Array>
              <mxPoint x="1050" y="730" as="sourcePoint" />
              <mxPoint x="420" y="645" as="targetPoint" />
            </mxGeometry>
          </mxCell>
        </UserObject>
        <UserObject label="" lucidchartObjectId="ZgxZWNPb074P" id="C1Lx6RwTq1piZFSp2DUt-222">
          <mxCell style="html=1;jettySize=18;whiteSpace=wrap;fontSize=13;strokeColor=#1A1A1A;strokeWidth=1.5;rounded=1;arcSize=12;edgeStyle=orthogonalEdgeStyle;startArrow=ERone;startSize=16;endArrow=ERmany;endSize=10;entryX=0;entryY=0.5;exitX=1;exitY=0.5;exitDx=0;exitDy=0;endFill=0;entryDx=0;entryDy=0;" parent="1" source="C1Lx6RwTq1piZFSp2DUt-541" target="C1Lx6RwTq1piZFSp2DUt-649" edge="1">
            <mxGeometry width="100" height="100" relative="1" as="geometry">
              <Array as="points">
                <mxPoint x="670" y="1585" />
                <mxPoint x="670" y="1875" />
              </Array>
              <mxPoint x="500" y="1600" as="sourcePoint" />
              <mxPoint x="758.8359999999998" y="1877.132" as="targetPoint" />
            </mxGeometry>
          </mxCell>
        </UserObject>
        <UserObject label="" lucidchartObjectId="6gxZ20lumf~~" id="C1Lx6RwTq1piZFSp2DUt-223">
          <mxCell style="html=1;jettySize=18;whiteSpace=wrap;fontSize=13;strokeColor=#1A1A1A;strokeWidth=1.5;rounded=1;arcSize=12;edgeStyle=orthogonalEdgeStyle;startArrow=ERone;startSize=16;endArrow=ERmany;endSize=10;exitX=1;exitY=0.5;exitDx=0;exitDy=0;endFill=0;entryX=0;entryY=0.5;entryDx=0;entryDy=0;" parent="1" source="C1Lx6RwTq1piZFSp2DUt-541" target="C1Lx6RwTq1piZFSp2DUt-604" edge="1">
            <mxGeometry width="100" height="100" relative="1" as="geometry">
              <Array as="points">
                <mxPoint x="670" y="1585" />
                <mxPoint x="670" y="1603" />
              </Array>
              <mxPoint x="500" y="1610" as="sourcePoint" />
              <mxPoint x="710" y="1624" as="targetPoint" />
            </mxGeometry>
          </mxCell>
        </UserObject>
        <UserObject label="" lucidchartObjectId="RhxZedWc1Z8Q" id="C1Lx6RwTq1piZFSp2DUt-237">
          <mxCell style="html=1;jettySize=18;whiteSpace=wrap;fontSize=13;strokeColor=#1A1A1A;strokeWidth=1.5;rounded=1;arcSize=12;edgeStyle=orthogonalEdgeStyle;startArrow=ERmany;startSize=10;endArrow=ERone;endSize=16;exitX=0;exitY=0.5;entryX=1;entryY=0.5;entryDx=0;entryDy=0;exitDx=0;exitDy=0;" parent="1" source="r4kLxaNf1XHd40Li_yTl-7" target="C1Lx6RwTq1piZFSp2DUt-541" edge="1">
            <mxGeometry width="100" height="100" relative="1" as="geometry">
              <Array as="points">
                <mxPoint x="670" y="2195" />
                <mxPoint x="670" y="1585" />
              </Array>
              <mxPoint x="490" y="1600" as="targetPoint" />
              <mxPoint x="924.9500000000007" y="2246.0240000000003" as="sourcePoint" />
            </mxGeometry>
          </mxCell>
        </UserObject>
        <UserObject label="" lucidchartObjectId="3oxZyW_TM-FC" id="C1Lx6RwTq1piZFSp2DUt-251">
          <mxCell style="html=1;jettySize=18;whiteSpace=wrap;fontSize=13;strokeColor=#1A1A1A;strokeWidth=1.5;rounded=1;arcSize=12;edgeStyle=orthogonalEdgeStyle;startArrow=ERmany;startSize=10;endArrow=ERone;endSize=16;exitX=0;exitY=0.5;entryX=1;entryY=0.5;entryDx=0;entryDy=0;exitDx=0;exitDy=0;" parent="1" source="r4kLxaNf1XHd40Li_yTl-25" target="C1Lx6RwTq1piZFSp2DUt-541" edge="1">
            <mxGeometry width="100" height="100" relative="1" as="geometry">
              <Array as="points">
                <mxPoint x="670" y="2355" />
                <mxPoint x="670" y="1585" />
              </Array>
              <mxPoint x="510" y="1600" as="targetPoint" />
            </mxGeometry>
          </mxCell>
        </UserObject>
        <UserObject label="" lucidchartObjectId="8GxZQJTCxgkr" id="C1Lx6RwTq1piZFSp2DUt-252">
          <mxCell style="html=1;jettySize=18;whiteSpace=wrap;fontSize=13;strokeColor=#1A1A1A;strokeWidth=1.5;rounded=1;arcSize=12;edgeStyle=orthogonalEdgeStyle;jumpStyle=arc;startArrow=ERmany;startSize=10;endArrow=ERone;endSize=16;exitX=0;exitY=0.5;entryX=1;entryY=0.5;entryDx=0;entryDy=0;startFill=0;exitDx=0;exitDy=0;" parent="1" source="C1Lx6RwTq1piZFSp2DUt-646" target="C1Lx6RwTq1piZFSp2DUt-556" edge="1">
            <mxGeometry width="100" height="100" relative="1" as="geometry">
              <Array as="points">
                <mxPoint x="650" y="1905" />
                <mxPoint x="650" y="1840" />
                <mxPoint x="460" y="1840" />
                <mxPoint x="460" y="1754" />
              </Array>
              <mxPoint x="758.8359999999998" y="1901.0900000000001" as="sourcePoint" />
              <mxPoint x="383.15200000000004" y="1759.024" as="targetPoint" />
            </mxGeometry>
          </mxCell>
        </UserObject>
        <UserObject label="" lucidchartObjectId="JOxZxpumRNSY" id="C1Lx6RwTq1piZFSp2DUt-266">
          <mxCell style="html=1;jettySize=18;whiteSpace=wrap;fontSize=13;strokeColor=#1A1A1A;strokeWidth=1.5;rounded=1;arcSize=12;edgeStyle=orthogonalEdgeStyle;jumpStyle=arc;startArrow=ERmany;startSize=10;endArrow=ERone;endSize=16;entryX=1;entryY=0.5;entryDx=0;entryDy=0;startFill=0;exitX=0;exitY=0.5;exitDx=0;exitDy=0;" parent="1" source="C1Lx6RwTq1piZFSp2DUt-601" target="C1Lx6RwTq1piZFSp2DUt-556" edge="1">
            <mxGeometry width="100" height="100" relative="1" as="geometry">
              <Array as="points">
                <mxPoint x="500" y="1633" />
                <mxPoint x="500" y="1754" />
              </Array>
              <mxPoint x="710" y="1648" as="sourcePoint" />
              <mxPoint x="383.15200000000004" y="1759.024" as="targetPoint" />
            </mxGeometry>
          </mxCell>
        </UserObject>
        <UserObject label="" lucidchartObjectId="0RxZ_axoYBpB" id="C1Lx6RwTq1piZFSp2DUt-267">
          <mxCell style="html=1;jettySize=18;whiteSpace=wrap;fontSize=13;strokeColor=#1A1A1A;strokeWidth=1.5;rounded=1;arcSize=12;edgeStyle=orthogonalEdgeStyle;startArrow=ERone;startSize=16;endArrow=ERone;endSize=16;entryX=1;entryY=0.5;entryDx=0;entryDy=0;exitX=0;exitY=0.5;exitDx=0;exitDy=0;endFill=0;startFill=0;" parent="1" source="C1Lx6RwTq1piZFSp2DUt-531" target="C1Lx6RwTq1piZFSp2DUt-316" edge="1">
            <mxGeometry width="100" height="100" relative="1" as="geometry">
              <Array as="points">
                <mxPoint x="10" y="1055" />
                <mxPoint x="10" y="1365" />
              </Array>
              <mxPoint x="40" y="1000" as="sourcePoint" />
              <mxPoint x="-150" y="1390" as="targetPoint" />
            </mxGeometry>
          </mxCell>
        </UserObject>
        <UserObject label="" lucidchartObjectId="wTxZoXbYwXDJ" id="C1Lx6RwTq1piZFSp2DUt-268">
          <mxCell style="html=1;jettySize=18;whiteSpace=wrap;fontSize=13;strokeColor=#1A1A1A;strokeWidth=1.5;rounded=1;arcSize=12;edgeStyle=orthogonalEdgeStyle;jumpStyle=arc;startArrow=ERmany;startSize=10;endArrow=ERone;endSize=16;exitX=0;exitY=0.5;entryX=1;entryY=0.5;entryDx=0;entryDy=0;startFill=0;exitDx=0;exitDy=0;" parent="1" source="r4kLxaNf1XHd40Li_yTl-4" target="C1Lx6RwTq1piZFSp2DUt-556" edge="1">
            <mxGeometry width="100" height="100" relative="1" as="geometry">
              <Array as="points">
                <mxPoint x="650" y="2225" />
                <mxPoint x="650" y="1840" />
                <mxPoint x="460" y="1840" />
                <mxPoint x="460" y="1754" />
              </Array>
              <mxPoint x="383.15200000000004" y="1759.024" as="targetPoint" />
              <mxPoint x="924.9500000000007" y="2269.964" as="sourcePoint" />
            </mxGeometry>
          </mxCell>
        </UserObject>
        <UserObject label="" lucidchartObjectId="MVxZ73rs-OnB" id="C1Lx6RwTq1piZFSp2DUt-269">
          <mxCell style="html=1;jettySize=18;whiteSpace=wrap;fontSize=13;strokeColor=#1A1A1A;strokeWidth=1.5;rounded=1;arcSize=12;edgeStyle=orthogonalEdgeStyle;jumpStyle=arc;startArrow=ERmany;startSize=10;endArrow=ERone;endSize=16;exitX=0;exitY=0.5;entryX=1;entryY=0.5;entryDx=0;entryDy=0;startFill=0;exitDx=0;exitDy=0;" parent="1" source="r4kLxaNf1XHd40Li_yTl-22" target="C1Lx6RwTq1piZFSp2DUt-556" edge="1">
            <mxGeometry width="100" height="100" relative="1" as="geometry">
              <Array as="points">
                <mxPoint x="650" y="2385" />
                <mxPoint x="650" y="1840" />
                <mxPoint x="460" y="1840" />
                <mxPoint x="460" y="1754" />
              </Array>
              <mxPoint x="383.15200000000004" y="1759.024" as="targetPoint" />
            </mxGeometry>
          </mxCell>
        </UserObject>
        <UserObject label="" lucidchartObjectId="x1xZpTevbE~_" id="C1Lx6RwTq1piZFSp2DUt-270">
          <mxCell style="html=1;jettySize=18;whiteSpace=wrap;fontSize=13;strokeColor=#1A1A1A;strokeWidth=1.5;rounded=1;arcSize=12;edgeStyle=orthogonalEdgeStyle;startArrow=ERone;startSize=16;endArrow=ERmany;endSize=10;exitX=0;exitY=0.5;entryX=0;entryY=0.5;entryDx=0;entryDy=0;exitDx=0;exitDy=0;" parent="1" source="C1Lx6RwTq1piZFSp2DUt-656" target="C1Lx6RwTq1piZFSp2DUt-611" edge="1">
            <mxGeometry width="100" height="100" relative="1" as="geometry">
              <Array as="points">
                <mxPoint x="970" y="2165" />
                <mxPoint x="970" y="2080" />
                <mxPoint x="1031" y="2080" />
                <mxPoint x="1031" y="1814" />
              </Array>
              <mxPoint x="1103.9280000000003" y="1812.7599999999998" as="targetPoint" />
              <mxPoint x="924.9500000000007" y="2221.9580000000005" as="sourcePoint" />
            </mxGeometry>
          </mxCell>
        </UserObject>
        <UserObject label="" lucidchartObjectId="A3xZMXd54UBz" id="C1Lx6RwTq1piZFSp2DUt-281">
          <mxCell style="html=1;jettySize=18;whiteSpace=wrap;fontSize=13;strokeColor=#1A1A1A;strokeWidth=1.5;rounded=1;arcSize=12;edgeStyle=orthogonalEdgeStyle;startArrow=ERone;startSize=16;endArrow=ERmany;endSize=10;entryX=0;entryY=0.5;exitX=0;exitY=0.5;exitDx=0;exitDy=0;entryDx=0;entryDy=0;" parent="1" source="C1Lx6RwTq1piZFSp2DUt-585" target="C1Lx6RwTq1piZFSp2DUt-620" edge="1">
            <mxGeometry width="100" height="100" relative="1" as="geometry">
              <Array as="points">
                <mxPoint x="690" y="1573" />
                <mxPoint x="690" y="1510" />
                <mxPoint x="1040" y="1510" />
                <mxPoint x="1040" y="1784" />
              </Array>
              <mxPoint x="710" y="1490" as="sourcePoint" />
              <mxPoint x="1103.9280000000003" y="1788.8919999999998" as="targetPoint" />
            </mxGeometry>
          </mxCell>
        </UserObject>
        <UserObject label="" lucidchartObjectId="r5xZYvssaclC" id="C1Lx6RwTq1piZFSp2DUt-292">
          <mxCell style="html=1;jettySize=18;whiteSpace=wrap;fontSize=13;strokeColor=#1A1A1A;strokeWidth=1.5;rounded=1;arcSize=12;edgeStyle=orthogonalEdgeStyle;jumpStyle=arc;startArrow=ERone;startSize=16;endArrow=ERmany;endSize=10;exitX=0;exitY=0.5;entryX=0;entryY=0.5;entryDx=0;entryDy=0;exitDx=0;exitDy=0;" parent="1" source="C1Lx6RwTq1piZFSp2DUt-634" target="C1Lx6RwTq1piZFSp2DUt-627" edge="1">
            <mxGeometry width="100" height="100" relative="1" as="geometry">
              <Array as="points">
                <mxPoint x="729" y="1845" />
                <mxPoint x="729" y="1780" />
                <mxPoint x="1010" y="1780" />
                <mxPoint x="1010" y="1935" />
              </Array>
              <mxPoint x="758.8359999999998" y="1853.174" as="sourcePoint" />
              <mxPoint x="1101.9199999999996" y="1908.9939999999997" as="targetPoint" />
            </mxGeometry>
          </mxCell>
        </UserObject>
        <UserObject label="" lucidchartObjectId="O5xZjmJ51Efe" id="C1Lx6RwTq1piZFSp2DUt-293">
          <mxCell style="html=1;jettySize=18;whiteSpace=wrap;fontSize=13;strokeColor=#1A1A1A;strokeWidth=1.5;rounded=1;arcSize=12;edgeStyle=orthogonalEdgeStyle;jumpStyle=arc;startArrow=ERone;startSize=16;endArrow=ERmany;endSize=10;exitX=0;exitY=0.5;entryX=0;entryY=0.5;entryDx=0;entryDy=0;exitDx=0;exitDy=0;" parent="1" source="C1Lx6RwTq1piZFSp2DUt-656" target="C1Lx6RwTq1piZFSp2DUt-630" edge="1">
            <mxGeometry width="100" height="100" relative="1" as="geometry">
              <Array as="points">
                <mxPoint x="970" y="2165" />
                <mxPoint x="970" y="2080" />
                <mxPoint x="1030" y="2080" />
                <mxPoint x="1030" y="1965" />
              </Array>
              <mxPoint x="1101.9199999999996" y="1932.964" as="targetPoint" />
              <mxPoint x="924.9500000000007" y="2221.9580000000005" as="sourcePoint" />
            </mxGeometry>
          </mxCell>
        </UserObject>
        <UserObject label="" lucidchartObjectId="Z-xZgU64g.A2" id="C1Lx6RwTq1piZFSp2DUt-294">
          <mxCell style="html=1;jettySize=18;whiteSpace=wrap;fontSize=13;strokeColor=#1A1A1A;strokeWidth=1.5;rounded=1;arcSize=12;edgeStyle=orthogonalEdgeStyle;startArrow=ERone;startSize=16;endArrow=ERmany;endSize=10;exitX=1;exitY=0.5;exitDx=0;exitDy=0;entryX=0;entryY=0.5;entryDx=0;entryDy=0;" parent="1" source="C1Lx6RwTq1piZFSp2DUt-378" target="C1Lx6RwTq1piZFSp2DUt-414" edge="1">
            <mxGeometry width="100" height="100" relative="1" as="geometry">
              <Array as="points">
                <mxPoint x="1790" y="1094" />
                <mxPoint x="1790" y="1324" />
                <mxPoint x="1440" y="1324" />
                <mxPoint x="1440" y="1415" />
              </Array>
              <mxPoint x="1751.205" y="1175.8509999999999" as="sourcePoint" />
              <mxPoint x="1470" y="1480" as="targetPoint" />
            </mxGeometry>
          </mxCell>
        </UserObject>
        <UserObject label="" lucidchartObjectId="k_xZLf5LtQvF" id="C1Lx6RwTq1piZFSp2DUt-296">
          <mxCell style="html=1;jettySize=18;whiteSpace=wrap;fontSize=13;strokeColor=#1A1A1A;strokeWidth=1.5;rounded=1;arcSize=12;edgeStyle=orthogonalEdgeStyle;startArrow=ERone;startSize=16;endArrow=ERmany;endSize=10;exitX=1;exitY=0.5;exitDx=0;exitDy=0;entryX=0;entryY=0.5;entryDx=0;entryDy=0;" parent="1" source="C1Lx6RwTq1piZFSp2DUt-316" target="C1Lx6RwTq1piZFSp2DUt-423" edge="1">
            <mxGeometry width="100" height="100" relative="1" as="geometry">
              <Array as="points">
                <mxPoint x="1350" y="1365" />
                <mxPoint x="1350" y="1445" />
              </Array>
              <mxPoint x="-200" y="1370" as="sourcePoint" />
              <mxPoint x="1390" y="1530" as="targetPoint" />
            </mxGeometry>
          </mxCell>
        </UserObject>
        <UserObject label="" lucidchartObjectId="E_xZyQ_vH6gO" id="C1Lx6RwTq1piZFSp2DUt-297">
          <mxCell style="html=1;jettySize=18;whiteSpace=wrap;fontSize=13;strokeColor=#1A1A1A;strokeWidth=1.5;rounded=1;arcSize=12;edgeStyle=orthogonalEdgeStyle;startArrow=none;startSize=16;endArrow=ERmany;endSize=10;entryX=0;entryY=0.5;entryDx=0;entryDy=0;exitX=1;exitY=0.5;exitDx=0;exitDy=0;" parent="1" source="C1Lx6RwTq1piZFSp2DUt-316" target="C1Lx6RwTq1piZFSp2DUt-381" edge="1">
            <mxGeometry width="100" height="100" relative="1" as="geometry">
              <Array as="points">
                <mxPoint x="1350" y="1365" />
                <mxPoint x="1350" y="1154" />
              </Array>
              <mxPoint x="1890" y="1740" as="sourcePoint" />
              <mxPoint x="1410" y="1290" as="targetPoint" />
            </mxGeometry>
          </mxCell>
        </UserObject>
        <UserObject label="" lucidchartObjectId="J~xZ2.eRDwL6" id="C1Lx6RwTq1piZFSp2DUt-308">
          <mxCell style="html=1;jettySize=18;whiteSpace=wrap;fontSize=13;strokeColor=#1A1A1A;strokeWidth=1.5;rounded=1;arcSize=12;edgeStyle=orthogonalEdgeStyle;startArrow=ERone;startSize=16;endArrow=ERmany;endSize=10;exitX=1;exitY=0.5;exitDx=0;exitDy=0;entryX=0;entryY=0.5;entryDx=0;entryDy=0;" parent="1" source="C1Lx6RwTq1piZFSp2DUt-411" target="C1Lx6RwTq1piZFSp2DUt-433" edge="1">
            <mxGeometry width="100" height="100" relative="1" as="geometry">
              <Array as="points" />
              <mxPoint x="1820" y="1480" as="sourcePoint" />
              <mxPoint x="1820" y="1320" as="targetPoint" />
            </mxGeometry>
          </mxCell>
        </UserObject>
        <UserObject label="" lucidchartObjectId="M~xZyoFV3AG." id="C1Lx6RwTq1piZFSp2DUt-309">
          <mxCell style="html=1;jettySize=18;whiteSpace=wrap;fontSize=13;strokeColor=#1A1A1A;strokeWidth=1.5;rounded=1;arcSize=12;edgeStyle=orthogonalEdgeStyle;startArrow=ERone;startSize=16;endArrow=ERmany;endSize=10;exitX=1;exitY=0.5;exitDx=0;exitDy=0;" parent="1" source="C1Lx6RwTq1piZFSp2DUt-411" target="C1Lx6RwTq1piZFSp2DUt-442" edge="1">
            <mxGeometry width="100" height="100" relative="1" as="geometry">
              <Array as="points" />
              <mxPoint x="1820" y="1500" as="sourcePoint" />
              <mxPoint x="1820" y="1320" as="targetPoint" />
            </mxGeometry>
          </mxCell>
        </UserObject>
        <UserObject label="" lucidchartObjectId="XQFZVeWvwNgx" id="C1Lx6RwTq1piZFSp2DUt-310">
          <mxCell style="html=1;jettySize=18;whiteSpace=wrap;fontSize=13;strokeColor=#1A1A1A;strokeWidth=1.5;rounded=1;arcSize=12;edgeStyle=orthogonalEdgeStyle;startArrow=ERone;startSize=16;endArrow=ERmany;endSize=10;exitX=1;exitY=0.5;entryX=0;entryY=0.5;jumpStyle=arc;exitDx=0;exitDy=0;entryDx=0;entryDy=0;" parent="1" source="C1Lx6RwTq1piZFSp2DUt-569" target="C1Lx6RwTq1piZFSp2DUt-672" edge="1">
            <mxGeometry width="100" height="100" relative="1" as="geometry">
              <Array as="points">
                <mxPoint x="630" y="1925" />
                <mxPoint x="630" y="2415" />
              </Array>
              <mxPoint x="566.0500000000002" y="1927" as="sourcePoint" />
            </mxGeometry>
          </mxCell>
        </UserObject>
        <UserObject label="" lucidchartObjectId="wRFZb34tsMdJ" id="C1Lx6RwTq1piZFSp2DUt-311">
          <mxCell style="html=1;jettySize=18;whiteSpace=wrap;fontSize=13;strokeColor=#1A1A1A;strokeWidth=1.5;rounded=1;arcSize=12;edgeStyle=orthogonalEdgeStyle;jumpStyle=arc;startArrow=ERone;startSize=16;endArrow=ERmany;endSize=10;exitX=1;exitY=0.5;entryX=0;entryY=0.5;exitDx=0;exitDy=0;entryDx=0;entryDy=0;" parent="1" source="C1Lx6RwTq1piZFSp2DUt-569" target="C1Lx6RwTq1piZFSp2DUt-659" edge="1">
            <mxGeometry width="100" height="100" relative="1" as="geometry">
              <Array as="points">
                <mxPoint x="630" y="1925" />
                <mxPoint x="630" y="2255" />
              </Array>
              <mxPoint x="566.0500000000002" y="1927" as="sourcePoint" />
              <mxPoint x="924.9500000000007" y="2294.03" as="targetPoint" />
            </mxGeometry>
          </mxCell>
        </UserObject>
        <UserObject label="" lucidchartObjectId="ESFZbGL8aBnH" id="C1Lx6RwTq1piZFSp2DUt-312">
          <mxCell style="html=1;jettySize=18;whiteSpace=wrap;fontSize=13;strokeColor=#1A1A1A;strokeWidth=1.5;rounded=1;arcSize=12;edgeStyle=orthogonalEdgeStyle;jumpStyle=arc;startArrow=ERone;startSize=16;endArrow=ERmany;endSize=10;exitX=1;exitY=0.5;exitDx=0;exitDy=0;entryX=0;entryY=0.5;entryDx=0;entryDy=0;" parent="1" source="C1Lx6RwTq1piZFSp2DUt-569" target="C1Lx6RwTq1piZFSp2DUt-588" edge="1">
            <mxGeometry width="100" height="100" relative="1" as="geometry">
              <Array as="points">
                <mxPoint x="710" y="1925" />
                <mxPoint x="710" y="1663" />
              </Array>
              <mxPoint x="566.0500000000002" y="1927" as="sourcePoint" />
              <mxPoint x="710" y="1700" as="targetPoint" />
            </mxGeometry>
          </mxCell>
        </UserObject>
        <UserObject label="" lucidchartObjectId="2SFZYrDE2naH" id="C1Lx6RwTq1piZFSp2DUt-313">
          <mxCell style="html=1;jettySize=18;whiteSpace=wrap;fontSize=13;strokeColor=#1A1A1A;strokeWidth=1.5;rounded=1;arcSize=12;edgeStyle=orthogonalEdgeStyle;jumpStyle=arc;startArrow=ERone;startSize=16;endArrow=ERmany;endSize=10;exitX=1;exitY=0.5;entryX=0;entryY=0.5;exitDx=0;exitDy=0;entryDx=0;entryDy=0;" parent="1" source="C1Lx6RwTq1piZFSp2DUt-569" target="C1Lx6RwTq1piZFSp2DUt-637" edge="1">
            <mxGeometry width="100" height="100" relative="1" as="geometry">
              <Array as="points">
                <mxPoint x="720" y="1925" />
                <mxPoint x="720" y="1935" />
              </Array>
              <mxPoint x="566.0500000000002" y="1927" as="sourcePoint" />
              <mxPoint x="758.8359999999998" y="1925.0479999999998" as="targetPoint" />
            </mxGeometry>
          </mxCell>
        </UserObject>
        <UserObject label="" lucidchartObjectId="KUFZy3f4OV.Q" id="C1Lx6RwTq1piZFSp2DUt-314">
          <mxCell style="html=1;jettySize=18;whiteSpace=wrap;fontSize=13;strokeColor=#1A1A1A;strokeWidth=1.5;rounded=1;arcSize=12;edgeStyle=orthogonalEdgeStyle;jumpStyle=arc;startArrow=ERone;startSize=16;endArrow=ERmany;endSize=10;exitX=1;exitY=0.5;entryX=0;entryY=0.5;exitDx=0;exitDy=0;entryDx=0;entryDy=0;" parent="1" source="C1Lx6RwTq1piZFSp2DUt-556" target="C1Lx6RwTq1piZFSp2DUt-572" edge="1">
            <mxGeometry width="100" height="100" relative="1" as="geometry">
              <Array as="points">
                <mxPoint x="460" y="1754" />
                <mxPoint x="460" y="1860" />
                <mxPoint x="310" y="1860" />
                <mxPoint x="310" y="1985" />
              </Array>
              <mxPoint x="383.15200000000004" y="1759.024" as="sourcePoint" />
              <mxPoint x="353.9499999999998" y="1975.15" as="targetPoint" />
            </mxGeometry>
          </mxCell>
        </UserObject>
        <mxCell id="C1Lx6RwTq1piZFSp2DUt-315" value="User" style="shape=table;startSize=30;container=1;collapsible=1;childLayout=tableLayout;fixedRows=1;rowLines=0;fontStyle=1;align=center;resizeLast=1;rounded=1;shadow=0;sketch=0;gradientColor=none;fillColor=default;swimlaneFillColor=default;" parent="1" vertex="1">
          <mxGeometry x="-420" y="1320" width="200" height="130" as="geometry" />
        </mxCell>
        <mxCell id="C1Lx6RwTq1piZFSp2DUt-316" value="" style="shape=tableRow;horizontal=0;startSize=0;swimlaneHead=0;swimlaneBody=0;fillColor=none;collapsible=0;dropTarget=0;points=[[0,0.5],[1,0.5]];portConstraint=eastwest;top=0;left=0;right=0;bottom=1;" parent="C1Lx6RwTq1piZFSp2DUt-315" vertex="1">
          <mxGeometry y="30" width="200" height="30" as="geometry" />
        </mxCell>
        <mxCell id="C1Lx6RwTq1piZFSp2DUt-317" value="PK" style="shape=partialRectangle;connectable=0;fillColor=none;top=0;left=0;bottom=0;right=0;fontStyle=1;overflow=hidden;" parent="C1Lx6RwTq1piZFSp2DUt-316" vertex="1">
          <mxGeometry width="30" height="30" as="geometry">
            <mxRectangle width="30" height="30" as="alternateBounds" />
          </mxGeometry>
        </mxCell>
        <mxCell id="C1Lx6RwTq1piZFSp2DUt-318" value="id int UNIQUE NOT NULL" style="shape=partialRectangle;connectable=0;fillColor=none;top=0;left=0;bottom=0;right=0;align=left;spacingLeft=6;fontStyle=1;overflow=hidden;" parent="C1Lx6RwTq1piZFSp2DUt-316" vertex="1">
          <mxGeometry x="30" width="170" height="30" as="geometry">
            <mxRectangle width="170" height="30" as="alternateBounds" />
          </mxGeometry>
        </mxCell>
        <mxCell id="C1Lx6RwTq1piZFSp2DUt-319" value="" style="shape=tableRow;horizontal=0;startSize=0;swimlaneHead=0;swimlaneBody=0;fillColor=none;collapsible=0;dropTarget=0;points=[[0,0.5],[1,0.5]];portConstraint=eastwest;top=0;left=0;right=0;bottom=0;" parent="C1Lx6RwTq1piZFSp2DUt-315" vertex="1">
          <mxGeometry y="60" width="200" height="30" as="geometry" />
        </mxCell>
        <mxCell id="C1Lx6RwTq1piZFSp2DUt-320" value="" style="shape=partialRectangle;connectable=0;fillColor=none;top=0;left=0;bottom=0;right=0;editable=1;overflow=hidden;" parent="C1Lx6RwTq1piZFSp2DUt-319" vertex="1">
          <mxGeometry width="30" height="30" as="geometry">
            <mxRectangle width="30" height="30" as="alternateBounds" />
          </mxGeometry>
        </mxCell>
        <mxCell id="C1Lx6RwTq1piZFSp2DUt-321" value="name char() NOT NULL" style="shape=partialRectangle;connectable=0;fillColor=none;top=0;left=0;bottom=0;right=0;align=left;spacingLeft=6;overflow=hidden;" parent="C1Lx6RwTq1piZFSp2DUt-319" vertex="1">
          <mxGeometry x="30" width="170" height="30" as="geometry">
            <mxRectangle width="170" height="30" as="alternateBounds" />
          </mxGeometry>
        </mxCell>
        <mxCell id="C1Lx6RwTq1piZFSp2DUt-322" value="" style="shape=tableRow;horizontal=0;startSize=0;swimlaneHead=0;swimlaneBody=0;fillColor=none;collapsible=0;dropTarget=0;points=[[0,0.5],[1,0.5]];portConstraint=eastwest;top=0;left=0;right=0;bottom=0;" parent="C1Lx6RwTq1piZFSp2DUt-315" vertex="1">
          <mxGeometry y="90" width="200" height="30" as="geometry" />
        </mxCell>
        <mxCell id="C1Lx6RwTq1piZFSp2DUt-323" value="" style="shape=partialRectangle;connectable=0;fillColor=none;top=0;left=0;bottom=0;right=0;editable=1;overflow=hidden;" parent="C1Lx6RwTq1piZFSp2DUt-322" vertex="1">
          <mxGeometry width="30" height="30" as="geometry">
            <mxRectangle width="30" height="30" as="alternateBounds" />
          </mxGeometry>
        </mxCell>
        <mxCell id="C1Lx6RwTq1piZFSp2DUt-324" value="email char()" style="shape=partialRectangle;connectable=0;fillColor=none;top=0;left=0;bottom=0;right=0;align=left;spacingLeft=6;overflow=hidden;" parent="C1Lx6RwTq1piZFSp2DUt-322" vertex="1">
          <mxGeometry x="30" width="170" height="30" as="geometry">
            <mxRectangle width="170" height="30" as="alternateBounds" />
          </mxGeometry>
        </mxCell>
        <mxCell id="C1Lx6RwTq1piZFSp2DUt-328" value="ContactCard" style="shape=table;startSize=30;container=1;collapsible=1;childLayout=tableLayout;fixedRows=1;rowLines=0;fontStyle=1;align=center;resizeLast=1;rounded=1;shadow=0;sketch=0;fillColor=default;gradientColor=none;swimlaneFillColor=default;" parent="1" vertex="1">
          <mxGeometry x="120" y="500" width="280" height="160" as="geometry" />
        </mxCell>
        <mxCell id="C1Lx6RwTq1piZFSp2DUt-329" value="" style="shape=tableRow;horizontal=0;startSize=0;swimlaneHead=0;swimlaneBody=0;fillColor=none;collapsible=0;dropTarget=0;points=[[0,0.5],[1,0.5]];portConstraint=eastwest;top=0;left=0;right=0;bottom=0;rounded=1;shadow=0;sketch=0;" parent="C1Lx6RwTq1piZFSp2DUt-328" vertex="1">
          <mxGeometry y="30" width="280" height="30" as="geometry" />
        </mxCell>
        <mxCell id="C1Lx6RwTq1piZFSp2DUt-330" value="PK" style="shape=partialRectangle;connectable=0;fillColor=none;top=0;left=0;bottom=0;right=0;fontStyle=1;overflow=hidden;rounded=1;shadow=0;sketch=0;" parent="C1Lx6RwTq1piZFSp2DUt-329" vertex="1">
          <mxGeometry width="60" height="30" as="geometry">
            <mxRectangle width="60" height="30" as="alternateBounds" />
          </mxGeometry>
        </mxCell>
        <mxCell id="C1Lx6RwTq1piZFSp2DUt-331" value="id uuid UNIQUE NOT NULL" style="shape=partialRectangle;connectable=0;fillColor=none;top=0;left=0;bottom=0;right=0;align=left;spacingLeft=6;fontStyle=1;overflow=hidden;rounded=1;shadow=0;sketch=0;" parent="C1Lx6RwTq1piZFSp2DUt-329" vertex="1">
          <mxGeometry x="60" width="220" height="30" as="geometry">
            <mxRectangle width="220" height="30" as="alternateBounds" />
          </mxGeometry>
        </mxCell>
        <mxCell id="C1Lx6RwTq1piZFSp2DUt-332" value="" style="shape=tableRow;horizontal=0;startSize=0;swimlaneHead=0;swimlaneBody=0;fillColor=none;collapsible=0;dropTarget=0;points=[[0,0.5],[1,0.5]];portConstraint=eastwest;top=0;left=0;right=0;bottom=1;rounded=1;shadow=0;sketch=0;" parent="C1Lx6RwTq1piZFSp2DUt-328" vertex="1">
          <mxGeometry y="60" width="280" height="30" as="geometry" />
        </mxCell>
        <mxCell id="C1Lx6RwTq1piZFSp2DUt-333" value="FK" style="shape=partialRectangle;connectable=0;fillColor=none;top=0;left=0;bottom=0;right=0;fontStyle=1;overflow=hidden;rounded=1;shadow=0;sketch=0;" parent="C1Lx6RwTq1piZFSp2DUt-332" vertex="1">
          <mxGeometry width="60" height="30" as="geometry">
            <mxRectangle width="60" height="30" as="alternateBounds" />
          </mxGeometry>
        </mxCell>
        <mxCell id="C1Lx6RwTq1piZFSp2DUt-334" value="user int UNIQUE NOT NULL" style="shape=partialRectangle;connectable=0;fillColor=none;top=0;left=0;bottom=0;right=0;align=left;spacingLeft=6;fontStyle=1;overflow=hidden;rounded=1;shadow=0;sketch=0;" parent="C1Lx6RwTq1piZFSp2DUt-332" vertex="1">
          <mxGeometry x="60" width="220" height="30" as="geometry">
            <mxRectangle width="220" height="30" as="alternateBounds" />
          </mxGeometry>
        </mxCell>
        <mxCell id="C1Lx6RwTq1piZFSp2DUt-335" value="" style="shape=tableRow;horizontal=0;startSize=0;swimlaneHead=0;swimlaneBody=0;fillColor=none;collapsible=0;dropTarget=0;points=[[0,0.5],[1,0.5]];portConstraint=eastwest;top=0;left=0;right=0;bottom=0;rounded=1;shadow=0;sketch=0;" parent="C1Lx6RwTq1piZFSp2DUt-328" vertex="1">
          <mxGeometry y="90" width="280" height="30" as="geometry" />
        </mxCell>
        <mxCell id="C1Lx6RwTq1piZFSp2DUt-336" value="" style="shape=partialRectangle;connectable=0;fillColor=none;top=0;left=0;bottom=0;right=0;editable=1;overflow=hidden;rounded=1;shadow=0;sketch=0;" parent="C1Lx6RwTq1piZFSp2DUt-335" vertex="1">
          <mxGeometry width="60" height="30" as="geometry">
            <mxRectangle width="60" height="30" as="alternateBounds" />
          </mxGeometry>
        </mxCell>
        <mxCell id="C1Lx6RwTq1piZFSp2DUt-337" value="website_link char()" style="shape=partialRectangle;connectable=0;fillColor=none;top=0;left=0;bottom=0;right=0;align=left;spacingLeft=6;overflow=hidden;rounded=1;shadow=0;sketch=0;" parent="C1Lx6RwTq1piZFSp2DUt-335" vertex="1">
          <mxGeometry x="60" width="220" height="30" as="geometry">
            <mxRectangle width="220" height="30" as="alternateBounds" />
          </mxGeometry>
        </mxCell>
        <mxCell id="C1Lx6RwTq1piZFSp2DUt-338" value="" style="shape=tableRow;horizontal=0;startSize=0;swimlaneHead=0;swimlaneBody=0;fillColor=none;collapsible=0;dropTarget=0;points=[[0,0.5],[1,0.5]];portConstraint=eastwest;top=0;left=0;right=0;bottom=0;rounded=1;shadow=0;sketch=0;" parent="C1Lx6RwTq1piZFSp2DUt-328" vertex="1">
          <mxGeometry y="120" width="280" height="30" as="geometry" />
        </mxCell>
        <mxCell id="C1Lx6RwTq1piZFSp2DUt-339" value="" style="shape=partialRectangle;connectable=0;fillColor=none;top=0;left=0;bottom=0;right=0;editable=1;overflow=hidden;rounded=1;shadow=0;sketch=0;" parent="C1Lx6RwTq1piZFSp2DUt-338" vertex="1">
          <mxGeometry width="60" height="30" as="geometry">
            <mxRectangle width="60" height="30" as="alternateBounds" />
          </mxGeometry>
        </mxCell>
        <mxCell id="C1Lx6RwTq1piZFSp2DUt-340" value="phone_number char() PROTECTED" style="shape=partialRectangle;connectable=0;fillColor=none;top=0;left=0;bottom=0;right=0;align=left;spacingLeft=6;overflow=hidden;rounded=1;shadow=0;sketch=0;" parent="C1Lx6RwTq1piZFSp2DUt-338" vertex="1">
          <mxGeometry x="60" width="220" height="30" as="geometry">
            <mxRectangle width="220" height="30" as="alternateBounds" />
          </mxGeometry>
        </mxCell>
        <mxCell id="C1Lx6RwTq1piZFSp2DUt-342" value="Address" style="shape=table;startSize=30;container=1;collapsible=1;childLayout=tableLayout;fixedRows=1;rowLines=0;fontStyle=1;align=center;resizeLast=1;rounded=1;shadow=0;sketch=0;fillColor=default;gradientColor=none;swimlaneFillColor=default;" parent="1" vertex="1">
          <mxGeometry x="680" y="500" width="290" height="250" as="geometry" />
        </mxCell>
        <mxCell id="C1Lx6RwTq1piZFSp2DUt-343" value="" style="shape=tableRow;horizontal=0;startSize=0;swimlaneHead=0;swimlaneBody=0;fillColor=none;collapsible=0;dropTarget=0;points=[[0,0.5],[1,0.5]];portConstraint=eastwest;top=0;left=0;right=0;bottom=0;rounded=1;shadow=0;sketch=0;" parent="C1Lx6RwTq1piZFSp2DUt-342" vertex="1">
          <mxGeometry y="30" width="290" height="30" as="geometry" />
        </mxCell>
        <mxCell id="C1Lx6RwTq1piZFSp2DUt-344" value="PK" style="shape=partialRectangle;connectable=0;fillColor=none;top=0;left=0;bottom=0;right=0;fontStyle=1;overflow=hidden;rounded=1;shadow=0;sketch=0;" parent="C1Lx6RwTq1piZFSp2DUt-343" vertex="1">
          <mxGeometry width="60" height="30" as="geometry">
            <mxRectangle width="60" height="30" as="alternateBounds" />
          </mxGeometry>
        </mxCell>
        <mxCell id="C1Lx6RwTq1piZFSp2DUt-345" value="id uuid UNIQUE NOT NULL" style="shape=partialRectangle;connectable=0;fillColor=none;top=0;left=0;bottom=0;right=0;align=left;spacingLeft=6;fontStyle=1;overflow=hidden;rounded=1;shadow=0;sketch=0;" parent="C1Lx6RwTq1piZFSp2DUt-343" vertex="1">
          <mxGeometry x="60" width="230" height="30" as="geometry">
            <mxRectangle width="230" height="30" as="alternateBounds" />
          </mxGeometry>
        </mxCell>
        <mxCell id="C1Lx6RwTq1piZFSp2DUt-346" value="" style="shape=tableRow;horizontal=0;startSize=0;swimlaneHead=0;swimlaneBody=0;fillColor=none;collapsible=0;dropTarget=0;points=[[0,0.5],[1,0.5]];portConstraint=eastwest;top=0;left=0;right=0;bottom=1;rounded=1;shadow=0;sketch=0;" parent="C1Lx6RwTq1piZFSp2DUt-342" vertex="1">
          <mxGeometry y="60" width="290" height="30" as="geometry" />
        </mxCell>
        <mxCell id="C1Lx6RwTq1piZFSp2DUt-347" value="FK" style="shape=partialRectangle;connectable=0;fillColor=none;top=0;left=0;bottom=0;right=0;fontStyle=1;overflow=hidden;rounded=1;shadow=0;sketch=0;" parent="C1Lx6RwTq1piZFSp2DUt-346" vertex="1">
          <mxGeometry width="60" height="30" as="geometry">
            <mxRectangle width="60" height="30" as="alternateBounds" />
          </mxGeometry>
        </mxCell>
        <mxCell id="C1Lx6RwTq1piZFSp2DUt-348" value="contact_card uuid UNIQUE NOT NULL" style="shape=partialRectangle;connectable=0;fillColor=none;top=0;left=0;bottom=0;right=0;align=left;spacingLeft=6;fontStyle=1;overflow=hidden;rounded=1;shadow=0;sketch=0;" parent="C1Lx6RwTq1piZFSp2DUt-346" vertex="1">
          <mxGeometry x="60" width="230" height="30" as="geometry">
            <mxRectangle width="230" height="30" as="alternateBounds" />
          </mxGeometry>
        </mxCell>
        <mxCell id="C1Lx6RwTq1piZFSp2DUt-349" value="" style="shape=tableRow;horizontal=0;startSize=0;swimlaneHead=0;swimlaneBody=0;fillColor=none;collapsible=0;dropTarget=0;points=[[0,0.5],[1,0.5]];portConstraint=eastwest;top=0;left=0;right=0;bottom=0;rounded=1;shadow=0;sketch=0;swimlaneFillColor=default;" parent="C1Lx6RwTq1piZFSp2DUt-342" vertex="1">
          <mxGeometry y="90" width="290" height="30" as="geometry" />
        </mxCell>
        <mxCell id="C1Lx6RwTq1piZFSp2DUt-350" value="" style="shape=partialRectangle;connectable=0;fillColor=none;top=0;left=0;bottom=0;right=0;editable=1;overflow=hidden;rounded=1;shadow=0;sketch=0;" parent="C1Lx6RwTq1piZFSp2DUt-349" vertex="1">
          <mxGeometry width="60" height="30" as="geometry">
            <mxRectangle width="60" height="30" as="alternateBounds" />
          </mxGeometry>
        </mxCell>
        <mxCell id="C1Lx6RwTq1piZFSp2DUt-351" value="street_one char() PROTECTED" style="shape=partialRectangle;connectable=0;fillColor=none;top=0;left=0;bottom=0;right=0;align=left;spacingLeft=6;overflow=hidden;rounded=1;shadow=0;sketch=0;" parent="C1Lx6RwTq1piZFSp2DUt-349" vertex="1">
          <mxGeometry x="60" width="230" height="30" as="geometry">
            <mxRectangle width="230" height="30" as="alternateBounds" />
          </mxGeometry>
        </mxCell>
        <mxCell id="C1Lx6RwTq1piZFSp2DUt-352" value="" style="shape=tableRow;horizontal=0;startSize=0;swimlaneHead=0;swimlaneBody=0;fillColor=none;collapsible=0;dropTarget=0;points=[[0,0.5],[1,0.5]];portConstraint=eastwest;top=0;left=0;right=0;bottom=0;rounded=1;shadow=0;sketch=0;" parent="C1Lx6RwTq1piZFSp2DUt-342" vertex="1">
          <mxGeometry y="120" width="290" height="30" as="geometry" />
        </mxCell>
        <mxCell id="C1Lx6RwTq1piZFSp2DUt-353" value="" style="shape=partialRectangle;connectable=0;fillColor=none;top=0;left=0;bottom=0;right=0;editable=1;overflow=hidden;rounded=1;shadow=0;sketch=0;" parent="C1Lx6RwTq1piZFSp2DUt-352" vertex="1">
          <mxGeometry width="60" height="30" as="geometry">
            <mxRectangle width="60" height="30" as="alternateBounds" />
          </mxGeometry>
        </mxCell>
        <mxCell id="C1Lx6RwTq1piZFSp2DUt-354" value="street_two  char() PROTECTED" style="shape=partialRectangle;connectable=0;fillColor=none;top=0;left=0;bottom=0;right=0;align=left;spacingLeft=6;overflow=hidden;rounded=1;shadow=0;sketch=0;" parent="C1Lx6RwTq1piZFSp2DUt-352" vertex="1">
          <mxGeometry x="60" width="230" height="30" as="geometry">
            <mxRectangle width="230" height="30" as="alternateBounds" />
          </mxGeometry>
        </mxCell>
        <mxCell id="C1Lx6RwTq1piZFSp2DUt-361" style="shape=tableRow;horizontal=0;startSize=0;swimlaneHead=0;swimlaneBody=0;fillColor=none;collapsible=0;dropTarget=0;points=[[0,0.5],[1,0.5]];portConstraint=eastwest;top=0;left=0;right=0;bottom=0;rounded=1;shadow=0;sketch=0;" parent="C1Lx6RwTq1piZFSp2DUt-342" vertex="1">
          <mxGeometry y="150" width="290" height="30" as="geometry" />
        </mxCell>
        <mxCell id="C1Lx6RwTq1piZFSp2DUt-362" style="shape=partialRectangle;connectable=0;fillColor=none;top=0;left=0;bottom=0;right=0;editable=1;overflow=hidden;rounded=1;shadow=0;sketch=0;" parent="C1Lx6RwTq1piZFSp2DUt-361" vertex="1">
          <mxGeometry width="60" height="30" as="geometry">
            <mxRectangle width="60" height="30" as="alternateBounds" />
          </mxGeometry>
        </mxCell>
        <mxCell id="C1Lx6RwTq1piZFSp2DUt-363" value="city  char() PROTECTED" style="shape=partialRectangle;connectable=0;fillColor=none;top=0;left=0;bottom=0;right=0;align=left;spacingLeft=6;overflow=hidden;rounded=1;shadow=0;sketch=0;" parent="C1Lx6RwTq1piZFSp2DUt-361" vertex="1">
          <mxGeometry x="60" width="230" height="30" as="geometry">
            <mxRectangle width="230" height="30" as="alternateBounds" />
          </mxGeometry>
        </mxCell>
        <mxCell id="C1Lx6RwTq1piZFSp2DUt-358" style="shape=tableRow;horizontal=0;startSize=0;swimlaneHead=0;swimlaneBody=0;fillColor=none;collapsible=0;dropTarget=0;points=[[0,0.5],[1,0.5]];portConstraint=eastwest;top=0;left=0;right=0;bottom=0;rounded=1;shadow=0;sketch=0;" parent="C1Lx6RwTq1piZFSp2DUt-342" vertex="1">
          <mxGeometry y="180" width="290" height="30" as="geometry" />
        </mxCell>
        <mxCell id="C1Lx6RwTq1piZFSp2DUt-359" style="shape=partialRectangle;connectable=0;fillColor=none;top=0;left=0;bottom=0;right=0;editable=1;overflow=hidden;rounded=1;shadow=0;sketch=0;" parent="C1Lx6RwTq1piZFSp2DUt-358" vertex="1">
          <mxGeometry width="60" height="30" as="geometry">
            <mxRectangle width="60" height="30" as="alternateBounds" />
          </mxGeometry>
        </mxCell>
        <mxCell id="C1Lx6RwTq1piZFSp2DUt-360" value="state  char() PROTECTED" style="shape=partialRectangle;connectable=0;fillColor=none;top=0;left=0;bottom=0;right=0;align=left;spacingLeft=6;overflow=hidden;rounded=1;shadow=0;sketch=0;" parent="C1Lx6RwTq1piZFSp2DUt-358" vertex="1">
          <mxGeometry x="60" width="230" height="30" as="geometry">
            <mxRectangle width="230" height="30" as="alternateBounds" />
          </mxGeometry>
        </mxCell>
        <mxCell id="C1Lx6RwTq1piZFSp2DUt-355" style="shape=tableRow;horizontal=0;startSize=0;swimlaneHead=0;swimlaneBody=0;fillColor=none;collapsible=0;dropTarget=0;points=[[0,0.5],[1,0.5]];portConstraint=eastwest;top=0;left=0;right=0;bottom=0;rounded=1;shadow=0;sketch=0;" parent="C1Lx6RwTq1piZFSp2DUt-342" vertex="1">
          <mxGeometry y="210" width="290" height="30" as="geometry" />
        </mxCell>
        <mxCell id="C1Lx6RwTq1piZFSp2DUt-356" style="shape=partialRectangle;connectable=0;fillColor=none;top=0;left=0;bottom=0;right=0;editable=1;overflow=hidden;rounded=1;shadow=0;sketch=0;" parent="C1Lx6RwTq1piZFSp2DUt-355" vertex="1">
          <mxGeometry width="60" height="30" as="geometry">
            <mxRectangle width="60" height="30" as="alternateBounds" />
          </mxGeometry>
        </mxCell>
        <mxCell id="C1Lx6RwTq1piZFSp2DUt-357" value="zip  char() PROTECTED" style="shape=partialRectangle;connectable=0;fillColor=none;top=0;left=0;bottom=0;right=0;align=left;spacingLeft=6;overflow=hidden;rounded=1;shadow=0;sketch=0;" parent="C1Lx6RwTq1piZFSp2DUt-355" vertex="1">
          <mxGeometry x="60" width="230" height="30" as="geometry">
            <mxRectangle width="230" height="30" as="alternateBounds" />
          </mxGeometry>
        </mxCell>
        <mxCell id="C1Lx6RwTq1piZFSp2DUt-364" value="Category" style="shape=table;startSize=30;container=1;collapsible=1;childLayout=tableLayout;fixedRows=1;rowLines=0;fontStyle=1;align=center;resizeLast=1;rounded=1;shadow=0;sketch=0;fillColor=default;gradientColor=none;swimlaneFillColor=default;" parent="1" vertex="1">
          <mxGeometry x="1200" y="970" width="211" height="90" as="geometry" />
        </mxCell>
        <mxCell id="C1Lx6RwTq1piZFSp2DUt-365" value="" style="shape=tableRow;horizontal=0;startSize=0;swimlaneHead=0;swimlaneBody=0;fillColor=none;collapsible=0;dropTarget=0;points=[[0,0.5],[1,0.5]];portConstraint=eastwest;top=0;left=0;right=0;bottom=0;rounded=1;shadow=0;sketch=0;" parent="C1Lx6RwTq1piZFSp2DUt-364" vertex="1">
          <mxGeometry y="30" width="211" height="30" as="geometry" />
        </mxCell>
        <mxCell id="C1Lx6RwTq1piZFSp2DUt-366" value="PK" style="shape=partialRectangle;connectable=0;fillColor=none;top=0;left=0;bottom=1;right=0;fontStyle=1;overflow=hidden;rounded=1;shadow=0;sketch=0;" parent="C1Lx6RwTq1piZFSp2DUt-365" vertex="1">
          <mxGeometry width="40" height="30" as="geometry">
            <mxRectangle width="40" height="30" as="alternateBounds" />
          </mxGeometry>
        </mxCell>
        <mxCell id="C1Lx6RwTq1piZFSp2DUt-367" value="id uuid UNIQUE NOT NULL" style="shape=partialRectangle;connectable=0;fillColor=none;top=0;left=0;bottom=1;right=0;align=left;spacingLeft=6;fontStyle=1;overflow=hidden;rounded=1;shadow=0;sketch=0;" parent="C1Lx6RwTq1piZFSp2DUt-365" vertex="1">
          <mxGeometry x="40" width="171" height="30" as="geometry">
            <mxRectangle width="171" height="30" as="alternateBounds" />
          </mxGeometry>
        </mxCell>
        <mxCell id="C1Lx6RwTq1piZFSp2DUt-371" value="" style="shape=tableRow;horizontal=0;startSize=0;swimlaneHead=0;swimlaneBody=0;fillColor=none;collapsible=0;dropTarget=0;points=[[0,0.5],[1,0.5]];portConstraint=eastwest;top=0;left=0;right=0;bottom=0;rounded=1;shadow=0;sketch=0;" parent="C1Lx6RwTq1piZFSp2DUt-364" vertex="1">
          <mxGeometry y="60" width="211" height="20" as="geometry" />
        </mxCell>
        <mxCell id="C1Lx6RwTq1piZFSp2DUt-372" value="" style="shape=partialRectangle;connectable=0;fillColor=none;top=0;left=0;bottom=0;right=0;editable=1;overflow=hidden;rounded=1;shadow=0;sketch=0;" parent="C1Lx6RwTq1piZFSp2DUt-371" vertex="1">
          <mxGeometry width="40" height="20" as="geometry">
            <mxRectangle width="40" height="20" as="alternateBounds" />
          </mxGeometry>
        </mxCell>
        <mxCell id="C1Lx6RwTq1piZFSp2DUt-373" value="title char()" style="shape=partialRectangle;connectable=0;fillColor=none;top=0;left=0;bottom=0;right=0;align=left;spacingLeft=6;overflow=hidden;rounded=1;shadow=0;sketch=0;" parent="C1Lx6RwTq1piZFSp2DUt-371" vertex="1">
          <mxGeometry x="40" width="171" height="20" as="geometry">
            <mxRectangle width="171" height="20" as="alternateBounds" />
          </mxGeometry>
        </mxCell>
        <mxCell id="C1Lx6RwTq1piZFSp2DUt-377" value="Page" style="shape=table;startSize=30;container=1;collapsible=1;childLayout=tableLayout;fixedRows=1;rowLines=0;fontStyle=1;align=center;resizeLast=1;rounded=1;shadow=0;sketch=0;fillColor=default;gradientColor=none;swimlaneFillColor=default;" parent="1" vertex="1">
          <mxGeometry x="1532" y="1049" width="221" height="160" as="geometry" />
        </mxCell>
        <mxCell id="C1Lx6RwTq1piZFSp2DUt-378" value="" style="shape=tableRow;horizontal=0;startSize=0;swimlaneHead=0;swimlaneBody=0;fillColor=none;collapsible=0;dropTarget=0;points=[[0,0.5],[1,0.5]];portConstraint=eastwest;top=0;left=0;right=0;bottom=0;rounded=1;shadow=0;sketch=0;" parent="C1Lx6RwTq1piZFSp2DUt-377" vertex="1">
          <mxGeometry y="30" width="221" height="30" as="geometry" />
        </mxCell>
        <mxCell id="C1Lx6RwTq1piZFSp2DUt-379" value="PK" style="shape=partialRectangle;connectable=0;fillColor=none;top=0;left=0;bottom=0;right=0;fontStyle=1;overflow=hidden;rounded=1;shadow=0;sketch=0;" parent="C1Lx6RwTq1piZFSp2DUt-378" vertex="1">
          <mxGeometry width="45" height="30" as="geometry">
            <mxRectangle width="45" height="30" as="alternateBounds" />
          </mxGeometry>
        </mxCell>
        <mxCell id="C1Lx6RwTq1piZFSp2DUt-380" value="id uuid UNIQUE NOT NULL" style="shape=partialRectangle;connectable=0;fillColor=none;top=0;left=0;bottom=0;right=0;align=left;spacingLeft=6;fontStyle=1;overflow=hidden;rounded=1;shadow=0;sketch=0;" parent="C1Lx6RwTq1piZFSp2DUt-378" vertex="1">
          <mxGeometry x="45" width="176" height="30" as="geometry">
            <mxRectangle width="176" height="30" as="alternateBounds" />
          </mxGeometry>
        </mxCell>
        <mxCell id="C1Lx6RwTq1piZFSp2DUt-393" style="shape=tableRow;horizontal=0;startSize=0;swimlaneHead=0;swimlaneBody=0;fillColor=none;collapsible=0;dropTarget=0;points=[[0,0.5],[1,0.5]];portConstraint=eastwest;top=0;left=0;right=0;bottom=0;rounded=1;shadow=0;sketch=0;" parent="C1Lx6RwTq1piZFSp2DUt-377" vertex="1">
          <mxGeometry y="60" width="221" height="30" as="geometry" />
        </mxCell>
        <mxCell id="C1Lx6RwTq1piZFSp2DUt-394" value="FK" style="shape=partialRectangle;connectable=0;fillColor=none;top=0;left=0;bottom=0;right=0;fontStyle=1;overflow=hidden;rounded=1;shadow=0;sketch=0;" parent="C1Lx6RwTq1piZFSp2DUt-393" vertex="1">
          <mxGeometry width="45" height="30" as="geometry">
            <mxRectangle width="45" height="30" as="alternateBounds" />
          </mxGeometry>
        </mxCell>
        <mxCell id="C1Lx6RwTq1piZFSp2DUt-395" value="category uuid NOT NULL" style="shape=partialRectangle;connectable=0;fillColor=none;top=0;left=0;bottom=0;right=0;align=left;spacingLeft=6;fontStyle=1;overflow=hidden;rounded=1;shadow=0;sketch=0;" parent="C1Lx6RwTq1piZFSp2DUt-393" vertex="1">
          <mxGeometry x="45" width="176" height="30" as="geometry">
            <mxRectangle width="176" height="30" as="alternateBounds" />
          </mxGeometry>
        </mxCell>
        <mxCell id="C1Lx6RwTq1piZFSp2DUt-381" value="" style="shape=tableRow;horizontal=0;startSize=0;swimlaneHead=0;swimlaneBody=0;fillColor=none;collapsible=0;dropTarget=0;points=[[0,0.5],[1,0.5]];portConstraint=eastwest;top=0;left=0;right=0;bottom=1;rounded=1;shadow=0;sketch=0;" parent="C1Lx6RwTq1piZFSp2DUt-377" vertex="1">
          <mxGeometry y="90" width="221" height="30" as="geometry" />
        </mxCell>
        <mxCell id="C1Lx6RwTq1piZFSp2DUt-382" value="FK" style="shape=partialRectangle;connectable=0;fillColor=none;top=0;left=0;bottom=0;right=0;fontStyle=1;overflow=hidden;rounded=1;shadow=0;sketch=0;" parent="C1Lx6RwTq1piZFSp2DUt-381" vertex="1">
          <mxGeometry width="45" height="30" as="geometry">
            <mxRectangle width="45" height="30" as="alternateBounds" />
          </mxGeometry>
        </mxCell>
        <mxCell id="C1Lx6RwTq1piZFSp2DUt-383" value="user uuid NOT NULL" style="shape=partialRectangle;connectable=0;fillColor=none;top=0;left=0;bottom=0;right=0;align=left;spacingLeft=6;fontStyle=1;overflow=hidden;rounded=1;shadow=0;sketch=0;" parent="C1Lx6RwTq1piZFSp2DUt-381" vertex="1">
          <mxGeometry x="45" width="176" height="30" as="geometry">
            <mxRectangle width="176" height="30" as="alternateBounds" />
          </mxGeometry>
        </mxCell>
        <mxCell id="C1Lx6RwTq1piZFSp2DUt-384" value="" style="shape=tableRow;horizontal=0;startSize=0;swimlaneHead=0;swimlaneBody=0;fillColor=none;collapsible=0;dropTarget=0;points=[[0,0.5],[1,0.5]];portConstraint=eastwest;top=0;left=0;right=0;bottom=0;rounded=1;shadow=0;sketch=0;" parent="C1Lx6RwTq1piZFSp2DUt-377" vertex="1">
          <mxGeometry y="120" width="221" height="30" as="geometry" />
        </mxCell>
        <mxCell id="C1Lx6RwTq1piZFSp2DUt-385" value="" style="shape=partialRectangle;connectable=0;fillColor=none;top=0;left=0;bottom=0;right=0;editable=1;overflow=hidden;rounded=1;shadow=0;sketch=0;" parent="C1Lx6RwTq1piZFSp2DUt-384" vertex="1">
          <mxGeometry width="45" height="30" as="geometry">
            <mxRectangle width="45" height="30" as="alternateBounds" />
          </mxGeometry>
        </mxCell>
        <mxCell id="C1Lx6RwTq1piZFSp2DUt-386" value="copy char()" style="shape=partialRectangle;connectable=0;fillColor=none;top=0;left=0;bottom=0;right=0;align=left;spacingLeft=6;overflow=hidden;rounded=1;shadow=0;sketch=0;" parent="C1Lx6RwTq1piZFSp2DUt-384" vertex="1">
          <mxGeometry x="45" width="176" height="30" as="geometry">
            <mxRectangle width="176" height="30" as="alternateBounds" />
          </mxGeometry>
        </mxCell>
        <UserObject label="" lucidchartObjectId="7-xZy9cFa7On" id="C1Lx6RwTq1piZFSp2DUt-396">
          <mxCell style="html=1;jettySize=18;whiteSpace=wrap;fontSize=13;strokeColor=#1A1A1A;strokeWidth=1.5;rounded=1;arcSize=12;edgeStyle=orthogonalEdgeStyle;startArrow=ERone;startSize=16;endArrow=ERmany;endSize=10;exitX=1;exitY=0.5;exitDx=0;exitDy=0;entryX=0;entryY=0.5;entryDx=0;entryDy=0;" parent="1" source="C1Lx6RwTq1piZFSp2DUt-365" target="C1Lx6RwTq1piZFSp2DUt-393" edge="1">
            <mxGeometry width="100" height="100" relative="1" as="geometry">
              <Array as="points">
                <mxPoint x="1440" y="1015" />
                <mxPoint x="1440" y="1124" />
              </Array>
              <mxPoint x="1411" y="1015" as="sourcePoint" />
              <mxPoint x="1510" y="1225" as="targetPoint" />
            </mxGeometry>
          </mxCell>
        </UserObject>
        <mxCell id="C1Lx6RwTq1piZFSp2DUt-410" value="Reply" style="shape=table;startSize=30;container=1;collapsible=1;childLayout=tableLayout;fixedRows=1;rowLines=0;fontStyle=1;align=center;resizeLast=1;rounded=1;shadow=0;sketch=0;fillColor=default;gradientColor=none;swimlaneFillColor=default;" parent="1" vertex="1">
          <mxGeometry x="1500" y="1340" width="285" height="160" as="geometry" />
        </mxCell>
        <mxCell id="C1Lx6RwTq1piZFSp2DUt-411" value="" style="shape=tableRow;horizontal=0;startSize=0;swimlaneHead=0;swimlaneBody=0;fillColor=none;collapsible=0;dropTarget=0;points=[[0,0.5],[1,0.5]];portConstraint=eastwest;top=0;left=0;right=0;bottom=0;rounded=1;shadow=0;sketch=0;" parent="C1Lx6RwTq1piZFSp2DUt-410" vertex="1">
          <mxGeometry y="30" width="285" height="30" as="geometry" />
        </mxCell>
        <mxCell id="C1Lx6RwTq1piZFSp2DUt-412" value="PK" style="shape=partialRectangle;connectable=0;fillColor=none;top=0;left=0;bottom=0;right=0;fontStyle=1;overflow=hidden;rounded=1;shadow=0;sketch=0;" parent="C1Lx6RwTq1piZFSp2DUt-411" vertex="1">
          <mxGeometry width="45" height="30" as="geometry">
            <mxRectangle width="45" height="30" as="alternateBounds" />
          </mxGeometry>
        </mxCell>
        <mxCell id="C1Lx6RwTq1piZFSp2DUt-413" value="id uuid UNIQUE NOT NULL" style="shape=partialRectangle;connectable=0;fillColor=none;top=0;left=0;bottom=0;right=0;align=left;spacingLeft=6;fontStyle=1;overflow=hidden;rounded=1;shadow=0;sketch=0;" parent="C1Lx6RwTq1piZFSp2DUt-411" vertex="1">
          <mxGeometry x="45" width="240" height="30" as="geometry">
            <mxRectangle width="240" height="30" as="alternateBounds" />
          </mxGeometry>
        </mxCell>
        <mxCell id="C1Lx6RwTq1piZFSp2DUt-414" value="" style="shape=tableRow;horizontal=0;startSize=0;swimlaneHead=0;swimlaneBody=0;fillColor=none;collapsible=0;dropTarget=0;points=[[0,0.5],[1,0.5]];portConstraint=eastwest;top=0;left=0;right=0;bottom=0;rounded=1;shadow=0;sketch=0;" parent="C1Lx6RwTq1piZFSp2DUt-410" vertex="1">
          <mxGeometry y="60" width="285" height="30" as="geometry" />
        </mxCell>
        <mxCell id="C1Lx6RwTq1piZFSp2DUt-415" value="FK" style="shape=partialRectangle;connectable=0;fillColor=none;top=0;left=0;bottom=0;right=0;fontStyle=1;overflow=hidden;rounded=1;shadow=0;sketch=0;" parent="C1Lx6RwTq1piZFSp2DUt-414" vertex="1">
          <mxGeometry width="45" height="30" as="geometry">
            <mxRectangle width="45" height="30" as="alternateBounds" />
          </mxGeometry>
        </mxCell>
        <mxCell id="C1Lx6RwTq1piZFSp2DUt-416" value="page uuid NOT NULL" style="shape=partialRectangle;connectable=0;fillColor=none;top=0;left=0;bottom=0;right=0;align=left;spacingLeft=6;fontStyle=1;overflow=hidden;rounded=1;shadow=0;sketch=0;" parent="C1Lx6RwTq1piZFSp2DUt-414" vertex="1">
          <mxGeometry x="45" width="240" height="30" as="geometry">
            <mxRectangle width="240" height="30" as="alternateBounds" />
          </mxGeometry>
        </mxCell>
        <mxCell id="C1Lx6RwTq1piZFSp2DUt-423" style="shape=tableRow;horizontal=0;startSize=0;swimlaneHead=0;swimlaneBody=0;fillColor=none;collapsible=0;dropTarget=0;points=[[0,0.5],[1,0.5]];portConstraint=eastwest;top=0;left=0;right=0;bottom=1;rounded=1;shadow=0;sketch=0;" parent="C1Lx6RwTq1piZFSp2DUt-410" vertex="1">
          <mxGeometry y="90" width="285" height="30" as="geometry" />
        </mxCell>
        <mxCell id="C1Lx6RwTq1piZFSp2DUt-424" value="FK" style="shape=partialRectangle;connectable=0;fillColor=none;top=0;left=0;bottom=0;right=0;fontStyle=1;overflow=hidden;rounded=1;shadow=0;sketch=0;" parent="C1Lx6RwTq1piZFSp2DUt-423" vertex="1">
          <mxGeometry width="45" height="30" as="geometry">
            <mxRectangle width="45" height="30" as="alternateBounds" />
          </mxGeometry>
        </mxCell>
        <mxCell id="C1Lx6RwTq1piZFSp2DUt-425" value="user int NOT NULL" style="shape=partialRectangle;connectable=0;fillColor=none;top=0;left=0;bottom=0;right=0;align=left;spacingLeft=6;fontStyle=1;overflow=hidden;rounded=1;shadow=0;sketch=0;" parent="C1Lx6RwTq1piZFSp2DUt-423" vertex="1">
          <mxGeometry x="45" width="240" height="30" as="geometry">
            <mxRectangle width="240" height="30" as="alternateBounds" />
          </mxGeometry>
        </mxCell>
        <mxCell id="C1Lx6RwTq1piZFSp2DUt-417" value="" style="shape=tableRow;horizontal=0;startSize=0;swimlaneHead=0;swimlaneBody=0;fillColor=none;collapsible=0;dropTarget=0;points=[[0,0.5],[1,0.5]];portConstraint=eastwest;top=0;left=0;right=0;bottom=0;rounded=1;shadow=0;sketch=0;" parent="C1Lx6RwTq1piZFSp2DUt-410" vertex="1">
          <mxGeometry y="120" width="285" height="30" as="geometry" />
        </mxCell>
        <mxCell id="C1Lx6RwTq1piZFSp2DUt-418" value="" style="shape=partialRectangle;connectable=0;fillColor=none;top=0;left=0;bottom=0;right=0;editable=1;overflow=hidden;rounded=1;shadow=0;sketch=0;" parent="C1Lx6RwTq1piZFSp2DUt-417" vertex="1">
          <mxGeometry width="45" height="30" as="geometry">
            <mxRectangle width="45" height="30" as="alternateBounds" />
          </mxGeometry>
        </mxCell>
        <mxCell id="C1Lx6RwTq1piZFSp2DUt-419" value="copy char()" style="shape=partialRectangle;connectable=0;fillColor=none;top=0;left=0;bottom=0;right=0;align=left;spacingLeft=6;overflow=hidden;rounded=1;shadow=0;sketch=0;" parent="C1Lx6RwTq1piZFSp2DUt-417" vertex="1">
          <mxGeometry x="45" width="240" height="30" as="geometry">
            <mxRectangle width="240" height="30" as="alternateBounds" />
          </mxGeometry>
        </mxCell>
        <mxCell id="C1Lx6RwTq1piZFSp2DUt-429" value="Reply_Reply" style="shape=table;startSize=30;container=1;collapsible=1;childLayout=tableLayout;fixedRows=1;rowLines=0;fontStyle=1;align=center;resizeLast=1;rounded=1;shadow=0;sketch=0;fillColor=default;gradientColor=none;swimlaneFillColor=default;" parent="1" vertex="1">
          <mxGeometry x="1910" y="1310" width="225" height="130" as="geometry" />
        </mxCell>
        <mxCell id="C1Lx6RwTq1piZFSp2DUt-430" value="" style="shape=tableRow;horizontal=0;startSize=0;swimlaneHead=0;swimlaneBody=0;fillColor=none;collapsible=0;dropTarget=0;points=[[0,0.5],[1,0.5]];portConstraint=eastwest;top=0;left=0;right=0;bottom=0;rounded=1;shadow=0;sketch=0;" parent="C1Lx6RwTq1piZFSp2DUt-429" vertex="1">
          <mxGeometry y="30" width="225" height="30" as="geometry" />
        </mxCell>
        <mxCell id="C1Lx6RwTq1piZFSp2DUt-431" value="PK" style="shape=partialRectangle;connectable=0;fillColor=none;top=0;left=0;bottom=0;right=0;fontStyle=1;overflow=hidden;rounded=1;shadow=0;sketch=0;" parent="C1Lx6RwTq1piZFSp2DUt-430" vertex="1">
          <mxGeometry width="45" height="30" as="geometry">
            <mxRectangle width="45" height="30" as="alternateBounds" />
          </mxGeometry>
        </mxCell>
        <mxCell id="C1Lx6RwTq1piZFSp2DUt-432" value="id uuid UNIQUE NOT NULL" style="shape=partialRectangle;connectable=0;fillColor=none;top=0;left=0;bottom=0;right=0;align=left;spacingLeft=6;fontStyle=1;overflow=hidden;rounded=1;shadow=0;sketch=0;" parent="C1Lx6RwTq1piZFSp2DUt-430" vertex="1">
          <mxGeometry x="45" width="180" height="30" as="geometry">
            <mxRectangle width="180" height="30" as="alternateBounds" />
          </mxGeometry>
        </mxCell>
        <mxCell id="C1Lx6RwTq1piZFSp2DUt-442" style="shape=tableRow;horizontal=0;startSize=0;swimlaneHead=0;swimlaneBody=0;fillColor=none;collapsible=0;dropTarget=0;points=[[0,0.5],[1,0.5]];portConstraint=eastwest;top=0;left=0;right=0;bottom=0;rounded=1;shadow=0;sketch=0;" parent="C1Lx6RwTq1piZFSp2DUt-429" vertex="1">
          <mxGeometry y="60" width="225" height="30" as="geometry" />
        </mxCell>
        <mxCell id="C1Lx6RwTq1piZFSp2DUt-443" value="FK" style="shape=partialRectangle;connectable=0;fillColor=none;top=0;left=0;bottom=0;right=0;fontStyle=1;overflow=hidden;rounded=1;shadow=0;sketch=0;" parent="C1Lx6RwTq1piZFSp2DUt-442" vertex="1">
          <mxGeometry width="45" height="30" as="geometry">
            <mxRectangle width="45" height="30" as="alternateBounds" />
          </mxGeometry>
        </mxCell>
        <mxCell id="C1Lx6RwTq1piZFSp2DUt-444" value="reply_og uuid NOT NULL" style="shape=partialRectangle;connectable=0;fillColor=none;top=0;left=0;bottom=0;right=0;align=left;spacingLeft=6;fontStyle=1;overflow=hidden;rounded=1;shadow=0;sketch=0;" parent="C1Lx6RwTq1piZFSp2DUt-442" vertex="1">
          <mxGeometry x="45" width="180" height="30" as="geometry">
            <mxRectangle width="180" height="30" as="alternateBounds" />
          </mxGeometry>
        </mxCell>
        <mxCell id="C1Lx6RwTq1piZFSp2DUt-433" value="" style="shape=tableRow;horizontal=0;startSize=0;swimlaneHead=0;swimlaneBody=0;fillColor=none;collapsible=0;dropTarget=0;points=[[0,0.5],[1,0.5]];portConstraint=eastwest;top=0;left=0;right=0;bottom=0;rounded=1;shadow=0;sketch=0;" parent="C1Lx6RwTq1piZFSp2DUt-429" vertex="1">
          <mxGeometry y="90" width="225" height="30" as="geometry" />
        </mxCell>
        <mxCell id="C1Lx6RwTq1piZFSp2DUt-434" value="FK" style="shape=partialRectangle;connectable=0;fillColor=none;top=0;left=0;bottom=0;right=0;fontStyle=1;overflow=hidden;rounded=1;shadow=0;sketch=0;" parent="C1Lx6RwTq1piZFSp2DUt-433" vertex="1">
          <mxGeometry width="45" height="30" as="geometry">
            <mxRectangle width="45" height="30" as="alternateBounds" />
          </mxGeometry>
        </mxCell>
        <mxCell id="C1Lx6RwTq1piZFSp2DUt-435" value="reply_sub uuid NOT NULL" style="shape=partialRectangle;connectable=0;fillColor=none;top=0;left=0;bottom=0;right=0;align=left;spacingLeft=6;fontStyle=1;overflow=hidden;rounded=1;shadow=0;sketch=0;" parent="C1Lx6RwTq1piZFSp2DUt-433" vertex="1">
          <mxGeometry x="45" width="180" height="30" as="geometry">
            <mxRectangle width="180" height="30" as="alternateBounds" />
          </mxGeometry>
        </mxCell>
        <mxCell id="C1Lx6RwTq1piZFSp2DUt-445" value="blog app" style="text;html=1;strokeColor=none;fillColor=none;align=center;verticalAlign=middle;whiteSpace=wrap;rounded=0;shadow=0;sketch=0;" parent="1" vertex="1">
          <mxGeometry x="2060" y="986" width="60" height="30" as="geometry" />
        </mxCell>
        <mxCell id="C1Lx6RwTq1piZFSp2DUt-447" value="HackTheBox" style="shape=table;startSize=30;container=1;collapsible=1;childLayout=tableLayout;fixedRows=1;rowLines=0;fontStyle=1;align=center;resizeLast=1;rounded=1;shadow=0;sketch=0;fillColor=default;gradientColor=none;swimlaneFillColor=default;" parent="1" vertex="1">
          <mxGeometry x="490" y="1160" width="245" height="160" as="geometry" />
        </mxCell>
        <mxCell id="C1Lx6RwTq1piZFSp2DUt-448" value="" style="shape=tableRow;horizontal=0;startSize=0;swimlaneHead=0;swimlaneBody=0;fillColor=none;collapsible=0;dropTarget=0;points=[[0,0.5],[1,0.5]];portConstraint=eastwest;top=0;left=0;right=0;bottom=0;rounded=1;shadow=0;sketch=0;" parent="C1Lx6RwTq1piZFSp2DUt-447" vertex="1">
          <mxGeometry y="30" width="245" height="30" as="geometry" />
        </mxCell>
        <mxCell id="C1Lx6RwTq1piZFSp2DUt-449" value="PK" style="shape=partialRectangle;connectable=0;fillColor=none;top=0;left=0;bottom=0;right=0;fontStyle=1;overflow=hidden;rounded=1;shadow=0;sketch=0;" parent="C1Lx6RwTq1piZFSp2DUt-448" vertex="1">
          <mxGeometry width="45" height="30" as="geometry">
            <mxRectangle width="45" height="30" as="alternateBounds" />
          </mxGeometry>
        </mxCell>
        <mxCell id="C1Lx6RwTq1piZFSp2DUt-450" value="id uuid UNIQUE NOT NULL" style="shape=partialRectangle;connectable=0;fillColor=none;top=0;left=0;bottom=0;right=0;align=left;spacingLeft=6;fontStyle=1;overflow=hidden;rounded=1;shadow=0;sketch=0;" parent="C1Lx6RwTq1piZFSp2DUt-448" vertex="1">
          <mxGeometry x="45" width="200" height="30" as="geometry">
            <mxRectangle width="200" height="30" as="alternateBounds" />
          </mxGeometry>
        </mxCell>
        <mxCell id="C1Lx6RwTq1piZFSp2DUt-451" value="" style="shape=tableRow;horizontal=0;startSize=0;swimlaneHead=0;swimlaneBody=0;fillColor=none;collapsible=0;dropTarget=0;points=[[0,0.5],[1,0.5]];portConstraint=eastwest;top=0;left=0;right=0;bottom=1;rounded=1;shadow=0;sketch=0;" parent="C1Lx6RwTq1piZFSp2DUt-447" vertex="1">
          <mxGeometry y="60" width="245" height="30" as="geometry" />
        </mxCell>
        <mxCell id="C1Lx6RwTq1piZFSp2DUt-452" value="FK" style="shape=partialRectangle;connectable=0;fillColor=none;top=0;left=0;bottom=0;right=0;fontStyle=1;overflow=hidden;rounded=1;shadow=0;sketch=0;" parent="C1Lx6RwTq1piZFSp2DUt-451" vertex="1">
          <mxGeometry width="45" height="30" as="geometry">
            <mxRectangle width="45" height="30" as="alternateBounds" />
          </mxGeometry>
        </mxCell>
        <mxCell id="C1Lx6RwTq1piZFSp2DUt-453" value="contact_card uuid NOT NULL" style="shape=partialRectangle;connectable=0;fillColor=none;top=0;left=0;bottom=0;right=0;align=left;spacingLeft=6;fontStyle=1;overflow=hidden;rounded=1;shadow=0;sketch=0;" parent="C1Lx6RwTq1piZFSp2DUt-451" vertex="1">
          <mxGeometry x="45" width="200" height="30" as="geometry">
            <mxRectangle width="200" height="30" as="alternateBounds" />
          </mxGeometry>
        </mxCell>
        <mxCell id="C1Lx6RwTq1piZFSp2DUt-454" value="" style="shape=tableRow;horizontal=0;startSize=0;swimlaneHead=0;swimlaneBody=0;fillColor=none;collapsible=0;dropTarget=0;points=[[0,0.5],[1,0.5]];portConstraint=eastwest;top=0;left=0;right=0;bottom=0;rounded=1;shadow=0;sketch=0;" parent="C1Lx6RwTq1piZFSp2DUt-447" vertex="1">
          <mxGeometry y="90" width="245" height="30" as="geometry" />
        </mxCell>
        <mxCell id="C1Lx6RwTq1piZFSp2DUt-455" value="" style="shape=partialRectangle;connectable=0;fillColor=none;top=0;left=0;bottom=0;right=0;editable=1;overflow=hidden;rounded=1;shadow=0;sketch=0;" parent="C1Lx6RwTq1piZFSp2DUt-454" vertex="1">
          <mxGeometry width="45" height="30" as="geometry">
            <mxRectangle width="45" height="30" as="alternateBounds" />
          </mxGeometry>
        </mxCell>
        <mxCell id="C1Lx6RwTq1piZFSp2DUt-456" value="username char()" style="shape=partialRectangle;connectable=0;fillColor=none;top=0;left=0;bottom=0;right=0;align=left;spacingLeft=6;overflow=hidden;rounded=1;shadow=0;sketch=0;" parent="C1Lx6RwTq1piZFSp2DUt-454" vertex="1">
          <mxGeometry x="45" width="200" height="30" as="geometry">
            <mxRectangle width="200" height="30" as="alternateBounds" />
          </mxGeometry>
        </mxCell>
        <mxCell id="C1Lx6RwTq1piZFSp2DUt-457" value="" style="shape=tableRow;horizontal=0;startSize=0;swimlaneHead=0;swimlaneBody=0;fillColor=none;collapsible=0;dropTarget=0;points=[[0,0.5],[1,0.5]];portConstraint=eastwest;top=0;left=0;right=0;bottom=0;rounded=1;shadow=0;sketch=0;" parent="C1Lx6RwTq1piZFSp2DUt-447" vertex="1">
          <mxGeometry y="120" width="245" height="30" as="geometry" />
        </mxCell>
        <mxCell id="C1Lx6RwTq1piZFSp2DUt-458" value="" style="shape=partialRectangle;connectable=0;fillColor=none;top=0;left=0;bottom=0;right=0;editable=1;overflow=hidden;rounded=1;shadow=0;sketch=0;" parent="C1Lx6RwTq1piZFSp2DUt-457" vertex="1">
          <mxGeometry width="45" height="30" as="geometry">
            <mxRectangle width="45" height="30" as="alternateBounds" />
          </mxGeometry>
        </mxCell>
        <mxCell id="C1Lx6RwTq1piZFSp2DUt-459" value="link char()" style="shape=partialRectangle;connectable=0;fillColor=none;top=0;left=0;bottom=0;right=0;align=left;spacingLeft=6;overflow=hidden;rounded=1;shadow=0;sketch=0;" parent="C1Lx6RwTq1piZFSp2DUt-457" vertex="1">
          <mxGeometry x="45" width="200" height="30" as="geometry">
            <mxRectangle width="200" height="30" as="alternateBounds" />
          </mxGeometry>
        </mxCell>
        <mxCell id="C1Lx6RwTq1piZFSp2DUt-460" value="Keybase" style="shape=table;startSize=30;container=1;collapsible=1;childLayout=tableLayout;fixedRows=1;rowLines=0;fontStyle=1;align=center;resizeLast=1;rounded=1;shadow=0;sketch=0;fillColor=default;gradientColor=none;swimlaneFillColor=default;" parent="1" vertex="1">
          <mxGeometry x="790" y="800" width="245" height="160" as="geometry" />
        </mxCell>
        <mxCell id="C1Lx6RwTq1piZFSp2DUt-461" value="" style="shape=tableRow;horizontal=0;startSize=0;swimlaneHead=0;swimlaneBody=0;fillColor=none;collapsible=0;dropTarget=0;points=[[0,0.5],[1,0.5]];portConstraint=eastwest;top=0;left=0;right=0;bottom=0;rounded=1;shadow=0;sketch=0;" parent="C1Lx6RwTq1piZFSp2DUt-460" vertex="1">
          <mxGeometry y="30" width="245" height="30" as="geometry" />
        </mxCell>
        <mxCell id="C1Lx6RwTq1piZFSp2DUt-462" value="PK" style="shape=partialRectangle;connectable=0;fillColor=none;top=0;left=0;bottom=0;right=0;fontStyle=1;overflow=hidden;rounded=1;shadow=0;sketch=0;" parent="C1Lx6RwTq1piZFSp2DUt-461" vertex="1">
          <mxGeometry width="45" height="30" as="geometry">
            <mxRectangle width="45" height="30" as="alternateBounds" />
          </mxGeometry>
        </mxCell>
        <mxCell id="C1Lx6RwTq1piZFSp2DUt-463" value="id uuid UNIQUE NOT NULL" style="shape=partialRectangle;connectable=0;fillColor=none;top=0;left=0;bottom=0;right=0;align=left;spacingLeft=6;fontStyle=1;overflow=hidden;rounded=1;shadow=0;sketch=0;" parent="C1Lx6RwTq1piZFSp2DUt-461" vertex="1">
          <mxGeometry x="45" width="200" height="30" as="geometry">
            <mxRectangle width="200" height="30" as="alternateBounds" />
          </mxGeometry>
        </mxCell>
        <mxCell id="C1Lx6RwTq1piZFSp2DUt-464" value="" style="shape=tableRow;horizontal=0;startSize=0;swimlaneHead=0;swimlaneBody=0;fillColor=none;collapsible=0;dropTarget=0;points=[[0,0.5],[1,0.5]];portConstraint=eastwest;top=0;left=0;right=0;bottom=1;rounded=1;shadow=0;sketch=0;" parent="C1Lx6RwTq1piZFSp2DUt-460" vertex="1">
          <mxGeometry y="60" width="245" height="30" as="geometry" />
        </mxCell>
        <mxCell id="C1Lx6RwTq1piZFSp2DUt-465" value="FK" style="shape=partialRectangle;connectable=0;fillColor=none;top=0;left=0;bottom=0;right=0;fontStyle=1;overflow=hidden;rounded=1;shadow=0;sketch=0;" parent="C1Lx6RwTq1piZFSp2DUt-464" vertex="1">
          <mxGeometry width="45" height="30" as="geometry">
            <mxRectangle width="45" height="30" as="alternateBounds" />
          </mxGeometry>
        </mxCell>
        <mxCell id="C1Lx6RwTq1piZFSp2DUt-466" value="contact_card uuid NOT NULL" style="shape=partialRectangle;connectable=0;fillColor=none;top=0;left=0;bottom=0;right=0;align=left;spacingLeft=6;fontStyle=1;overflow=hidden;rounded=1;shadow=0;sketch=0;" parent="C1Lx6RwTq1piZFSp2DUt-464" vertex="1">
          <mxGeometry x="45" width="200" height="30" as="geometry">
            <mxRectangle width="200" height="30" as="alternateBounds" />
          </mxGeometry>
        </mxCell>
        <mxCell id="C1Lx6RwTq1piZFSp2DUt-467" value="" style="shape=tableRow;horizontal=0;startSize=0;swimlaneHead=0;swimlaneBody=0;fillColor=none;collapsible=0;dropTarget=0;points=[[0,0.5],[1,0.5]];portConstraint=eastwest;top=0;left=0;right=0;bottom=0;rounded=1;shadow=0;sketch=0;" parent="C1Lx6RwTq1piZFSp2DUt-460" vertex="1">
          <mxGeometry y="90" width="245" height="30" as="geometry" />
        </mxCell>
        <mxCell id="C1Lx6RwTq1piZFSp2DUt-468" value="" style="shape=partialRectangle;connectable=0;fillColor=none;top=0;left=0;bottom=0;right=0;editable=1;overflow=hidden;rounded=1;shadow=0;sketch=0;" parent="C1Lx6RwTq1piZFSp2DUt-467" vertex="1">
          <mxGeometry width="45" height="30" as="geometry">
            <mxRectangle width="45" height="30" as="alternateBounds" />
          </mxGeometry>
        </mxCell>
        <mxCell id="C1Lx6RwTq1piZFSp2DUt-469" value="username char()" style="shape=partialRectangle;connectable=0;fillColor=none;top=0;left=0;bottom=0;right=0;align=left;spacingLeft=6;overflow=hidden;rounded=1;shadow=0;sketch=0;" parent="C1Lx6RwTq1piZFSp2DUt-467" vertex="1">
          <mxGeometry x="45" width="200" height="30" as="geometry">
            <mxRectangle width="200" height="30" as="alternateBounds" />
          </mxGeometry>
        </mxCell>
        <mxCell id="C1Lx6RwTq1piZFSp2DUt-470" value="" style="shape=tableRow;horizontal=0;startSize=0;swimlaneHead=0;swimlaneBody=0;fillColor=none;collapsible=0;dropTarget=0;points=[[0,0.5],[1,0.5]];portConstraint=eastwest;top=0;left=0;right=0;bottom=0;rounded=1;shadow=0;sketch=0;" parent="C1Lx6RwTq1piZFSp2DUt-460" vertex="1">
          <mxGeometry y="120" width="245" height="30" as="geometry" />
        </mxCell>
        <mxCell id="C1Lx6RwTq1piZFSp2DUt-471" value="" style="shape=partialRectangle;connectable=0;fillColor=none;top=0;left=0;bottom=0;right=0;editable=1;overflow=hidden;rounded=1;shadow=0;sketch=0;" parent="C1Lx6RwTq1piZFSp2DUt-470" vertex="1">
          <mxGeometry width="45" height="30" as="geometry">
            <mxRectangle width="45" height="30" as="alternateBounds" />
          </mxGeometry>
        </mxCell>
        <mxCell id="C1Lx6RwTq1piZFSp2DUt-472" value="link char()" style="shape=partialRectangle;connectable=0;fillColor=none;top=0;left=0;bottom=0;right=0;align=left;spacingLeft=6;overflow=hidden;rounded=1;shadow=0;sketch=0;" parent="C1Lx6RwTq1piZFSp2DUt-470" vertex="1">
          <mxGeometry x="45" width="200" height="30" as="geometry">
            <mxRectangle width="200" height="30" as="alternateBounds" />
          </mxGeometry>
        </mxCell>
        <mxCell id="C1Lx6RwTq1piZFSp2DUt-473" value="Codewars" style="shape=table;startSize=30;container=1;collapsible=1;childLayout=tableLayout;fixedRows=1;rowLines=0;fontStyle=1;align=center;resizeLast=1;rounded=1;shadow=0;sketch=0;fillColor=default;gradientColor=none;swimlaneFillColor=default;" parent="1" vertex="1">
          <mxGeometry x="490" y="980" width="245" height="160" as="geometry" />
        </mxCell>
        <mxCell id="C1Lx6RwTq1piZFSp2DUt-474" value="" style="shape=tableRow;horizontal=0;startSize=0;swimlaneHead=0;swimlaneBody=0;fillColor=none;collapsible=0;dropTarget=0;points=[[0,0.5],[1,0.5]];portConstraint=eastwest;top=0;left=0;right=0;bottom=0;rounded=1;shadow=0;sketch=0;" parent="C1Lx6RwTq1piZFSp2DUt-473" vertex="1">
          <mxGeometry y="30" width="245" height="30" as="geometry" />
        </mxCell>
        <mxCell id="C1Lx6RwTq1piZFSp2DUt-475" value="PK" style="shape=partialRectangle;connectable=0;fillColor=none;top=0;left=0;bottom=0;right=0;fontStyle=1;overflow=hidden;rounded=1;shadow=0;sketch=0;" parent="C1Lx6RwTq1piZFSp2DUt-474" vertex="1">
          <mxGeometry width="45" height="30" as="geometry">
            <mxRectangle width="45" height="30" as="alternateBounds" />
          </mxGeometry>
        </mxCell>
        <mxCell id="C1Lx6RwTq1piZFSp2DUt-476" value="id uuid UNIQUE NOT NULL" style="shape=partialRectangle;connectable=0;fillColor=none;top=0;left=0;bottom=0;right=0;align=left;spacingLeft=6;fontStyle=1;overflow=hidden;rounded=1;shadow=0;sketch=0;" parent="C1Lx6RwTq1piZFSp2DUt-474" vertex="1">
          <mxGeometry x="45" width="200" height="30" as="geometry">
            <mxRectangle width="200" height="30" as="alternateBounds" />
          </mxGeometry>
        </mxCell>
        <mxCell id="C1Lx6RwTq1piZFSp2DUt-477" value="" style="shape=tableRow;horizontal=0;startSize=0;swimlaneHead=0;swimlaneBody=0;fillColor=none;collapsible=0;dropTarget=0;points=[[0,0.5],[1,0.5]];portConstraint=eastwest;top=0;left=0;right=0;bottom=1;rounded=1;shadow=0;sketch=0;" parent="C1Lx6RwTq1piZFSp2DUt-473" vertex="1">
          <mxGeometry y="60" width="245" height="30" as="geometry" />
        </mxCell>
        <mxCell id="C1Lx6RwTq1piZFSp2DUt-478" value="FK" style="shape=partialRectangle;connectable=0;fillColor=none;top=0;left=0;bottom=0;right=0;fontStyle=1;overflow=hidden;rounded=1;shadow=0;sketch=0;" parent="C1Lx6RwTq1piZFSp2DUt-477" vertex="1">
          <mxGeometry width="45" height="30" as="geometry">
            <mxRectangle width="45" height="30" as="alternateBounds" />
          </mxGeometry>
        </mxCell>
        <mxCell id="C1Lx6RwTq1piZFSp2DUt-479" value="contact_card uuid NOT NULL" style="shape=partialRectangle;connectable=0;fillColor=none;top=0;left=0;bottom=0;right=0;align=left;spacingLeft=6;fontStyle=1;overflow=hidden;rounded=1;shadow=0;sketch=0;" parent="C1Lx6RwTq1piZFSp2DUt-477" vertex="1">
          <mxGeometry x="45" width="200" height="30" as="geometry">
            <mxRectangle width="200" height="30" as="alternateBounds" />
          </mxGeometry>
        </mxCell>
        <mxCell id="C1Lx6RwTq1piZFSp2DUt-480" value="" style="shape=tableRow;horizontal=0;startSize=0;swimlaneHead=0;swimlaneBody=0;fillColor=none;collapsible=0;dropTarget=0;points=[[0,0.5],[1,0.5]];portConstraint=eastwest;top=0;left=0;right=0;bottom=0;rounded=1;shadow=0;sketch=0;" parent="C1Lx6RwTq1piZFSp2DUt-473" vertex="1">
          <mxGeometry y="90" width="245" height="30" as="geometry" />
        </mxCell>
        <mxCell id="C1Lx6RwTq1piZFSp2DUt-481" value="" style="shape=partialRectangle;connectable=0;fillColor=none;top=0;left=0;bottom=0;right=0;editable=1;overflow=hidden;rounded=1;shadow=0;sketch=0;" parent="C1Lx6RwTq1piZFSp2DUt-480" vertex="1">
          <mxGeometry width="45" height="30" as="geometry">
            <mxRectangle width="45" height="30" as="alternateBounds" />
          </mxGeometry>
        </mxCell>
        <mxCell id="C1Lx6RwTq1piZFSp2DUt-482" value="username char()" style="shape=partialRectangle;connectable=0;fillColor=none;top=0;left=0;bottom=0;right=0;align=left;spacingLeft=6;overflow=hidden;rounded=1;shadow=0;sketch=0;" parent="C1Lx6RwTq1piZFSp2DUt-480" vertex="1">
          <mxGeometry x="45" width="200" height="30" as="geometry">
            <mxRectangle width="200" height="30" as="alternateBounds" />
          </mxGeometry>
        </mxCell>
        <mxCell id="C1Lx6RwTq1piZFSp2DUt-483" value="" style="shape=tableRow;horizontal=0;startSize=0;swimlaneHead=0;swimlaneBody=0;fillColor=none;collapsible=0;dropTarget=0;points=[[0,0.5],[1,0.5]];portConstraint=eastwest;top=0;left=0;right=0;bottom=0;rounded=1;shadow=0;sketch=0;" parent="C1Lx6RwTq1piZFSp2DUt-473" vertex="1">
          <mxGeometry y="120" width="245" height="30" as="geometry" />
        </mxCell>
        <mxCell id="C1Lx6RwTq1piZFSp2DUt-484" value="" style="shape=partialRectangle;connectable=0;fillColor=none;top=0;left=0;bottom=0;right=0;editable=1;overflow=hidden;rounded=1;shadow=0;sketch=0;" parent="C1Lx6RwTq1piZFSp2DUt-483" vertex="1">
          <mxGeometry width="45" height="30" as="geometry">
            <mxRectangle width="45" height="30" as="alternateBounds" />
          </mxGeometry>
        </mxCell>
        <mxCell id="C1Lx6RwTq1piZFSp2DUt-485" value="link char()" style="shape=partialRectangle;connectable=0;fillColor=none;top=0;left=0;bottom=0;right=0;align=left;spacingLeft=6;overflow=hidden;rounded=1;shadow=0;sketch=0;" parent="C1Lx6RwTq1piZFSp2DUt-483" vertex="1">
          <mxGeometry x="45" width="200" height="30" as="geometry">
            <mxRectangle width="200" height="30" as="alternateBounds" />
          </mxGeometry>
        </mxCell>
        <mxCell id="C1Lx6RwTq1piZFSp2DUt-486" value="LinkedIn" style="shape=table;startSize=30;container=1;collapsible=1;childLayout=tableLayout;fixedRows=1;rowLines=0;fontStyle=1;align=center;resizeLast=1;rounded=1;shadow=0;sketch=0;fillColor=default;gradientColor=none;swimlaneFillColor=default;" parent="1" vertex="1">
          <mxGeometry x="790" y="976" width="245" height="160" as="geometry" />
        </mxCell>
        <mxCell id="C1Lx6RwTq1piZFSp2DUt-487" value="" style="shape=tableRow;horizontal=0;startSize=0;swimlaneHead=0;swimlaneBody=0;fillColor=none;collapsible=0;dropTarget=0;points=[[0,0.5],[1,0.5]];portConstraint=eastwest;top=0;left=0;right=0;bottom=0;rounded=1;shadow=0;sketch=0;" parent="C1Lx6RwTq1piZFSp2DUt-486" vertex="1">
          <mxGeometry y="30" width="245" height="30" as="geometry" />
        </mxCell>
        <mxCell id="C1Lx6RwTq1piZFSp2DUt-488" value="PK" style="shape=partialRectangle;connectable=0;fillColor=none;top=0;left=0;bottom=0;right=0;fontStyle=1;overflow=hidden;rounded=1;shadow=0;sketch=0;" parent="C1Lx6RwTq1piZFSp2DUt-487" vertex="1">
          <mxGeometry width="45" height="30" as="geometry">
            <mxRectangle width="45" height="30" as="alternateBounds" />
          </mxGeometry>
        </mxCell>
        <mxCell id="C1Lx6RwTq1piZFSp2DUt-489" value="id uuid UNIQUE NOT NULL" style="shape=partialRectangle;connectable=0;fillColor=none;top=0;left=0;bottom=0;right=0;align=left;spacingLeft=6;fontStyle=1;overflow=hidden;rounded=1;shadow=0;sketch=0;" parent="C1Lx6RwTq1piZFSp2DUt-487" vertex="1">
          <mxGeometry x="45" width="200" height="30" as="geometry">
            <mxRectangle width="200" height="30" as="alternateBounds" />
          </mxGeometry>
        </mxCell>
        <mxCell id="C1Lx6RwTq1piZFSp2DUt-490" value="" style="shape=tableRow;horizontal=0;startSize=0;swimlaneHead=0;swimlaneBody=0;fillColor=none;collapsible=0;dropTarget=0;points=[[0,0.5],[1,0.5]];portConstraint=eastwest;top=0;left=0;right=0;bottom=1;rounded=1;shadow=0;sketch=0;" parent="C1Lx6RwTq1piZFSp2DUt-486" vertex="1">
          <mxGeometry y="60" width="245" height="30" as="geometry" />
        </mxCell>
        <mxCell id="C1Lx6RwTq1piZFSp2DUt-491" value="FK" style="shape=partialRectangle;connectable=0;fillColor=none;top=0;left=0;bottom=0;right=0;fontStyle=1;overflow=hidden;rounded=1;shadow=0;sketch=0;" parent="C1Lx6RwTq1piZFSp2DUt-490" vertex="1">
          <mxGeometry width="45" height="30" as="geometry">
            <mxRectangle width="45" height="30" as="alternateBounds" />
          </mxGeometry>
        </mxCell>
        <mxCell id="C1Lx6RwTq1piZFSp2DUt-492" value="contact_card uuid NOT NULL" style="shape=partialRectangle;connectable=0;fillColor=none;top=0;left=0;bottom=0;right=0;align=left;spacingLeft=6;fontStyle=1;overflow=hidden;rounded=1;shadow=0;sketch=0;" parent="C1Lx6RwTq1piZFSp2DUt-490" vertex="1">
          <mxGeometry x="45" width="200" height="30" as="geometry">
            <mxRectangle width="200" height="30" as="alternateBounds" />
          </mxGeometry>
        </mxCell>
        <mxCell id="C1Lx6RwTq1piZFSp2DUt-493" value="" style="shape=tableRow;horizontal=0;startSize=0;swimlaneHead=0;swimlaneBody=0;fillColor=none;collapsible=0;dropTarget=0;points=[[0,0.5],[1,0.5]];portConstraint=eastwest;top=0;left=0;right=0;bottom=0;rounded=1;shadow=0;sketch=0;" parent="C1Lx6RwTq1piZFSp2DUt-486" vertex="1">
          <mxGeometry y="90" width="245" height="30" as="geometry" />
        </mxCell>
        <mxCell id="C1Lx6RwTq1piZFSp2DUt-494" value="" style="shape=partialRectangle;connectable=0;fillColor=none;top=0;left=0;bottom=0;right=0;editable=1;overflow=hidden;rounded=1;shadow=0;sketch=0;" parent="C1Lx6RwTq1piZFSp2DUt-493" vertex="1">
          <mxGeometry width="45" height="30" as="geometry">
            <mxRectangle width="45" height="30" as="alternateBounds" />
          </mxGeometry>
        </mxCell>
        <mxCell id="C1Lx6RwTq1piZFSp2DUt-495" value="username char()" style="shape=partialRectangle;connectable=0;fillColor=none;top=0;left=0;bottom=0;right=0;align=left;spacingLeft=6;overflow=hidden;rounded=1;shadow=0;sketch=0;" parent="C1Lx6RwTq1piZFSp2DUt-493" vertex="1">
          <mxGeometry x="45" width="200" height="30" as="geometry">
            <mxRectangle width="200" height="30" as="alternateBounds" />
          </mxGeometry>
        </mxCell>
        <mxCell id="C1Lx6RwTq1piZFSp2DUt-496" value="" style="shape=tableRow;horizontal=0;startSize=0;swimlaneHead=0;swimlaneBody=0;fillColor=none;collapsible=0;dropTarget=0;points=[[0,0.5],[1,0.5]];portConstraint=eastwest;top=0;left=0;right=0;bottom=0;rounded=1;shadow=0;sketch=0;" parent="C1Lx6RwTq1piZFSp2DUt-486" vertex="1">
          <mxGeometry y="120" width="245" height="30" as="geometry" />
        </mxCell>
        <mxCell id="C1Lx6RwTq1piZFSp2DUt-497" value="" style="shape=partialRectangle;connectable=0;fillColor=none;top=0;left=0;bottom=0;right=0;editable=1;overflow=hidden;rounded=1;shadow=0;sketch=0;" parent="C1Lx6RwTq1piZFSp2DUt-496" vertex="1">
          <mxGeometry width="45" height="30" as="geometry">
            <mxRectangle width="45" height="30" as="alternateBounds" />
          </mxGeometry>
        </mxCell>
        <mxCell id="C1Lx6RwTq1piZFSp2DUt-498" value="link char()" style="shape=partialRectangle;connectable=0;fillColor=none;top=0;left=0;bottom=0;right=0;align=left;spacingLeft=6;overflow=hidden;rounded=1;shadow=0;sketch=0;" parent="C1Lx6RwTq1piZFSp2DUt-496" vertex="1">
          <mxGeometry x="45" width="200" height="30" as="geometry">
            <mxRectangle width="200" height="30" as="alternateBounds" />
          </mxGeometry>
        </mxCell>
        <mxCell id="C1Lx6RwTq1piZFSp2DUt-499" value="Github" style="shape=table;startSize=30;container=1;collapsible=1;childLayout=tableLayout;fixedRows=1;rowLines=0;fontStyle=1;align=center;resizeLast=1;rounded=1;shadow=0;sketch=0;fillColor=default;gradientColor=none;swimlaneFillColor=default;" parent="1" vertex="1">
          <mxGeometry x="490" y="800" width="245" height="160" as="geometry" />
        </mxCell>
        <mxCell id="C1Lx6RwTq1piZFSp2DUt-500" value="" style="shape=tableRow;horizontal=0;startSize=0;swimlaneHead=0;swimlaneBody=0;fillColor=none;collapsible=0;dropTarget=0;points=[[0,0.5],[1,0.5]];portConstraint=eastwest;top=0;left=0;right=0;bottom=0;rounded=1;shadow=0;sketch=0;" parent="C1Lx6RwTq1piZFSp2DUt-499" vertex="1">
          <mxGeometry y="30" width="245" height="30" as="geometry" />
        </mxCell>
        <mxCell id="C1Lx6RwTq1piZFSp2DUt-501" value="PK" style="shape=partialRectangle;connectable=0;fillColor=none;top=0;left=0;bottom=0;right=0;fontStyle=1;overflow=hidden;rounded=1;shadow=0;sketch=0;" parent="C1Lx6RwTq1piZFSp2DUt-500" vertex="1">
          <mxGeometry width="45" height="30" as="geometry">
            <mxRectangle width="45" height="30" as="alternateBounds" />
          </mxGeometry>
        </mxCell>
        <mxCell id="C1Lx6RwTq1piZFSp2DUt-502" value="id uuid UNIQUE NOT NULL" style="shape=partialRectangle;connectable=0;fillColor=none;top=0;left=0;bottom=0;right=0;align=left;spacingLeft=6;fontStyle=1;overflow=hidden;rounded=1;shadow=0;sketch=0;" parent="C1Lx6RwTq1piZFSp2DUt-500" vertex="1">
          <mxGeometry x="45" width="200" height="30" as="geometry">
            <mxRectangle width="200" height="30" as="alternateBounds" />
          </mxGeometry>
        </mxCell>
        <mxCell id="C1Lx6RwTq1piZFSp2DUt-503" value="" style="shape=tableRow;horizontal=0;startSize=0;swimlaneHead=0;swimlaneBody=0;fillColor=none;collapsible=0;dropTarget=0;points=[[0,0.5],[1,0.5]];portConstraint=eastwest;top=0;left=0;right=0;bottom=1;rounded=1;shadow=0;sketch=0;" parent="C1Lx6RwTq1piZFSp2DUt-499" vertex="1">
          <mxGeometry y="60" width="245" height="30" as="geometry" />
        </mxCell>
        <mxCell id="C1Lx6RwTq1piZFSp2DUt-504" value="FK" style="shape=partialRectangle;connectable=0;fillColor=none;top=0;left=0;bottom=0;right=0;fontStyle=1;overflow=hidden;rounded=1;shadow=0;sketch=0;" parent="C1Lx6RwTq1piZFSp2DUt-503" vertex="1">
          <mxGeometry width="45" height="30" as="geometry">
            <mxRectangle width="45" height="30" as="alternateBounds" />
          </mxGeometry>
        </mxCell>
        <mxCell id="C1Lx6RwTq1piZFSp2DUt-505" value="contact_card uuid NOT NULL" style="shape=partialRectangle;connectable=0;fillColor=none;top=0;left=0;bottom=0;right=0;align=left;spacingLeft=6;fontStyle=1;overflow=hidden;rounded=1;shadow=0;sketch=0;" parent="C1Lx6RwTq1piZFSp2DUt-503" vertex="1">
          <mxGeometry x="45" width="200" height="30" as="geometry">
            <mxRectangle width="200" height="30" as="alternateBounds" />
          </mxGeometry>
        </mxCell>
        <mxCell id="C1Lx6RwTq1piZFSp2DUt-506" value="" style="shape=tableRow;horizontal=0;startSize=0;swimlaneHead=0;swimlaneBody=0;fillColor=none;collapsible=0;dropTarget=0;points=[[0,0.5],[1,0.5]];portConstraint=eastwest;top=0;left=0;right=0;bottom=0;rounded=1;shadow=0;sketch=0;" parent="C1Lx6RwTq1piZFSp2DUt-499" vertex="1">
          <mxGeometry y="90" width="245" height="30" as="geometry" />
        </mxCell>
        <mxCell id="C1Lx6RwTq1piZFSp2DUt-507" value="" style="shape=partialRectangle;connectable=0;fillColor=none;top=0;left=0;bottom=0;right=0;editable=1;overflow=hidden;rounded=1;shadow=0;sketch=0;" parent="C1Lx6RwTq1piZFSp2DUt-506" vertex="1">
          <mxGeometry width="45" height="30" as="geometry">
            <mxRectangle width="45" height="30" as="alternateBounds" />
          </mxGeometry>
        </mxCell>
        <mxCell id="C1Lx6RwTq1piZFSp2DUt-508" value="username char()" style="shape=partialRectangle;connectable=0;fillColor=none;top=0;left=0;bottom=0;right=0;align=left;spacingLeft=6;overflow=hidden;rounded=1;shadow=0;sketch=0;" parent="C1Lx6RwTq1piZFSp2DUt-506" vertex="1">
          <mxGeometry x="45" width="200" height="30" as="geometry">
            <mxRectangle width="200" height="30" as="alternateBounds" />
          </mxGeometry>
        </mxCell>
        <mxCell id="C1Lx6RwTq1piZFSp2DUt-509" value="" style="shape=tableRow;horizontal=0;startSize=0;swimlaneHead=0;swimlaneBody=0;fillColor=none;collapsible=0;dropTarget=0;points=[[0,0.5],[1,0.5]];portConstraint=eastwest;top=0;left=0;right=0;bottom=0;rounded=1;shadow=0;sketch=0;" parent="C1Lx6RwTq1piZFSp2DUt-499" vertex="1">
          <mxGeometry y="120" width="245" height="30" as="geometry" />
        </mxCell>
        <mxCell id="C1Lx6RwTq1piZFSp2DUt-510" value="" style="shape=partialRectangle;connectable=0;fillColor=none;top=0;left=0;bottom=0;right=0;editable=1;overflow=hidden;rounded=1;shadow=0;sketch=0;" parent="C1Lx6RwTq1piZFSp2DUt-509" vertex="1">
          <mxGeometry width="45" height="30" as="geometry">
            <mxRectangle width="45" height="30" as="alternateBounds" />
          </mxGeometry>
        </mxCell>
        <mxCell id="C1Lx6RwTq1piZFSp2DUt-511" value="link char()" style="shape=partialRectangle;connectable=0;fillColor=none;top=0;left=0;bottom=0;right=0;align=left;spacingLeft=6;overflow=hidden;rounded=1;shadow=0;sketch=0;" parent="C1Lx6RwTq1piZFSp2DUt-509" vertex="1">
          <mxGeometry x="45" width="200" height="30" as="geometry">
            <mxRectangle width="200" height="30" as="alternateBounds" />
          </mxGeometry>
        </mxCell>
        <mxCell id="C1Lx6RwTq1piZFSp2DUt-512" value="Codepen" style="shape=table;startSize=30;container=1;collapsible=1;childLayout=tableLayout;fixedRows=1;rowLines=0;fontStyle=1;align=center;resizeLast=1;rounded=1;shadow=0;sketch=0;fillColor=default;gradientColor=none;swimlaneFillColor=default;" parent="1" vertex="1">
          <mxGeometry x="790" y="1160" width="245" height="160" as="geometry" />
        </mxCell>
        <mxCell id="C1Lx6RwTq1piZFSp2DUt-513" value="" style="shape=tableRow;horizontal=0;startSize=0;swimlaneHead=0;swimlaneBody=0;fillColor=none;collapsible=0;dropTarget=0;points=[[0,0.5],[1,0.5]];portConstraint=eastwest;top=0;left=0;right=0;bottom=0;rounded=1;shadow=0;sketch=0;" parent="C1Lx6RwTq1piZFSp2DUt-512" vertex="1">
          <mxGeometry y="30" width="245" height="30" as="geometry" />
        </mxCell>
        <mxCell id="C1Lx6RwTq1piZFSp2DUt-514" value="PK" style="shape=partialRectangle;connectable=0;fillColor=none;top=0;left=0;bottom=0;right=0;fontStyle=1;overflow=hidden;rounded=1;shadow=0;sketch=0;" parent="C1Lx6RwTq1piZFSp2DUt-513" vertex="1">
          <mxGeometry width="45" height="30" as="geometry">
            <mxRectangle width="45" height="30" as="alternateBounds" />
          </mxGeometry>
        </mxCell>
        <mxCell id="C1Lx6RwTq1piZFSp2DUt-515" value="id uuid UNIQUE NOT NULL" style="shape=partialRectangle;connectable=0;fillColor=none;top=0;left=0;bottom=0;right=0;align=left;spacingLeft=6;fontStyle=1;overflow=hidden;rounded=1;shadow=0;sketch=0;" parent="C1Lx6RwTq1piZFSp2DUt-513" vertex="1">
          <mxGeometry x="45" width="200" height="30" as="geometry">
            <mxRectangle width="200" height="30" as="alternateBounds" />
          </mxGeometry>
        </mxCell>
        <mxCell id="C1Lx6RwTq1piZFSp2DUt-516" value="" style="shape=tableRow;horizontal=0;startSize=0;swimlaneHead=0;swimlaneBody=0;fillColor=none;collapsible=0;dropTarget=0;points=[[0,0.5],[1,0.5]];portConstraint=eastwest;top=0;left=0;right=0;bottom=1;rounded=1;shadow=0;sketch=0;" parent="C1Lx6RwTq1piZFSp2DUt-512" vertex="1">
          <mxGeometry y="60" width="245" height="30" as="geometry" />
        </mxCell>
        <mxCell id="C1Lx6RwTq1piZFSp2DUt-517" value="FK" style="shape=partialRectangle;connectable=0;fillColor=none;top=0;left=0;bottom=0;right=0;fontStyle=1;overflow=hidden;rounded=1;shadow=0;sketch=0;" parent="C1Lx6RwTq1piZFSp2DUt-516" vertex="1">
          <mxGeometry width="45" height="30" as="geometry">
            <mxRectangle width="45" height="30" as="alternateBounds" />
          </mxGeometry>
        </mxCell>
        <mxCell id="C1Lx6RwTq1piZFSp2DUt-518" value="contact_card uuid NOT NULL" style="shape=partialRectangle;connectable=0;fillColor=none;top=0;left=0;bottom=0;right=0;align=left;spacingLeft=6;fontStyle=1;overflow=hidden;rounded=1;shadow=0;sketch=0;" parent="C1Lx6RwTq1piZFSp2DUt-516" vertex="1">
          <mxGeometry x="45" width="200" height="30" as="geometry">
            <mxRectangle width="200" height="30" as="alternateBounds" />
          </mxGeometry>
        </mxCell>
        <mxCell id="C1Lx6RwTq1piZFSp2DUt-519" value="" style="shape=tableRow;horizontal=0;startSize=0;swimlaneHead=0;swimlaneBody=0;fillColor=none;collapsible=0;dropTarget=0;points=[[0,0.5],[1,0.5]];portConstraint=eastwest;top=0;left=0;right=0;bottom=0;rounded=1;shadow=0;sketch=0;" parent="C1Lx6RwTq1piZFSp2DUt-512" vertex="1">
          <mxGeometry y="90" width="245" height="30" as="geometry" />
        </mxCell>
        <mxCell id="C1Lx6RwTq1piZFSp2DUt-520" value="" style="shape=partialRectangle;connectable=0;fillColor=none;top=0;left=0;bottom=0;right=0;editable=1;overflow=hidden;rounded=1;shadow=0;sketch=0;" parent="C1Lx6RwTq1piZFSp2DUt-519" vertex="1">
          <mxGeometry width="45" height="30" as="geometry">
            <mxRectangle width="45" height="30" as="alternateBounds" />
          </mxGeometry>
        </mxCell>
        <mxCell id="C1Lx6RwTq1piZFSp2DUt-521" value="username char()" style="shape=partialRectangle;connectable=0;fillColor=none;top=0;left=0;bottom=0;right=0;align=left;spacingLeft=6;overflow=hidden;rounded=1;shadow=0;sketch=0;" parent="C1Lx6RwTq1piZFSp2DUt-519" vertex="1">
          <mxGeometry x="45" width="200" height="30" as="geometry">
            <mxRectangle width="200" height="30" as="alternateBounds" />
          </mxGeometry>
        </mxCell>
        <mxCell id="C1Lx6RwTq1piZFSp2DUt-522" value="" style="shape=tableRow;horizontal=0;startSize=0;swimlaneHead=0;swimlaneBody=0;fillColor=none;collapsible=0;dropTarget=0;points=[[0,0.5],[1,0.5]];portConstraint=eastwest;top=0;left=0;right=0;bottom=0;rounded=1;shadow=0;sketch=0;" parent="C1Lx6RwTq1piZFSp2DUt-512" vertex="1">
          <mxGeometry y="120" width="245" height="30" as="geometry" />
        </mxCell>
        <mxCell id="C1Lx6RwTq1piZFSp2DUt-523" value="" style="shape=partialRectangle;connectable=0;fillColor=none;top=0;left=0;bottom=0;right=0;editable=1;overflow=hidden;rounded=1;shadow=0;sketch=0;" parent="C1Lx6RwTq1piZFSp2DUt-522" vertex="1">
          <mxGeometry width="45" height="30" as="geometry">
            <mxRectangle width="45" height="30" as="alternateBounds" />
          </mxGeometry>
        </mxCell>
        <mxCell id="C1Lx6RwTq1piZFSp2DUt-524" value="link char()" style="shape=partialRectangle;connectable=0;fillColor=none;top=0;left=0;bottom=0;right=0;align=left;spacingLeft=6;overflow=hidden;rounded=1;shadow=0;sketch=0;" parent="C1Lx6RwTq1piZFSp2DUt-522" vertex="1">
          <mxGeometry x="45" width="200" height="30" as="geometry">
            <mxRectangle width="200" height="30" as="alternateBounds" />
          </mxGeometry>
        </mxCell>
        <mxCell id="C1Lx6RwTq1piZFSp2DUt-525" value="acct_managment app" style="text;html=1;strokeColor=none;fillColor=none;align=center;verticalAlign=middle;whiteSpace=wrap;rounded=0;shadow=0;sketch=0;" parent="1" vertex="1">
          <mxGeometry x="984" y="440" width="130" height="30" as="geometry" />
        </mxCell>
        <UserObject label="" lucidchartObjectId="0VwZFwrsJFYA" id="C1Lx6RwTq1piZFSp2DUt-526">
          <mxCell style="html=1;jettySize=18;whiteSpace=wrap;fontSize=13;strokeColor=#1A1A1A;strokeWidth=1.5;rounded=1;arcSize=12;edgeStyle=orthogonalEdgeStyle;startArrow=ERmany;startSize=10;endArrow=ERone;endSize=10;entryX=1;entryY=0.5;entryDx=0;entryDy=0;exitX=0;exitY=0.5;exitDx=0;exitDy=0;endFill=0;" parent="1" source="C1Lx6RwTq1piZFSp2DUt-464" target="C1Lx6RwTq1piZFSp2DUt-329" edge="1">
            <mxGeometry width="100" height="100" relative="1" as="geometry">
              <Array as="points">
                <mxPoint x="760" y="875" />
                <mxPoint x="760" y="780" />
                <mxPoint x="440" y="780" />
                <mxPoint x="440" y="545" />
              </Array>
              <mxPoint x="800" y="1061" as="sourcePoint" />
              <mxPoint x="409.99999999999955" y="555" as="targetPoint" />
            </mxGeometry>
          </mxCell>
        </UserObject>
        <mxCell id="C1Lx6RwTq1piZFSp2DUt-527" value="Bio" style="shape=table;startSize=30;container=1;collapsible=1;childLayout=tableLayout;fixedRows=1;rowLines=0;fontStyle=1;align=center;resizeLast=1;rounded=1;shadow=0;sketch=0;fillColor=default;gradientColor=none;swimlaneFillColor=default;" parent="1" vertex="1">
          <mxGeometry x="90" y="980" width="285" height="160" as="geometry" />
        </mxCell>
        <mxCell id="C1Lx6RwTq1piZFSp2DUt-528" value="" style="shape=tableRow;horizontal=0;startSize=0;swimlaneHead=0;swimlaneBody=0;fillColor=none;collapsible=0;dropTarget=0;points=[[0,0.5],[1,0.5]];portConstraint=eastwest;top=0;left=0;right=0;bottom=0;rounded=1;shadow=0;sketch=0;" parent="C1Lx6RwTq1piZFSp2DUt-527" vertex="1">
          <mxGeometry y="30" width="285" height="30" as="geometry" />
        </mxCell>
        <mxCell id="C1Lx6RwTq1piZFSp2DUt-529" value="PK" style="shape=partialRectangle;connectable=0;fillColor=none;top=0;left=0;bottom=0;right=0;fontStyle=1;overflow=hidden;rounded=1;shadow=0;sketch=0;" parent="C1Lx6RwTq1piZFSp2DUt-528" vertex="1">
          <mxGeometry width="45" height="30" as="geometry">
            <mxRectangle width="45" height="30" as="alternateBounds" />
          </mxGeometry>
        </mxCell>
        <mxCell id="C1Lx6RwTq1piZFSp2DUt-530" value="id uuid UNIQUE NOT NULL" style="shape=partialRectangle;connectable=0;fillColor=none;top=0;left=0;bottom=0;right=0;align=left;spacingLeft=6;fontStyle=1;overflow=hidden;rounded=1;shadow=0;sketch=0;" parent="C1Lx6RwTq1piZFSp2DUt-528" vertex="1">
          <mxGeometry x="45" width="240" height="30" as="geometry">
            <mxRectangle width="240" height="30" as="alternateBounds" />
          </mxGeometry>
        </mxCell>
        <mxCell id="C1Lx6RwTq1piZFSp2DUt-531" value="" style="shape=tableRow;horizontal=0;startSize=0;swimlaneHead=0;swimlaneBody=0;fillColor=none;collapsible=0;dropTarget=0;points=[[0,0.5],[1,0.5]];portConstraint=eastwest;top=0;left=0;right=0;bottom=1;rounded=1;shadow=0;sketch=0;" parent="C1Lx6RwTq1piZFSp2DUt-527" vertex="1">
          <mxGeometry y="60" width="285" height="30" as="geometry" />
        </mxCell>
        <mxCell id="C1Lx6RwTq1piZFSp2DUt-532" value="FK" style="shape=partialRectangle;connectable=0;fillColor=none;top=0;left=0;bottom=0;right=0;fontStyle=1;overflow=hidden;rounded=1;shadow=0;sketch=0;" parent="C1Lx6RwTq1piZFSp2DUt-531" vertex="1">
          <mxGeometry width="45" height="30" as="geometry">
            <mxRectangle width="45" height="30" as="alternateBounds" />
          </mxGeometry>
        </mxCell>
        <mxCell id="C1Lx6RwTq1piZFSp2DUt-533" value="user int NOT NULL" style="shape=partialRectangle;connectable=0;fillColor=none;top=0;left=0;bottom=0;right=0;align=left;spacingLeft=6;fontStyle=1;overflow=hidden;rounded=1;shadow=0;sketch=0;" parent="C1Lx6RwTq1piZFSp2DUt-531" vertex="1">
          <mxGeometry x="45" width="240" height="30" as="geometry">
            <mxRectangle width="240" height="30" as="alternateBounds" />
          </mxGeometry>
        </mxCell>
        <mxCell id="C1Lx6RwTq1piZFSp2DUt-534" value="" style="shape=tableRow;horizontal=0;startSize=0;swimlaneHead=0;swimlaneBody=0;fillColor=none;collapsible=0;dropTarget=0;points=[[0,0.5],[1,0.5]];portConstraint=eastwest;top=0;left=0;right=0;bottom=0;rounded=1;shadow=0;sketch=0;" parent="C1Lx6RwTq1piZFSp2DUt-527" vertex="1">
          <mxGeometry y="90" width="285" height="30" as="geometry" />
        </mxCell>
        <mxCell id="C1Lx6RwTq1piZFSp2DUt-535" value="" style="shape=partialRectangle;connectable=0;fillColor=none;top=0;left=0;bottom=0;right=0;editable=1;overflow=hidden;rounded=1;shadow=0;sketch=0;" parent="C1Lx6RwTq1piZFSp2DUt-534" vertex="1">
          <mxGeometry width="45" height="30" as="geometry">
            <mxRectangle width="45" height="30" as="alternateBounds" />
          </mxGeometry>
        </mxCell>
        <mxCell id="C1Lx6RwTq1piZFSp2DUt-536" value="profession char()" style="shape=partialRectangle;connectable=0;fillColor=none;top=0;left=0;bottom=0;right=0;align=left;spacingLeft=6;overflow=hidden;rounded=1;shadow=0;sketch=0;" parent="C1Lx6RwTq1piZFSp2DUt-534" vertex="1">
          <mxGeometry x="45" width="240" height="30" as="geometry">
            <mxRectangle width="240" height="30" as="alternateBounds" />
          </mxGeometry>
        </mxCell>
        <mxCell id="C1Lx6RwTq1piZFSp2DUt-537" value="" style="shape=tableRow;horizontal=0;startSize=0;swimlaneHead=0;swimlaneBody=0;fillColor=none;collapsible=0;dropTarget=0;points=[[0,0.5],[1,0.5]];portConstraint=eastwest;top=0;left=0;right=0;bottom=0;rounded=1;shadow=0;sketch=0;" parent="C1Lx6RwTq1piZFSp2DUt-527" vertex="1">
          <mxGeometry y="120" width="285" height="30" as="geometry" />
        </mxCell>
        <mxCell id="C1Lx6RwTq1piZFSp2DUt-538" value="" style="shape=partialRectangle;connectable=0;fillColor=none;top=0;left=0;bottom=0;right=0;editable=1;overflow=hidden;rounded=1;shadow=0;sketch=0;" parent="C1Lx6RwTq1piZFSp2DUt-537" vertex="1">
          <mxGeometry width="45" height="30" as="geometry">
            <mxRectangle width="45" height="30" as="alternateBounds" />
          </mxGeometry>
        </mxCell>
        <mxCell id="C1Lx6RwTq1piZFSp2DUt-539" value="copy char()" style="shape=partialRectangle;connectable=0;fillColor=none;top=0;left=0;bottom=0;right=0;align=left;spacingLeft=6;overflow=hidden;rounded=1;shadow=0;sketch=0;" parent="C1Lx6RwTq1piZFSp2DUt-537" vertex="1">
          <mxGeometry x="45" width="240" height="30" as="geometry">
            <mxRectangle width="240" height="30" as="alternateBounds" />
          </mxGeometry>
        </mxCell>
        <mxCell id="C1Lx6RwTq1piZFSp2DUt-540" value="Resume" style="shape=table;startSize=30;container=1;collapsible=1;childLayout=tableLayout;fixedRows=1;rowLines=0;fontStyle=1;align=center;resizeLast=1;rounded=1;shadow=0;sketch=0;fillColor=default;gradientColor=none;swimlaneFillColor=default;" parent="1" vertex="1">
          <mxGeometry x="180" y="1540" width="230" height="130" as="geometry" />
        </mxCell>
        <mxCell id="C1Lx6RwTq1piZFSp2DUt-541" value="" style="shape=tableRow;horizontal=0;startSize=0;swimlaneHead=0;swimlaneBody=0;fillColor=none;collapsible=0;dropTarget=0;points=[[0,0.5],[1,0.5]];portConstraint=eastwest;top=0;left=0;right=0;bottom=0;rounded=1;shadow=0;sketch=0;" parent="C1Lx6RwTq1piZFSp2DUt-540" vertex="1">
          <mxGeometry y="30" width="230" height="30" as="geometry" />
        </mxCell>
        <mxCell id="C1Lx6RwTq1piZFSp2DUt-542" value="PK" style="shape=partialRectangle;connectable=0;fillColor=none;top=0;left=0;bottom=0;right=0;fontStyle=1;overflow=hidden;rounded=1;shadow=0;sketch=0;" parent="C1Lx6RwTq1piZFSp2DUt-541" vertex="1">
          <mxGeometry width="45" height="30" as="geometry">
            <mxRectangle width="45" height="30" as="alternateBounds" />
          </mxGeometry>
        </mxCell>
        <mxCell id="C1Lx6RwTq1piZFSp2DUt-543" value="id uuid UNIQUE NOT NULL" style="shape=partialRectangle;connectable=0;fillColor=none;top=0;left=0;bottom=0;right=0;align=left;spacingLeft=6;fontStyle=1;overflow=hidden;rounded=1;shadow=0;sketch=0;" parent="C1Lx6RwTq1piZFSp2DUt-541" vertex="1">
          <mxGeometry x="45" width="185" height="30" as="geometry">
            <mxRectangle width="185" height="30" as="alternateBounds" />
          </mxGeometry>
        </mxCell>
        <mxCell id="C1Lx6RwTq1piZFSp2DUt-544" value="" style="shape=tableRow;horizontal=0;startSize=0;swimlaneHead=0;swimlaneBody=0;fillColor=none;collapsible=0;dropTarget=0;points=[[0,0.5],[1,0.5]];portConstraint=eastwest;top=0;left=0;right=0;bottom=1;rounded=1;shadow=0;sketch=0;" parent="C1Lx6RwTq1piZFSp2DUt-540" vertex="1">
          <mxGeometry y="60" width="230" height="30" as="geometry" />
        </mxCell>
        <mxCell id="C1Lx6RwTq1piZFSp2DUt-545" value="FK" style="shape=partialRectangle;connectable=0;fillColor=none;top=0;left=0;bottom=0;right=0;fontStyle=1;overflow=hidden;rounded=1;shadow=0;sketch=0;" parent="C1Lx6RwTq1piZFSp2DUt-544" vertex="1">
          <mxGeometry width="45" height="30" as="geometry">
            <mxRectangle width="45" height="30" as="alternateBounds" />
          </mxGeometry>
        </mxCell>
        <mxCell id="C1Lx6RwTq1piZFSp2DUt-546" value="user int NOT NULL" style="shape=partialRectangle;connectable=0;fillColor=none;top=0;left=0;bottom=0;right=0;align=left;spacingLeft=6;fontStyle=1;overflow=hidden;rounded=1;shadow=0;sketch=0;" parent="C1Lx6RwTq1piZFSp2DUt-544" vertex="1">
          <mxGeometry x="45" width="185" height="30" as="geometry">
            <mxRectangle width="185" height="30" as="alternateBounds" />
          </mxGeometry>
        </mxCell>
        <mxCell id="C1Lx6RwTq1piZFSp2DUt-547" value="" style="shape=tableRow;horizontal=0;startSize=0;swimlaneHead=0;swimlaneBody=0;fillColor=none;collapsible=0;dropTarget=0;points=[[0,0.5],[1,0.5]];portConstraint=eastwest;top=0;left=0;right=0;bottom=0;rounded=1;shadow=0;sketch=0;" parent="C1Lx6RwTq1piZFSp2DUt-540" vertex="1">
          <mxGeometry y="90" width="230" height="30" as="geometry" />
        </mxCell>
        <mxCell id="C1Lx6RwTq1piZFSp2DUt-548" value="" style="shape=partialRectangle;connectable=0;fillColor=none;top=0;left=0;bottom=0;right=0;editable=1;overflow=hidden;rounded=1;shadow=0;sketch=0;" parent="C1Lx6RwTq1piZFSp2DUt-547" vertex="1">
          <mxGeometry width="45" height="30" as="geometry">
            <mxRectangle width="45" height="30" as="alternateBounds" />
          </mxGeometry>
        </mxCell>
        <mxCell id="C1Lx6RwTq1piZFSp2DUt-549" value="summary char(250)" style="shape=partialRectangle;connectable=0;fillColor=none;top=0;left=0;bottom=0;right=0;align=left;spacingLeft=6;overflow=hidden;rounded=1;shadow=0;sketch=0;" parent="C1Lx6RwTq1piZFSp2DUt-547" vertex="1">
          <mxGeometry x="45" width="185" height="30" as="geometry">
            <mxRectangle width="185" height="30" as="alternateBounds" />
          </mxGeometry>
        </mxCell>
        <mxCell id="C1Lx6RwTq1piZFSp2DUt-553" value="Copy = MarkDown" style="shape=note;size=20;whiteSpace=wrap;html=1;rounded=1;shadow=0;sketch=0;fillColor=default;gradientColor=none;" parent="1" vertex="1">
          <mxGeometry x="1260" y="640" width="100" height="100" as="geometry" />
        </mxCell>
        <mxCell id="C1Lx6RwTq1piZFSp2DUt-554" value="portfolio app" style="text;html=1;strokeColor=none;fillColor=none;align=center;verticalAlign=middle;whiteSpace=wrap;rounded=0;shadow=0;sketch=0;" parent="1" vertex="1">
          <mxGeometry x="1350" y="1528" width="84" height="30" as="geometry" />
        </mxCell>
        <mxCell id="C1Lx6RwTq1piZFSp2DUt-555" value="CurriculumVitae" style="shape=table;startSize=30;container=1;collapsible=1;childLayout=tableLayout;fixedRows=1;rowLines=0;fontStyle=1;align=center;resizeLast=1;rounded=1;shadow=0;sketch=0;fillColor=default;gradientColor=none;swimlaneFillColor=default;" parent="1" vertex="1">
          <mxGeometry x="180" y="1709" width="230" height="130" as="geometry" />
        </mxCell>
        <mxCell id="C1Lx6RwTq1piZFSp2DUt-556" value="" style="shape=tableRow;horizontal=0;startSize=0;swimlaneHead=0;swimlaneBody=0;fillColor=none;collapsible=0;dropTarget=0;points=[[0,0.5],[1,0.5]];portConstraint=eastwest;top=0;left=0;right=0;bottom=0;rounded=1;shadow=0;sketch=0;" parent="C1Lx6RwTq1piZFSp2DUt-555" vertex="1">
          <mxGeometry y="30" width="230" height="30" as="geometry" />
        </mxCell>
        <mxCell id="C1Lx6RwTq1piZFSp2DUt-557" value="PK" style="shape=partialRectangle;connectable=0;fillColor=none;top=0;left=0;bottom=0;right=0;fontStyle=1;overflow=hidden;rounded=1;shadow=0;sketch=0;" parent="C1Lx6RwTq1piZFSp2DUt-556" vertex="1">
          <mxGeometry width="45" height="30" as="geometry">
            <mxRectangle width="45" height="30" as="alternateBounds" />
          </mxGeometry>
        </mxCell>
        <mxCell id="C1Lx6RwTq1piZFSp2DUt-558" value="id uuid UNIQUE NOT NULL" style="shape=partialRectangle;connectable=0;fillColor=none;top=0;left=0;bottom=0;right=0;align=left;spacingLeft=6;fontStyle=1;overflow=hidden;rounded=1;shadow=0;sketch=0;" parent="C1Lx6RwTq1piZFSp2DUt-556" vertex="1">
          <mxGeometry x="45" width="185" height="30" as="geometry">
            <mxRectangle width="185" height="30" as="alternateBounds" />
          </mxGeometry>
        </mxCell>
        <mxCell id="C1Lx6RwTq1piZFSp2DUt-559" value="" style="shape=tableRow;horizontal=0;startSize=0;swimlaneHead=0;swimlaneBody=0;fillColor=none;collapsible=0;dropTarget=0;points=[[0,0.5],[1,0.5]];portConstraint=eastwest;top=0;left=0;right=0;bottom=1;rounded=1;shadow=0;sketch=0;" parent="C1Lx6RwTq1piZFSp2DUt-555" vertex="1">
          <mxGeometry y="60" width="230" height="30" as="geometry" />
        </mxCell>
        <mxCell id="C1Lx6RwTq1piZFSp2DUt-560" value="FK" style="shape=partialRectangle;connectable=0;fillColor=none;top=0;left=0;bottom=0;right=0;fontStyle=1;overflow=hidden;rounded=1;shadow=0;sketch=0;" parent="C1Lx6RwTq1piZFSp2DUt-559" vertex="1">
          <mxGeometry width="45" height="30" as="geometry">
            <mxRectangle width="45" height="30" as="alternateBounds" />
          </mxGeometry>
        </mxCell>
        <mxCell id="C1Lx6RwTq1piZFSp2DUt-561" value="user int NOT NULL" style="shape=partialRectangle;connectable=0;fillColor=none;top=0;left=0;bottom=0;right=0;align=left;spacingLeft=6;fontStyle=1;overflow=hidden;rounded=1;shadow=0;sketch=0;" parent="C1Lx6RwTq1piZFSp2DUt-559" vertex="1">
          <mxGeometry x="45" width="185" height="30" as="geometry">
            <mxRectangle width="185" height="30" as="alternateBounds" />
          </mxGeometry>
        </mxCell>
        <mxCell id="C1Lx6RwTq1piZFSp2DUt-562" value="" style="shape=tableRow;horizontal=0;startSize=0;swimlaneHead=0;swimlaneBody=0;fillColor=none;collapsible=0;dropTarget=0;points=[[0,0.5],[1,0.5]];portConstraint=eastwest;top=0;left=0;right=0;bottom=0;rounded=1;shadow=0;sketch=0;" parent="C1Lx6RwTq1piZFSp2DUt-555" vertex="1">
          <mxGeometry y="90" width="230" height="30" as="geometry" />
        </mxCell>
        <mxCell id="C1Lx6RwTq1piZFSp2DUt-563" value="" style="shape=partialRectangle;connectable=0;fillColor=none;top=0;left=0;bottom=0;right=0;editable=1;overflow=hidden;rounded=1;shadow=0;sketch=0;" parent="C1Lx6RwTq1piZFSp2DUt-562" vertex="1">
          <mxGeometry width="45" height="30" as="geometry">
            <mxRectangle width="45" height="30" as="alternateBounds" />
          </mxGeometry>
        </mxCell>
        <mxCell id="C1Lx6RwTq1piZFSp2DUt-564" value="summary char(250)" style="shape=partialRectangle;connectable=0;fillColor=none;top=0;left=0;bottom=0;right=0;align=left;spacingLeft=6;overflow=hidden;rounded=1;shadow=0;sketch=0;" parent="C1Lx6RwTq1piZFSp2DUt-562" vertex="1">
          <mxGeometry x="45" width="185" height="30" as="geometry">
            <mxRectangle width="185" height="30" as="alternateBounds" />
          </mxGeometry>
        </mxCell>
        <mxCell id="C1Lx6RwTq1piZFSp2DUt-568" value="Project" style="shape=table;startSize=30;container=1;collapsible=1;childLayout=tableLayout;fixedRows=1;rowLines=0;fontStyle=1;align=center;resizeLast=1;rounded=1;shadow=0;sketch=0;fillColor=default;gradientColor=none;swimlaneFillColor=default;" parent="1" vertex="1">
          <mxGeometry x="350" y="1880" width="220" height="190" as="geometry" />
        </mxCell>
        <mxCell id="C1Lx6RwTq1piZFSp2DUt-569" value="" style="shape=tableRow;horizontal=0;startSize=0;swimlaneHead=0;swimlaneBody=0;fillColor=none;collapsible=0;dropTarget=0;points=[[0,0.5],[1,0.5]];portConstraint=eastwest;top=0;left=0;right=0;bottom=0;rounded=1;shadow=0;sketch=0;" parent="C1Lx6RwTq1piZFSp2DUt-568" vertex="1">
          <mxGeometry y="30" width="220" height="30" as="geometry" />
        </mxCell>
        <mxCell id="C1Lx6RwTq1piZFSp2DUt-570" value="PK" style="shape=partialRectangle;connectable=0;fillColor=none;top=0;left=0;bottom=0;right=0;fontStyle=1;overflow=hidden;rounded=1;shadow=0;sketch=0;" parent="C1Lx6RwTq1piZFSp2DUt-569" vertex="1">
          <mxGeometry width="45" height="30" as="geometry">
            <mxRectangle width="45" height="30" as="alternateBounds" />
          </mxGeometry>
        </mxCell>
        <mxCell id="C1Lx6RwTq1piZFSp2DUt-571" value="id uuid UNIQUE NOT NULL" style="shape=partialRectangle;connectable=0;fillColor=none;top=0;left=0;bottom=0;right=0;align=left;spacingLeft=6;fontStyle=1;overflow=hidden;rounded=1;shadow=0;sketch=0;" parent="C1Lx6RwTq1piZFSp2DUt-569" vertex="1">
          <mxGeometry x="45" width="175" height="30" as="geometry">
            <mxRectangle width="175" height="30" as="alternateBounds" />
          </mxGeometry>
        </mxCell>
        <mxCell id="C1Lx6RwTq1piZFSp2DUt-581" style="shape=tableRow;horizontal=0;startSize=0;swimlaneHead=0;swimlaneBody=0;fillColor=none;collapsible=0;dropTarget=0;points=[[0,0.5],[1,0.5]];portConstraint=eastwest;top=0;left=0;right=0;bottom=0;rounded=1;shadow=0;sketch=0;" parent="C1Lx6RwTq1piZFSp2DUt-568" vertex="1">
          <mxGeometry y="60" width="220" height="30" as="geometry" />
        </mxCell>
        <mxCell id="C1Lx6RwTq1piZFSp2DUt-582" value="FK" style="shape=partialRectangle;connectable=0;fillColor=none;top=0;left=0;bottom=0;right=0;fontStyle=1;overflow=hidden;rounded=1;shadow=0;sketch=0;" parent="C1Lx6RwTq1piZFSp2DUt-581" vertex="1">
          <mxGeometry width="45" height="30" as="geometry">
            <mxRectangle width="45" height="30" as="alternateBounds" />
          </mxGeometry>
        </mxCell>
        <mxCell id="C1Lx6RwTq1piZFSp2DUt-583" value="user int NOT NULL" style="shape=partialRectangle;connectable=0;fillColor=none;top=0;left=0;bottom=0;right=0;align=left;spacingLeft=6;fontStyle=1;overflow=hidden;rounded=1;shadow=0;sketch=0;" parent="C1Lx6RwTq1piZFSp2DUt-581" vertex="1">
          <mxGeometry x="45" width="175" height="30" as="geometry">
            <mxRectangle width="175" height="30" as="alternateBounds" />
          </mxGeometry>
        </mxCell>
        <mxCell id="C1Lx6RwTq1piZFSp2DUt-572" value="" style="shape=tableRow;horizontal=0;startSize=0;swimlaneHead=0;swimlaneBody=0;fillColor=none;collapsible=0;dropTarget=0;points=[[0,0.5],[1,0.5]];portConstraint=eastwest;top=0;left=0;right=0;bottom=1;rounded=1;shadow=0;sketch=0;" parent="C1Lx6RwTq1piZFSp2DUt-568" vertex="1">
          <mxGeometry y="90" width="220" height="30" as="geometry" />
        </mxCell>
        <mxCell id="C1Lx6RwTq1piZFSp2DUt-573" value="FK" style="shape=partialRectangle;connectable=0;fillColor=none;top=0;left=0;bottom=0;right=0;fontStyle=1;overflow=hidden;rounded=1;shadow=0;sketch=0;" parent="C1Lx6RwTq1piZFSp2DUt-572" vertex="1">
          <mxGeometry width="45" height="30" as="geometry">
            <mxRectangle width="45" height="30" as="alternateBounds" />
          </mxGeometry>
        </mxCell>
        <mxCell id="C1Lx6RwTq1piZFSp2DUt-574" value="cv uuid" style="shape=partialRectangle;connectable=0;fillColor=none;top=0;left=0;bottom=0;right=0;align=left;spacingLeft=6;fontStyle=1;overflow=hidden;rounded=1;shadow=0;sketch=0;" parent="C1Lx6RwTq1piZFSp2DUt-572" vertex="1">
          <mxGeometry x="45" width="175" height="30" as="geometry">
            <mxRectangle width="175" height="30" as="alternateBounds" />
          </mxGeometry>
        </mxCell>
        <mxCell id="C1Lx6RwTq1piZFSp2DUt-575" value="" style="shape=tableRow;horizontal=0;startSize=0;swimlaneHead=0;swimlaneBody=0;fillColor=none;collapsible=0;dropTarget=0;points=[[0,0.5],[1,0.5]];portConstraint=eastwest;top=0;left=0;right=0;bottom=0;rounded=1;shadow=0;sketch=0;" parent="C1Lx6RwTq1piZFSp2DUt-568" vertex="1">
          <mxGeometry y="120" width="220" height="30" as="geometry" />
        </mxCell>
        <mxCell id="C1Lx6RwTq1piZFSp2DUt-576" value="" style="shape=partialRectangle;connectable=0;fillColor=none;top=0;left=0;bottom=0;right=0;editable=1;overflow=hidden;rounded=1;shadow=0;sketch=0;" parent="C1Lx6RwTq1piZFSp2DUt-575" vertex="1">
          <mxGeometry width="45" height="30" as="geometry">
            <mxRectangle width="45" height="30" as="alternateBounds" />
          </mxGeometry>
        </mxCell>
        <mxCell id="C1Lx6RwTq1piZFSp2DUt-577" value="copy char()" style="shape=partialRectangle;connectable=0;fillColor=none;top=0;left=0;bottom=0;right=0;align=left;spacingLeft=6;overflow=hidden;rounded=1;shadow=0;sketch=0;" parent="C1Lx6RwTq1piZFSp2DUt-575" vertex="1">
          <mxGeometry x="45" width="175" height="30" as="geometry">
            <mxRectangle width="175" height="30" as="alternateBounds" />
          </mxGeometry>
        </mxCell>
        <mxCell id="C1Lx6RwTq1piZFSp2DUt-578" value="" style="shape=tableRow;horizontal=0;startSize=0;swimlaneHead=0;swimlaneBody=0;fillColor=none;collapsible=0;dropTarget=0;points=[[0,0.5],[1,0.5]];portConstraint=eastwest;top=0;left=0;right=0;bottom=0;rounded=1;shadow=0;sketch=0;" parent="C1Lx6RwTq1piZFSp2DUt-568" vertex="1">
          <mxGeometry y="150" width="220" height="30" as="geometry" />
        </mxCell>
        <mxCell id="C1Lx6RwTq1piZFSp2DUt-579" value="" style="shape=partialRectangle;connectable=0;fillColor=none;top=0;left=0;bottom=0;right=0;editable=1;overflow=hidden;rounded=1;shadow=0;sketch=0;" parent="C1Lx6RwTq1piZFSp2DUt-578" vertex="1">
          <mxGeometry width="45" height="30" as="geometry">
            <mxRectangle width="45" height="30" as="alternateBounds" />
          </mxGeometry>
        </mxCell>
        <mxCell id="C1Lx6RwTq1piZFSp2DUt-580" value="github_link char()" style="shape=partialRectangle;connectable=0;fillColor=none;top=0;left=0;bottom=0;right=0;align=left;spacingLeft=6;overflow=hidden;rounded=1;shadow=0;sketch=0;" parent="C1Lx6RwTq1piZFSp2DUt-578" vertex="1">
          <mxGeometry x="45" width="175" height="30" as="geometry">
            <mxRectangle width="175" height="30" as="alternateBounds" />
          </mxGeometry>
        </mxCell>
        <mxCell id="C1Lx6RwTq1piZFSp2DUt-584" value="Skill" style="shape=table;startSize=30;container=1;collapsible=1;childLayout=tableLayout;fixedRows=1;rowLines=0;fontStyle=1;align=center;resizeLast=1;rounded=1;shadow=0;sketch=0;fillColor=default;gradientColor=none;swimlaneFillColor=default;" parent="1" vertex="1">
          <mxGeometry x="750" y="1528" width="220" height="220" as="geometry" />
        </mxCell>
        <mxCell id="C1Lx6RwTq1piZFSp2DUt-585" value="" style="shape=tableRow;horizontal=0;startSize=0;swimlaneHead=0;swimlaneBody=0;fillColor=none;collapsible=0;dropTarget=0;points=[[0,0.5],[1,0.5]];portConstraint=eastwest;top=0;left=0;right=0;bottom=0;rounded=1;shadow=0;sketch=0;" parent="C1Lx6RwTq1piZFSp2DUt-584" vertex="1">
          <mxGeometry y="30" width="220" height="30" as="geometry" />
        </mxCell>
        <mxCell id="C1Lx6RwTq1piZFSp2DUt-586" value="PK" style="shape=partialRectangle;connectable=0;fillColor=none;top=0;left=0;bottom=0;right=0;fontStyle=1;overflow=hidden;rounded=1;shadow=0;sketch=0;" parent="C1Lx6RwTq1piZFSp2DUt-585" vertex="1">
          <mxGeometry width="45" height="30" as="geometry">
            <mxRectangle width="45" height="30" as="alternateBounds" />
          </mxGeometry>
        </mxCell>
        <mxCell id="C1Lx6RwTq1piZFSp2DUt-587" value="id uuid UNIQUE NOT NULL" style="shape=partialRectangle;connectable=0;fillColor=none;top=0;left=0;bottom=0;right=0;align=left;spacingLeft=6;fontStyle=1;overflow=hidden;rounded=1;shadow=0;sketch=0;" parent="C1Lx6RwTq1piZFSp2DUt-585" vertex="1">
          <mxGeometry x="45" width="175" height="30" as="geometry">
            <mxRectangle width="175" height="30" as="alternateBounds" />
          </mxGeometry>
        </mxCell>
        <mxCell id="C1Lx6RwTq1piZFSp2DUt-604" style="shape=tableRow;horizontal=0;startSize=0;swimlaneHead=0;swimlaneBody=0;fillColor=none;collapsible=0;dropTarget=0;points=[[0,0.5],[1,0.5]];portConstraint=eastwest;top=0;left=0;right=0;bottom=0;rounded=1;shadow=0;sketch=0;" parent="C1Lx6RwTq1piZFSp2DUt-584" vertex="1">
          <mxGeometry y="60" width="220" height="30" as="geometry" />
        </mxCell>
        <mxCell id="C1Lx6RwTq1piZFSp2DUt-605" value="FK" style="shape=partialRectangle;connectable=0;fillColor=none;top=0;left=0;bottom=0;right=0;fontStyle=1;overflow=hidden;rounded=1;shadow=0;sketch=0;" parent="C1Lx6RwTq1piZFSp2DUt-604" vertex="1">
          <mxGeometry width="45" height="30" as="geometry">
            <mxRectangle width="45" height="30" as="alternateBounds" />
          </mxGeometry>
        </mxCell>
        <mxCell id="C1Lx6RwTq1piZFSp2DUt-606" value="resume uuid" style="shape=partialRectangle;connectable=0;fillColor=none;top=0;left=0;bottom=0;right=0;align=left;spacingLeft=6;fontStyle=1;overflow=hidden;rounded=1;shadow=0;sketch=0;" parent="C1Lx6RwTq1piZFSp2DUt-604" vertex="1">
          <mxGeometry x="45" width="175" height="30" as="geometry">
            <mxRectangle width="175" height="30" as="alternateBounds" />
          </mxGeometry>
        </mxCell>
        <mxCell id="C1Lx6RwTq1piZFSp2DUt-601" style="shape=tableRow;horizontal=0;startSize=0;swimlaneHead=0;swimlaneBody=0;fillColor=none;collapsible=0;dropTarget=0;points=[[0,0.5],[1,0.5]];portConstraint=eastwest;top=0;left=0;right=0;bottom=0;rounded=1;shadow=0;sketch=0;" parent="C1Lx6RwTq1piZFSp2DUt-584" vertex="1">
          <mxGeometry y="90" width="220" height="30" as="geometry" />
        </mxCell>
        <mxCell id="C1Lx6RwTq1piZFSp2DUt-602" value="FK" style="shape=partialRectangle;connectable=0;fillColor=none;top=0;left=0;bottom=0;right=0;fontStyle=1;overflow=hidden;rounded=1;shadow=0;sketch=0;" parent="C1Lx6RwTq1piZFSp2DUt-601" vertex="1">
          <mxGeometry width="45" height="30" as="geometry">
            <mxRectangle width="45" height="30" as="alternateBounds" />
          </mxGeometry>
        </mxCell>
        <mxCell id="C1Lx6RwTq1piZFSp2DUt-603" value="cv uuid" style="shape=partialRectangle;connectable=0;fillColor=none;top=0;left=0;bottom=0;right=0;align=left;spacingLeft=6;fontStyle=1;overflow=hidden;rounded=1;shadow=0;sketch=0;" parent="C1Lx6RwTq1piZFSp2DUt-601" vertex="1">
          <mxGeometry x="45" width="175" height="30" as="geometry">
            <mxRectangle width="175" height="30" as="alternateBounds" />
          </mxGeometry>
        </mxCell>
        <mxCell id="C1Lx6RwTq1piZFSp2DUt-588" value="" style="shape=tableRow;horizontal=0;startSize=0;swimlaneHead=0;swimlaneBody=0;fillColor=none;collapsible=0;dropTarget=0;points=[[0,0.5],[1,0.5]];portConstraint=eastwest;top=0;left=0;right=0;bottom=1;rounded=1;shadow=0;sketch=0;" parent="C1Lx6RwTq1piZFSp2DUt-584" vertex="1">
          <mxGeometry y="120" width="220" height="30" as="geometry" />
        </mxCell>
        <mxCell id="C1Lx6RwTq1piZFSp2DUt-589" value="FK" style="shape=partialRectangle;connectable=0;fillColor=none;top=0;left=0;bottom=0;right=0;fontStyle=1;overflow=hidden;rounded=1;shadow=0;sketch=0;" parent="C1Lx6RwTq1piZFSp2DUt-588" vertex="1">
          <mxGeometry width="45" height="30" as="geometry">
            <mxRectangle width="45" height="30" as="alternateBounds" />
          </mxGeometry>
        </mxCell>
        <mxCell id="C1Lx6RwTq1piZFSp2DUt-590" value="project uuid" style="shape=partialRectangle;connectable=0;fillColor=none;top=0;left=0;bottom=0;right=0;align=left;spacingLeft=6;fontStyle=1;overflow=hidden;rounded=1;shadow=0;sketch=0;" parent="C1Lx6RwTq1piZFSp2DUt-588" vertex="1">
          <mxGeometry x="45" width="175" height="30" as="geometry">
            <mxRectangle width="175" height="30" as="alternateBounds" />
          </mxGeometry>
        </mxCell>
        <mxCell id="C1Lx6RwTq1piZFSp2DUt-591" value="" style="shape=tableRow;horizontal=0;startSize=0;swimlaneHead=0;swimlaneBody=0;fillColor=none;collapsible=0;dropTarget=0;points=[[0,0.5],[1,0.5]];portConstraint=eastwest;top=0;left=0;right=0;bottom=0;rounded=1;shadow=0;sketch=0;" parent="C1Lx6RwTq1piZFSp2DUt-584" vertex="1">
          <mxGeometry y="150" width="220" height="30" as="geometry" />
        </mxCell>
        <mxCell id="C1Lx6RwTq1piZFSp2DUt-592" value="" style="shape=partialRectangle;connectable=0;fillColor=none;top=0;left=0;bottom=0;right=0;editable=1;overflow=hidden;rounded=1;shadow=0;sketch=0;" parent="C1Lx6RwTq1piZFSp2DUt-591" vertex="1">
          <mxGeometry width="45" height="30" as="geometry">
            <mxRectangle width="45" height="30" as="alternateBounds" />
          </mxGeometry>
        </mxCell>
        <mxCell id="C1Lx6RwTq1piZFSp2DUt-593" value="title char()" style="shape=partialRectangle;connectable=0;fillColor=none;top=0;left=0;bottom=0;right=0;align=left;spacingLeft=6;overflow=hidden;rounded=1;shadow=0;sketch=0;" parent="C1Lx6RwTq1piZFSp2DUt-591" vertex="1">
          <mxGeometry x="45" width="175" height="30" as="geometry">
            <mxRectangle width="175" height="30" as="alternateBounds" />
          </mxGeometry>
        </mxCell>
        <mxCell id="C1Lx6RwTq1piZFSp2DUt-594" value="" style="shape=tableRow;horizontal=0;startSize=0;swimlaneHead=0;swimlaneBody=0;fillColor=none;collapsible=0;dropTarget=0;points=[[0,0.5],[1,0.5]];portConstraint=eastwest;top=0;left=0;right=0;bottom=0;rounded=1;shadow=0;sketch=0;" parent="C1Lx6RwTq1piZFSp2DUt-584" vertex="1">
          <mxGeometry y="180" width="220" height="30" as="geometry" />
        </mxCell>
        <mxCell id="C1Lx6RwTq1piZFSp2DUt-595" value="" style="shape=partialRectangle;connectable=0;fillColor=none;top=0;left=0;bottom=0;right=0;editable=1;overflow=hidden;rounded=1;shadow=0;sketch=0;" parent="C1Lx6RwTq1piZFSp2DUt-594" vertex="1">
          <mxGeometry width="45" height="30" as="geometry">
            <mxRectangle width="45" height="30" as="alternateBounds" />
          </mxGeometry>
        </mxCell>
        <mxCell id="C1Lx6RwTq1piZFSp2DUt-596" value="copy char()" style="shape=partialRectangle;connectable=0;fillColor=none;top=0;left=0;bottom=0;right=0;align=left;spacingLeft=6;overflow=hidden;rounded=1;shadow=0;sketch=0;" parent="C1Lx6RwTq1piZFSp2DUt-594" vertex="1">
          <mxGeometry x="45" width="175" height="30" as="geometry">
            <mxRectangle width="175" height="30" as="alternateBounds" />
          </mxGeometry>
        </mxCell>
        <mxCell id="C1Lx6RwTq1piZFSp2DUt-597" value="" style="html=1;jettySize=18;whiteSpace=wrap;fontSize=13;strokeColor=#1A1A1A;strokeWidth=1.5;rounded=1;arcSize=12;edgeStyle=orthogonalEdgeStyle;startArrow=ERone;startSize=16;endArrow=none;endSize=10;exitX=1;exitY=0.5;exitDx=0;exitDy=0;" parent="1" source="C1Lx6RwTq1piZFSp2DUt-316" edge="1">
          <mxGeometry width="100" height="100" relative="1" as="geometry">
            <Array as="points" />
            <mxPoint x="-220" y="1364.9999999999998" as="sourcePoint" />
            <mxPoint x="750" y="1365" as="targetPoint" />
          </mxGeometry>
        </mxCell>
        <mxCell id="C1Lx6RwTq1piZFSp2DUt-607" value="WorkExperience_Skill" style="shape=table;startSize=30;container=1;collapsible=1;childLayout=tableLayout;fixedRows=1;rowLines=0;fontStyle=1;align=center;resizeLast=1;rounded=1;shadow=0;sketch=0;fillColor=default;gradientColor=none;swimlaneFillColor=default;" parent="1" vertex="1">
          <mxGeometry x="1114" y="1709" width="285" height="130" as="geometry" />
        </mxCell>
        <mxCell id="C1Lx6RwTq1piZFSp2DUt-608" value="" style="shape=tableRow;horizontal=0;startSize=0;swimlaneHead=0;swimlaneBody=0;fillColor=none;collapsible=0;dropTarget=0;points=[[0,0.5],[1,0.5]];portConstraint=eastwest;top=0;left=0;right=0;bottom=0;rounded=1;shadow=0;sketch=0;" parent="C1Lx6RwTq1piZFSp2DUt-607" vertex="1">
          <mxGeometry y="30" width="285" height="30" as="geometry" />
        </mxCell>
        <mxCell id="C1Lx6RwTq1piZFSp2DUt-609" value="PK" style="shape=partialRectangle;connectable=0;fillColor=none;top=0;left=0;bottom=0;right=0;fontStyle=1;overflow=hidden;rounded=1;shadow=0;sketch=0;" parent="C1Lx6RwTq1piZFSp2DUt-608" vertex="1">
          <mxGeometry width="45" height="30" as="geometry">
            <mxRectangle width="45" height="30" as="alternateBounds" />
          </mxGeometry>
        </mxCell>
        <mxCell id="C1Lx6RwTq1piZFSp2DUt-610" value="id uuid UNIQUE NOT NULL" style="shape=partialRectangle;connectable=0;fillColor=none;top=0;left=0;bottom=0;right=0;align=left;spacingLeft=6;fontStyle=1;overflow=hidden;rounded=1;shadow=0;sketch=0;" parent="C1Lx6RwTq1piZFSp2DUt-608" vertex="1">
          <mxGeometry x="45" width="240" height="30" as="geometry">
            <mxRectangle width="240" height="30" as="alternateBounds" />
          </mxGeometry>
        </mxCell>
        <mxCell id="C1Lx6RwTq1piZFSp2DUt-620" style="shape=tableRow;horizontal=0;startSize=0;swimlaneHead=0;swimlaneBody=0;fillColor=none;collapsible=0;dropTarget=0;points=[[0,0.5],[1,0.5]];portConstraint=eastwest;top=0;left=0;right=0;bottom=0;rounded=1;shadow=0;sketch=0;" parent="C1Lx6RwTq1piZFSp2DUt-607" vertex="1">
          <mxGeometry y="60" width="285" height="30" as="geometry" />
        </mxCell>
        <mxCell id="C1Lx6RwTq1piZFSp2DUt-621" value="FK" style="shape=partialRectangle;connectable=0;fillColor=none;top=0;left=0;bottom=0;right=0;fontStyle=1;overflow=hidden;rounded=1;shadow=0;sketch=0;" parent="C1Lx6RwTq1piZFSp2DUt-620" vertex="1">
          <mxGeometry width="45" height="30" as="geometry">
            <mxRectangle width="45" height="30" as="alternateBounds" />
          </mxGeometry>
        </mxCell>
        <mxCell id="C1Lx6RwTq1piZFSp2DUt-622" value="skill uuid NOT NULL" style="shape=partialRectangle;connectable=0;fillColor=none;top=0;left=0;bottom=0;right=0;align=left;spacingLeft=6;fontStyle=1;overflow=hidden;rounded=1;shadow=0;sketch=0;" parent="C1Lx6RwTq1piZFSp2DUt-620" vertex="1">
          <mxGeometry x="45" width="240" height="30" as="geometry">
            <mxRectangle width="240" height="30" as="alternateBounds" />
          </mxGeometry>
        </mxCell>
        <mxCell id="C1Lx6RwTq1piZFSp2DUt-611" value="" style="shape=tableRow;horizontal=0;startSize=0;swimlaneHead=0;swimlaneBody=0;fillColor=none;collapsible=0;dropTarget=0;points=[[0,0.5],[1,0.5]];portConstraint=eastwest;top=0;left=0;right=0;bottom=0;rounded=1;shadow=0;sketch=0;" parent="C1Lx6RwTq1piZFSp2DUt-607" vertex="1">
          <mxGeometry y="90" width="285" height="30" as="geometry" />
        </mxCell>
        <mxCell id="C1Lx6RwTq1piZFSp2DUt-612" value="FK" style="shape=partialRectangle;connectable=0;fillColor=none;top=0;left=0;bottom=0;right=0;fontStyle=1;overflow=hidden;rounded=1;shadow=0;sketch=0;" parent="C1Lx6RwTq1piZFSp2DUt-611" vertex="1">
          <mxGeometry width="45" height="30" as="geometry">
            <mxRectangle width="45" height="30" as="alternateBounds" />
          </mxGeometry>
        </mxCell>
        <mxCell id="C1Lx6RwTq1piZFSp2DUt-613" value="work_experience uuid NOT NULL" style="shape=partialRectangle;connectable=0;fillColor=none;top=0;left=0;bottom=0;right=0;align=left;spacingLeft=6;fontStyle=1;overflow=hidden;rounded=1;shadow=0;sketch=0;" parent="C1Lx6RwTq1piZFSp2DUt-611" vertex="1">
          <mxGeometry x="45" width="240" height="30" as="geometry">
            <mxRectangle width="240" height="30" as="alternateBounds" />
          </mxGeometry>
        </mxCell>
        <mxCell id="C1Lx6RwTq1piZFSp2DUt-623" value="WorkExperience_Achievement" style="shape=table;startSize=30;container=1;collapsible=1;childLayout=tableLayout;fixedRows=1;rowLines=0;fontStyle=1;align=center;resizeLast=1;rounded=1;shadow=0;sketch=0;fillColor=default;gradientColor=none;swimlaneFillColor=default;" parent="1" vertex="1">
          <mxGeometry x="1114" y="1860" width="285" height="130" as="geometry" />
        </mxCell>
        <mxCell id="C1Lx6RwTq1piZFSp2DUt-624" value="" style="shape=tableRow;horizontal=0;startSize=0;swimlaneHead=0;swimlaneBody=0;fillColor=none;collapsible=0;dropTarget=0;points=[[0,0.5],[1,0.5]];portConstraint=eastwest;top=0;left=0;right=0;bottom=0;rounded=1;shadow=0;sketch=0;" parent="C1Lx6RwTq1piZFSp2DUt-623" vertex="1">
          <mxGeometry y="30" width="285" height="30" as="geometry" />
        </mxCell>
        <mxCell id="C1Lx6RwTq1piZFSp2DUt-625" value="PK" style="shape=partialRectangle;connectable=0;fillColor=none;top=0;left=0;bottom=0;right=0;fontStyle=1;overflow=hidden;rounded=1;shadow=0;sketch=0;" parent="C1Lx6RwTq1piZFSp2DUt-624" vertex="1">
          <mxGeometry width="45" height="30" as="geometry">
            <mxRectangle width="45" height="30" as="alternateBounds" />
          </mxGeometry>
        </mxCell>
        <mxCell id="C1Lx6RwTq1piZFSp2DUt-626" value="id uuid UNIQUE NOT NULL" style="shape=partialRectangle;connectable=0;fillColor=none;top=0;left=0;bottom=0;right=0;align=left;spacingLeft=6;fontStyle=1;overflow=hidden;rounded=1;shadow=0;sketch=0;" parent="C1Lx6RwTq1piZFSp2DUt-624" vertex="1">
          <mxGeometry x="45" width="240" height="30" as="geometry">
            <mxRectangle width="240" height="30" as="alternateBounds" />
          </mxGeometry>
        </mxCell>
        <mxCell id="C1Lx6RwTq1piZFSp2DUt-627" style="shape=tableRow;horizontal=0;startSize=0;swimlaneHead=0;swimlaneBody=0;fillColor=none;collapsible=0;dropTarget=0;points=[[0,0.5],[1,0.5]];portConstraint=eastwest;top=0;left=0;right=0;bottom=0;rounded=1;shadow=0;sketch=0;" parent="C1Lx6RwTq1piZFSp2DUt-623" vertex="1">
          <mxGeometry y="60" width="285" height="30" as="geometry" />
        </mxCell>
        <mxCell id="C1Lx6RwTq1piZFSp2DUt-628" value="FK" style="shape=partialRectangle;connectable=0;fillColor=none;top=0;left=0;bottom=0;right=0;fontStyle=1;overflow=hidden;rounded=1;shadow=0;sketch=0;" parent="C1Lx6RwTq1piZFSp2DUt-627" vertex="1">
          <mxGeometry width="45" height="30" as="geometry">
            <mxRectangle width="45" height="30" as="alternateBounds" />
          </mxGeometry>
        </mxCell>
        <mxCell id="C1Lx6RwTq1piZFSp2DUt-629" value="achievement uuid NOT NULL" style="shape=partialRectangle;connectable=0;fillColor=none;top=0;left=0;bottom=0;right=0;align=left;spacingLeft=6;fontStyle=1;overflow=hidden;rounded=1;shadow=0;sketch=0;" parent="C1Lx6RwTq1piZFSp2DUt-627" vertex="1">
          <mxGeometry x="45" width="240" height="30" as="geometry">
            <mxRectangle width="240" height="30" as="alternateBounds" />
          </mxGeometry>
        </mxCell>
        <mxCell id="C1Lx6RwTq1piZFSp2DUt-630" value="" style="shape=tableRow;horizontal=0;startSize=0;swimlaneHead=0;swimlaneBody=0;fillColor=none;collapsible=0;dropTarget=0;points=[[0,0.5],[1,0.5]];portConstraint=eastwest;top=0;left=0;right=0;bottom=0;rounded=1;shadow=0;sketch=0;" parent="C1Lx6RwTq1piZFSp2DUt-623" vertex="1">
          <mxGeometry y="90" width="285" height="30" as="geometry" />
        </mxCell>
        <mxCell id="C1Lx6RwTq1piZFSp2DUt-631" value="FK" style="shape=partialRectangle;connectable=0;fillColor=none;top=0;left=0;bottom=0;right=0;fontStyle=1;overflow=hidden;rounded=1;shadow=0;sketch=0;" parent="C1Lx6RwTq1piZFSp2DUt-630" vertex="1">
          <mxGeometry width="45" height="30" as="geometry">
            <mxRectangle width="45" height="30" as="alternateBounds" />
          </mxGeometry>
        </mxCell>
        <mxCell id="C1Lx6RwTq1piZFSp2DUt-632" value="work_experience uuid NOT NULL" style="shape=partialRectangle;connectable=0;fillColor=none;top=0;left=0;bottom=0;right=0;align=left;spacingLeft=6;fontStyle=1;overflow=hidden;rounded=1;shadow=0;sketch=0;" parent="C1Lx6RwTq1piZFSp2DUt-630" vertex="1">
          <mxGeometry x="45" width="240" height="30" as="geometry">
            <mxRectangle width="240" height="30" as="alternateBounds" />
          </mxGeometry>
        </mxCell>
        <mxCell id="C1Lx6RwTq1piZFSp2DUt-633" value="Achievement" style="shape=table;startSize=30;container=1;collapsible=1;childLayout=tableLayout;fixedRows=1;rowLines=0;fontStyle=1;align=center;resizeLast=1;rounded=1;shadow=0;sketch=0;fillColor=default;gradientColor=none;swimlaneFillColor=default;" parent="1" vertex="1">
          <mxGeometry x="767" y="1800" width="217" height="250" as="geometry" />
        </mxCell>
        <mxCell id="C1Lx6RwTq1piZFSp2DUt-634" value="" style="shape=tableRow;horizontal=0;startSize=0;swimlaneHead=0;swimlaneBody=0;fillColor=none;collapsible=0;dropTarget=0;points=[[0,0.5],[1,0.5]];portConstraint=eastwest;top=0;left=0;right=0;bottom=0;rounded=1;shadow=0;sketch=0;" parent="C1Lx6RwTq1piZFSp2DUt-633" vertex="1">
          <mxGeometry y="30" width="217" height="30" as="geometry" />
        </mxCell>
        <mxCell id="C1Lx6RwTq1piZFSp2DUt-635" value="PK" style="shape=partialRectangle;connectable=0;fillColor=none;top=0;left=0;bottom=0;right=0;fontStyle=1;overflow=hidden;rounded=1;shadow=0;sketch=0;" parent="C1Lx6RwTq1piZFSp2DUt-634" vertex="1">
          <mxGeometry width="45" height="30" as="geometry">
            <mxRectangle width="45" height="30" as="alternateBounds" />
          </mxGeometry>
        </mxCell>
        <mxCell id="C1Lx6RwTq1piZFSp2DUt-636" value="id uuid UNIQUE NOT NULL" style="shape=partialRectangle;connectable=0;fillColor=none;top=0;left=0;bottom=0;right=0;align=left;spacingLeft=6;fontStyle=1;overflow=hidden;rounded=1;shadow=0;sketch=0;" parent="C1Lx6RwTq1piZFSp2DUt-634" vertex="1">
          <mxGeometry x="45" width="172" height="30" as="geometry">
            <mxRectangle width="172" height="30" as="alternateBounds" />
          </mxGeometry>
        </mxCell>
        <mxCell id="C1Lx6RwTq1piZFSp2DUt-649" style="shape=tableRow;horizontal=0;startSize=0;swimlaneHead=0;swimlaneBody=0;fillColor=none;collapsible=0;dropTarget=0;points=[[0,0.5],[1,0.5]];portConstraint=eastwest;top=0;left=0;right=0;bottom=0;rounded=1;shadow=0;sketch=0;" parent="C1Lx6RwTq1piZFSp2DUt-633" vertex="1">
          <mxGeometry y="60" width="217" height="30" as="geometry" />
        </mxCell>
        <mxCell id="C1Lx6RwTq1piZFSp2DUt-650" value="FK" style="shape=partialRectangle;connectable=0;fillColor=none;top=0;left=0;bottom=0;right=0;fontStyle=1;overflow=hidden;rounded=1;shadow=0;sketch=0;" parent="C1Lx6RwTq1piZFSp2DUt-649" vertex="1">
          <mxGeometry width="45" height="30" as="geometry">
            <mxRectangle width="45" height="30" as="alternateBounds" />
          </mxGeometry>
        </mxCell>
        <mxCell id="C1Lx6RwTq1piZFSp2DUt-651" value="resume uuid" style="shape=partialRectangle;connectable=0;fillColor=none;top=0;left=0;bottom=0;right=0;align=left;spacingLeft=6;fontStyle=1;overflow=hidden;rounded=1;shadow=0;sketch=0;" parent="C1Lx6RwTq1piZFSp2DUt-649" vertex="1">
          <mxGeometry x="45" width="172" height="30" as="geometry">
            <mxRectangle width="172" height="30" as="alternateBounds" />
          </mxGeometry>
        </mxCell>
        <mxCell id="C1Lx6RwTq1piZFSp2DUt-646" style="shape=tableRow;horizontal=0;startSize=0;swimlaneHead=0;swimlaneBody=0;fillColor=none;collapsible=0;dropTarget=0;points=[[0,0.5],[1,0.5]];portConstraint=eastwest;top=0;left=0;right=0;bottom=0;rounded=1;shadow=0;sketch=0;" parent="C1Lx6RwTq1piZFSp2DUt-633" vertex="1">
          <mxGeometry y="90" width="217" height="30" as="geometry" />
        </mxCell>
        <mxCell id="C1Lx6RwTq1piZFSp2DUt-647" value="FK" style="shape=partialRectangle;connectable=0;fillColor=none;top=0;left=0;bottom=0;right=0;fontStyle=1;overflow=hidden;rounded=1;shadow=0;sketch=0;" parent="C1Lx6RwTq1piZFSp2DUt-646" vertex="1">
          <mxGeometry width="45" height="30" as="geometry">
            <mxRectangle width="45" height="30" as="alternateBounds" />
          </mxGeometry>
        </mxCell>
        <mxCell id="C1Lx6RwTq1piZFSp2DUt-648" value="cv uuid" style="shape=partialRectangle;connectable=0;fillColor=none;top=0;left=0;bottom=0;right=0;align=left;spacingLeft=6;fontStyle=1;overflow=hidden;rounded=1;shadow=0;sketch=0;" parent="C1Lx6RwTq1piZFSp2DUt-646" vertex="1">
          <mxGeometry x="45" width="172" height="30" as="geometry">
            <mxRectangle width="172" height="30" as="alternateBounds" />
          </mxGeometry>
        </mxCell>
        <mxCell id="C1Lx6RwTq1piZFSp2DUt-637" value="" style="shape=tableRow;horizontal=0;startSize=0;swimlaneHead=0;swimlaneBody=0;fillColor=none;collapsible=0;dropTarget=0;points=[[0,0.5],[1,0.5]];portConstraint=eastwest;top=0;left=0;right=0;bottom=1;rounded=1;shadow=0;sketch=0;" parent="C1Lx6RwTq1piZFSp2DUt-633" vertex="1">
          <mxGeometry y="120" width="217" height="30" as="geometry" />
        </mxCell>
        <mxCell id="C1Lx6RwTq1piZFSp2DUt-638" value="FK" style="shape=partialRectangle;connectable=0;fillColor=none;top=0;left=0;bottom=0;right=0;fontStyle=1;overflow=hidden;rounded=1;shadow=0;sketch=0;" parent="C1Lx6RwTq1piZFSp2DUt-637" vertex="1">
          <mxGeometry width="45" height="30" as="geometry">
            <mxRectangle width="45" height="30" as="alternateBounds" />
          </mxGeometry>
        </mxCell>
        <mxCell id="C1Lx6RwTq1piZFSp2DUt-639" value="project uuid" style="shape=partialRectangle;connectable=0;fillColor=none;top=0;left=0;bottom=0;right=0;align=left;spacingLeft=6;fontStyle=1;overflow=hidden;rounded=1;shadow=0;sketch=0;" parent="C1Lx6RwTq1piZFSp2DUt-637" vertex="1">
          <mxGeometry x="45" width="172" height="30" as="geometry">
            <mxRectangle width="172" height="30" as="alternateBounds" />
          </mxGeometry>
        </mxCell>
        <mxCell id="C1Lx6RwTq1piZFSp2DUt-640" value="" style="shape=tableRow;horizontal=0;startSize=0;swimlaneHead=0;swimlaneBody=0;fillColor=none;collapsible=0;dropTarget=0;points=[[0,0.5],[1,0.5]];portConstraint=eastwest;top=0;left=0;right=0;bottom=0;rounded=1;shadow=0;sketch=0;" parent="C1Lx6RwTq1piZFSp2DUt-633" vertex="1">
          <mxGeometry y="150" width="217" height="30" as="geometry" />
        </mxCell>
        <mxCell id="C1Lx6RwTq1piZFSp2DUt-641" value="" style="shape=partialRectangle;connectable=0;fillColor=none;top=0;left=0;bottom=0;right=0;editable=1;overflow=hidden;rounded=1;shadow=0;sketch=0;" parent="C1Lx6RwTq1piZFSp2DUt-640" vertex="1">
          <mxGeometry width="45" height="30" as="geometry">
            <mxRectangle width="45" height="30" as="alternateBounds" />
          </mxGeometry>
        </mxCell>
        <mxCell id="C1Lx6RwTq1piZFSp2DUt-642" value="title char()" style="shape=partialRectangle;connectable=0;fillColor=none;top=0;left=0;bottom=0;right=0;align=left;spacingLeft=6;overflow=hidden;rounded=1;shadow=0;sketch=0;" parent="C1Lx6RwTq1piZFSp2DUt-640" vertex="1">
          <mxGeometry x="45" width="172" height="30" as="geometry">
            <mxRectangle width="172" height="30" as="alternateBounds" />
          </mxGeometry>
        </mxCell>
        <mxCell id="C1Lx6RwTq1piZFSp2DUt-643" value="" style="shape=tableRow;horizontal=0;startSize=0;swimlaneHead=0;swimlaneBody=0;fillColor=none;collapsible=0;dropTarget=0;points=[[0,0.5],[1,0.5]];portConstraint=eastwest;top=0;left=0;right=0;bottom=0;rounded=1;shadow=0;sketch=0;" parent="C1Lx6RwTq1piZFSp2DUt-633" vertex="1">
          <mxGeometry y="180" width="217" height="30" as="geometry" />
        </mxCell>
        <mxCell id="C1Lx6RwTq1piZFSp2DUt-644" value="" style="shape=partialRectangle;connectable=0;fillColor=none;top=0;left=0;bottom=0;right=0;editable=1;overflow=hidden;rounded=1;shadow=0;sketch=0;" parent="C1Lx6RwTq1piZFSp2DUt-643" vertex="1">
          <mxGeometry width="45" height="30" as="geometry">
            <mxRectangle width="45" height="30" as="alternateBounds" />
          </mxGeometry>
        </mxCell>
        <mxCell id="C1Lx6RwTq1piZFSp2DUt-645" value="bullet char()" style="shape=partialRectangle;connectable=0;fillColor=none;top=0;left=0;bottom=0;right=0;align=left;spacingLeft=6;overflow=hidden;rounded=1;shadow=0;sketch=0;" parent="C1Lx6RwTq1piZFSp2DUt-643" vertex="1">
          <mxGeometry x="45" width="172" height="30" as="geometry">
            <mxRectangle width="172" height="30" as="alternateBounds" />
          </mxGeometry>
        </mxCell>
        <mxCell id="C1Lx6RwTq1piZFSp2DUt-652" style="shape=tableRow;horizontal=0;startSize=0;swimlaneHead=0;swimlaneBody=0;fillColor=none;collapsible=0;dropTarget=0;points=[[0,0.5],[1,0.5]];portConstraint=eastwest;top=0;left=0;right=0;bottom=0;rounded=1;shadow=0;sketch=0;" parent="C1Lx6RwTq1piZFSp2DUt-633" vertex="1">
          <mxGeometry y="210" width="217" height="30" as="geometry" />
        </mxCell>
        <mxCell id="C1Lx6RwTq1piZFSp2DUt-653" style="shape=partialRectangle;connectable=0;fillColor=none;top=0;left=0;bottom=0;right=0;editable=1;overflow=hidden;rounded=1;shadow=0;sketch=0;" parent="C1Lx6RwTq1piZFSp2DUt-652" vertex="1">
          <mxGeometry width="45" height="30" as="geometry">
            <mxRectangle width="45" height="30" as="alternateBounds" />
          </mxGeometry>
        </mxCell>
        <mxCell id="C1Lx6RwTq1piZFSp2DUt-654" value="summary char(250)" style="shape=partialRectangle;connectable=0;fillColor=none;top=0;left=0;bottom=0;right=0;align=left;spacingLeft=6;overflow=hidden;rounded=1;shadow=0;sketch=0;" parent="C1Lx6RwTq1piZFSp2DUt-652" vertex="1">
          <mxGeometry x="45" width="172" height="30" as="geometry">
            <mxRectangle width="172" height="30" as="alternateBounds" />
          </mxGeometry>
        </mxCell>
        <mxCell id="C1Lx6RwTq1piZFSp2DUt-655" value="WorkExperience" style="shape=table;startSize=30;container=1;collapsible=1;childLayout=tableLayout;fixedRows=1;rowLines=0;fontStyle=1;align=center;resizeLast=1;rounded=1;shadow=0;sketch=0;fillColor=default;gradientColor=none;swimlaneFillColor=default;" parent="1" vertex="1">
          <mxGeometry x="1005" y="2120" width="285" height="310" as="geometry" />
        </mxCell>
        <mxCell id="C1Lx6RwTq1piZFSp2DUt-656" value="" style="shape=tableRow;horizontal=0;startSize=0;swimlaneHead=0;swimlaneBody=0;fillColor=none;collapsible=0;dropTarget=0;points=[[0,0.5],[1,0.5]];portConstraint=eastwest;top=0;left=0;right=0;bottom=0;rounded=1;shadow=0;sketch=0;" parent="C1Lx6RwTq1piZFSp2DUt-655" vertex="1">
          <mxGeometry y="30" width="285" height="30" as="geometry" />
        </mxCell>
        <mxCell id="C1Lx6RwTq1piZFSp2DUt-657" value="PK" style="shape=partialRectangle;connectable=0;fillColor=none;top=0;left=0;bottom=0;right=0;fontStyle=1;overflow=hidden;rounded=1;shadow=0;sketch=0;" parent="C1Lx6RwTq1piZFSp2DUt-656" vertex="1">
          <mxGeometry width="45" height="30" as="geometry">
            <mxRectangle width="45" height="30" as="alternateBounds" />
          </mxGeometry>
        </mxCell>
        <mxCell id="C1Lx6RwTq1piZFSp2DUt-658" value="id uuid UNIQUE NOT NULL" style="shape=partialRectangle;connectable=0;fillColor=none;top=0;left=0;bottom=0;right=0;align=left;spacingLeft=6;fontStyle=1;overflow=hidden;rounded=1;shadow=0;sketch=0;" parent="C1Lx6RwTq1piZFSp2DUt-656" vertex="1">
          <mxGeometry x="45" width="240" height="30" as="geometry">
            <mxRectangle width="240" height="30" as="alternateBounds" />
          </mxGeometry>
        </mxCell>
        <mxCell id="r4kLxaNf1XHd40Li_yTl-7" style="shape=tableRow;horizontal=0;startSize=0;swimlaneHead=0;swimlaneBody=0;fillColor=none;collapsible=0;dropTarget=0;points=[[0,0.5],[1,0.5]];portConstraint=eastwest;top=0;left=0;right=0;bottom=0;rounded=1;shadow=0;sketch=0;" parent="C1Lx6RwTq1piZFSp2DUt-655" vertex="1">
          <mxGeometry y="60" width="285" height="30" as="geometry" />
        </mxCell>
        <mxCell id="r4kLxaNf1XHd40Li_yTl-8" value="FK" style="shape=partialRectangle;connectable=0;fillColor=none;top=0;left=0;bottom=0;right=0;fontStyle=1;overflow=hidden;rounded=1;shadow=0;sketch=0;" parent="r4kLxaNf1XHd40Li_yTl-7" vertex="1">
          <mxGeometry width="45" height="30" as="geometry">
            <mxRectangle width="45" height="30" as="alternateBounds" />
          </mxGeometry>
        </mxCell>
        <mxCell id="r4kLxaNf1XHd40Li_yTl-9" value="resume uuid" style="shape=partialRectangle;connectable=0;fillColor=none;top=0;left=0;bottom=0;right=0;align=left;spacingLeft=6;fontStyle=1;overflow=hidden;rounded=1;shadow=0;sketch=0;" parent="r4kLxaNf1XHd40Li_yTl-7" vertex="1">
          <mxGeometry x="45" width="240" height="30" as="geometry">
            <mxRectangle width="240" height="30" as="alternateBounds" />
          </mxGeometry>
        </mxCell>
        <mxCell id="r4kLxaNf1XHd40Li_yTl-4" style="shape=tableRow;horizontal=0;startSize=0;swimlaneHead=0;swimlaneBody=0;fillColor=none;collapsible=0;dropTarget=0;points=[[0,0.5],[1,0.5]];portConstraint=eastwest;top=0;left=0;right=0;bottom=0;rounded=1;shadow=0;sketch=0;" parent="C1Lx6RwTq1piZFSp2DUt-655" vertex="1">
          <mxGeometry y="90" width="285" height="30" as="geometry" />
        </mxCell>
        <mxCell id="r4kLxaNf1XHd40Li_yTl-5" value="FK" style="shape=partialRectangle;connectable=0;fillColor=none;top=0;left=0;bottom=0;right=0;fontStyle=1;overflow=hidden;rounded=1;shadow=0;sketch=0;" parent="r4kLxaNf1XHd40Li_yTl-4" vertex="1">
          <mxGeometry width="45" height="30" as="geometry">
            <mxRectangle width="45" height="30" as="alternateBounds" />
          </mxGeometry>
        </mxCell>
        <mxCell id="r4kLxaNf1XHd40Li_yTl-6" value="cv uuid" style="shape=partialRectangle;connectable=0;fillColor=none;top=0;left=0;bottom=0;right=0;align=left;spacingLeft=6;fontStyle=1;overflow=hidden;rounded=1;shadow=0;sketch=0;" parent="r4kLxaNf1XHd40Li_yTl-4" vertex="1">
          <mxGeometry x="45" width="240" height="30" as="geometry">
            <mxRectangle width="240" height="30" as="alternateBounds" />
          </mxGeometry>
        </mxCell>
        <mxCell id="C1Lx6RwTq1piZFSp2DUt-659" value="" style="shape=tableRow;horizontal=0;startSize=0;swimlaneHead=0;swimlaneBody=0;fillColor=none;collapsible=0;dropTarget=0;points=[[0,0.5],[1,0.5]];portConstraint=eastwest;top=0;left=0;right=0;bottom=1;rounded=1;shadow=0;sketch=0;" parent="C1Lx6RwTq1piZFSp2DUt-655" vertex="1">
          <mxGeometry y="120" width="285" height="30" as="geometry" />
        </mxCell>
        <mxCell id="C1Lx6RwTq1piZFSp2DUt-660" value="FK" style="shape=partialRectangle;connectable=0;fillColor=none;top=0;left=0;bottom=0;right=0;fontStyle=1;overflow=hidden;rounded=1;shadow=0;sketch=0;" parent="C1Lx6RwTq1piZFSp2DUt-659" vertex="1">
          <mxGeometry width="45" height="30" as="geometry">
            <mxRectangle width="45" height="30" as="alternateBounds" />
          </mxGeometry>
        </mxCell>
        <mxCell id="C1Lx6RwTq1piZFSp2DUt-661" value="project uuid" style="shape=partialRectangle;connectable=0;fillColor=none;top=0;left=0;bottom=0;right=0;align=left;spacingLeft=6;fontStyle=1;overflow=hidden;rounded=1;shadow=0;sketch=0;" parent="C1Lx6RwTq1piZFSp2DUt-659" vertex="1">
          <mxGeometry x="45" width="240" height="30" as="geometry">
            <mxRectangle width="240" height="30" as="alternateBounds" />
          </mxGeometry>
        </mxCell>
        <mxCell id="C1Lx6RwTq1piZFSp2DUt-662" value="" style="shape=tableRow;horizontal=0;startSize=0;swimlaneHead=0;swimlaneBody=0;fillColor=none;collapsible=0;dropTarget=0;points=[[0,0.5],[1,0.5]];portConstraint=eastwest;top=0;left=0;right=0;bottom=0;rounded=1;shadow=0;sketch=0;" parent="C1Lx6RwTq1piZFSp2DUt-655" vertex="1">
          <mxGeometry y="150" width="285" height="30" as="geometry" />
        </mxCell>
        <mxCell id="C1Lx6RwTq1piZFSp2DUt-663" value="" style="shape=partialRectangle;connectable=0;fillColor=none;top=0;left=0;bottom=0;right=0;editable=1;overflow=hidden;rounded=1;shadow=0;sketch=0;" parent="C1Lx6RwTq1piZFSp2DUt-662" vertex="1">
          <mxGeometry width="45" height="30" as="geometry">
            <mxRectangle width="45" height="30" as="alternateBounds" />
          </mxGeometry>
        </mxCell>
        <mxCell id="C1Lx6RwTq1piZFSp2DUt-664" value="position char()" style="shape=partialRectangle;connectable=0;fillColor=none;top=0;left=0;bottom=0;right=0;align=left;spacingLeft=6;overflow=hidden;rounded=1;shadow=0;sketch=0;" parent="C1Lx6RwTq1piZFSp2DUt-662" vertex="1">
          <mxGeometry x="45" width="240" height="30" as="geometry">
            <mxRectangle width="240" height="30" as="alternateBounds" />
          </mxGeometry>
        </mxCell>
        <mxCell id="C1Lx6RwTq1piZFSp2DUt-665" value="" style="shape=tableRow;horizontal=0;startSize=0;swimlaneHead=0;swimlaneBody=0;fillColor=none;collapsible=0;dropTarget=0;points=[[0,0.5],[1,0.5]];portConstraint=eastwest;top=0;left=0;right=0;bottom=0;rounded=1;shadow=0;sketch=0;" parent="C1Lx6RwTq1piZFSp2DUt-655" vertex="1">
          <mxGeometry y="180" width="285" height="30" as="geometry" />
        </mxCell>
        <mxCell id="C1Lx6RwTq1piZFSp2DUt-666" value="" style="shape=partialRectangle;connectable=0;fillColor=none;top=0;left=0;bottom=0;right=0;editable=1;overflow=hidden;rounded=1;shadow=0;sketch=0;" parent="C1Lx6RwTq1piZFSp2DUt-665" vertex="1">
          <mxGeometry width="45" height="30" as="geometry">
            <mxRectangle width="45" height="30" as="alternateBounds" />
          </mxGeometry>
        </mxCell>
        <mxCell id="C1Lx6RwTq1piZFSp2DUt-667" value="organization char()" style="shape=partialRectangle;connectable=0;fillColor=none;top=0;left=0;bottom=0;right=0;align=left;spacingLeft=6;overflow=hidden;rounded=1;shadow=0;sketch=0;" parent="C1Lx6RwTq1piZFSp2DUt-665" vertex="1">
          <mxGeometry x="45" width="240" height="30" as="geometry">
            <mxRectangle width="240" height="30" as="alternateBounds" />
          </mxGeometry>
        </mxCell>
        <mxCell id="FzVgEvcJ2fNg-dl_Ksst-4" style="shape=tableRow;horizontal=0;startSize=0;swimlaneHead=0;swimlaneBody=0;fillColor=none;collapsible=0;dropTarget=0;points=[[0,0.5],[1,0.5]];portConstraint=eastwest;top=0;left=0;right=0;bottom=0;rounded=1;shadow=0;sketch=0;" parent="C1Lx6RwTq1piZFSp2DUt-655" vertex="1">
          <mxGeometry y="210" width="285" height="30" as="geometry" />
        </mxCell>
        <mxCell id="FzVgEvcJ2fNg-dl_Ksst-5" style="shape=partialRectangle;connectable=0;fillColor=none;top=0;left=0;bottom=0;right=0;editable=1;overflow=hidden;rounded=1;shadow=0;sketch=0;" parent="FzVgEvcJ2fNg-dl_Ksst-4" vertex="1">
          <mxGeometry width="45" height="30" as="geometry">
            <mxRectangle width="45" height="30" as="alternateBounds" />
          </mxGeometry>
        </mxCell>
        <mxCell id="FzVgEvcJ2fNg-dl_Ksst-6" value="summary char(250)" style="shape=partialRectangle;connectable=0;fillColor=none;top=0;left=0;bottom=0;right=0;align=left;spacingLeft=6;overflow=hidden;rounded=1;shadow=0;sketch=0;" parent="FzVgEvcJ2fNg-dl_Ksst-4" vertex="1">
          <mxGeometry x="45" width="240" height="30" as="geometry">
            <mxRectangle width="240" height="30" as="alternateBounds" />
          </mxGeometry>
        </mxCell>
        <mxCell id="r4kLxaNf1XHd40Li_yTl-13" style="shape=tableRow;horizontal=0;startSize=0;swimlaneHead=0;swimlaneBody=0;fillColor=none;collapsible=0;dropTarget=0;points=[[0,0.5],[1,0.5]];portConstraint=eastwest;top=0;left=0;right=0;bottom=0;rounded=1;shadow=0;sketch=0;" parent="C1Lx6RwTq1piZFSp2DUt-655" vertex="1">
          <mxGeometry y="240" width="285" height="30" as="geometry" />
        </mxCell>
        <mxCell id="r4kLxaNf1XHd40Li_yTl-14" style="shape=partialRectangle;connectable=0;fillColor=none;top=0;left=0;bottom=0;right=0;editable=1;overflow=hidden;rounded=1;shadow=0;sketch=0;" parent="r4kLxaNf1XHd40Li_yTl-13" vertex="1">
          <mxGeometry width="45" height="30" as="geometry">
            <mxRectangle width="45" height="30" as="alternateBounds" />
          </mxGeometry>
        </mxCell>
        <mxCell id="r4kLxaNf1XHd40Li_yTl-15" value="start_date datetime" style="shape=partialRectangle;connectable=0;fillColor=none;top=0;left=0;bottom=0;right=0;align=left;spacingLeft=6;overflow=hidden;rounded=1;shadow=0;sketch=0;" parent="r4kLxaNf1XHd40Li_yTl-13" vertex="1">
          <mxGeometry x="45" width="240" height="30" as="geometry">
            <mxRectangle width="240" height="30" as="alternateBounds" />
          </mxGeometry>
        </mxCell>
        <mxCell id="r4kLxaNf1XHd40Li_yTl-10" style="shape=tableRow;horizontal=0;startSize=0;swimlaneHead=0;swimlaneBody=0;fillColor=none;collapsible=0;dropTarget=0;points=[[0,0.5],[1,0.5]];portConstraint=eastwest;top=0;left=0;right=0;bottom=0;rounded=1;shadow=0;sketch=0;" parent="C1Lx6RwTq1piZFSp2DUt-655" vertex="1">
          <mxGeometry y="270" width="285" height="30" as="geometry" />
        </mxCell>
        <mxCell id="r4kLxaNf1XHd40Li_yTl-11" style="shape=partialRectangle;connectable=0;fillColor=none;top=0;left=0;bottom=0;right=0;editable=1;overflow=hidden;rounded=1;shadow=0;sketch=0;" parent="r4kLxaNf1XHd40Li_yTl-10" vertex="1">
          <mxGeometry width="45" height="30" as="geometry">
            <mxRectangle width="45" height="30" as="alternateBounds" />
          </mxGeometry>
        </mxCell>
        <mxCell id="r4kLxaNf1XHd40Li_yTl-12" value="end_date datetime" style="shape=partialRectangle;connectable=0;fillColor=none;top=0;left=0;bottom=0;right=0;align=left;spacingLeft=6;overflow=hidden;rounded=1;shadow=0;sketch=0;" parent="r4kLxaNf1XHd40Li_yTl-10" vertex="1">
          <mxGeometry x="45" width="240" height="30" as="geometry">
            <mxRectangle width="240" height="30" as="alternateBounds" />
          </mxGeometry>
        </mxCell>
        <mxCell id="C1Lx6RwTq1piZFSp2DUt-668" value="Education" style="shape=table;startSize=30;container=1;collapsible=1;childLayout=tableLayout;fixedRows=1;rowLines=0;fontStyle=1;align=center;resizeLast=1;rounded=1;shadow=0;sketch=0;fillColor=default;gradientColor=none;swimlaneFillColor=default;" parent="1" vertex="1">
          <mxGeometry x="699" y="2280" width="285" height="344" as="geometry" />
        </mxCell>
        <mxCell id="C1Lx6RwTq1piZFSp2DUt-669" value="" style="shape=tableRow;horizontal=0;startSize=0;swimlaneHead=0;swimlaneBody=0;fillColor=none;collapsible=0;dropTarget=0;points=[[0,0.5],[1,0.5]];portConstraint=eastwest;top=0;left=0;right=0;bottom=0;rounded=1;shadow=0;sketch=0;" parent="C1Lx6RwTq1piZFSp2DUt-668" vertex="1">
          <mxGeometry y="30" width="285" height="30" as="geometry" />
        </mxCell>
        <mxCell id="C1Lx6RwTq1piZFSp2DUt-670" value="PK" style="shape=partialRectangle;connectable=0;fillColor=none;top=0;left=0;bottom=0;right=0;fontStyle=1;overflow=hidden;rounded=1;shadow=0;sketch=0;" parent="C1Lx6RwTq1piZFSp2DUt-669" vertex="1">
          <mxGeometry width="45" height="30" as="geometry">
            <mxRectangle width="45" height="30" as="alternateBounds" />
          </mxGeometry>
        </mxCell>
        <mxCell id="C1Lx6RwTq1piZFSp2DUt-671" value="id uuid UNIQUE NOT NULL" style="shape=partialRectangle;connectable=0;fillColor=none;top=0;left=0;bottom=0;right=0;align=left;spacingLeft=6;fontStyle=1;overflow=hidden;rounded=1;shadow=0;sketch=0;" parent="C1Lx6RwTq1piZFSp2DUt-669" vertex="1">
          <mxGeometry x="45" width="240" height="30" as="geometry">
            <mxRectangle width="240" height="30" as="alternateBounds" />
          </mxGeometry>
        </mxCell>
        <mxCell id="r4kLxaNf1XHd40Li_yTl-25" style="shape=tableRow;horizontal=0;startSize=0;swimlaneHead=0;swimlaneBody=0;fillColor=none;collapsible=0;dropTarget=0;points=[[0,0.5],[1,0.5]];portConstraint=eastwest;top=0;left=0;right=0;bottom=0;rounded=1;shadow=0;sketch=0;" parent="C1Lx6RwTq1piZFSp2DUt-668" vertex="1">
          <mxGeometry y="60" width="285" height="30" as="geometry" />
        </mxCell>
        <mxCell id="r4kLxaNf1XHd40Li_yTl-26" value="FK" style="shape=partialRectangle;connectable=0;fillColor=none;top=0;left=0;bottom=0;right=0;fontStyle=1;overflow=hidden;rounded=1;shadow=0;sketch=0;" parent="r4kLxaNf1XHd40Li_yTl-25" vertex="1">
          <mxGeometry width="45" height="30" as="geometry">
            <mxRectangle width="45" height="30" as="alternateBounds" />
          </mxGeometry>
        </mxCell>
        <mxCell id="r4kLxaNf1XHd40Li_yTl-27" value="resume uuid" style="shape=partialRectangle;connectable=0;fillColor=none;top=0;left=0;bottom=0;right=0;align=left;spacingLeft=6;fontStyle=1;overflow=hidden;rounded=1;shadow=0;sketch=0;" parent="r4kLxaNf1XHd40Li_yTl-25" vertex="1">
          <mxGeometry x="45" width="240" height="30" as="geometry">
            <mxRectangle width="240" height="30" as="alternateBounds" />
          </mxGeometry>
        </mxCell>
        <mxCell id="r4kLxaNf1XHd40Li_yTl-22" style="shape=tableRow;horizontal=0;startSize=0;swimlaneHead=0;swimlaneBody=0;fillColor=none;collapsible=0;dropTarget=0;points=[[0,0.5],[1,0.5]];portConstraint=eastwest;top=0;left=0;right=0;bottom=0;rounded=1;shadow=0;sketch=0;" parent="C1Lx6RwTq1piZFSp2DUt-668" vertex="1">
          <mxGeometry y="90" width="285" height="30" as="geometry" />
        </mxCell>
        <mxCell id="r4kLxaNf1XHd40Li_yTl-23" value="FK" style="shape=partialRectangle;connectable=0;fillColor=none;top=0;left=0;bottom=0;right=0;fontStyle=1;overflow=hidden;rounded=1;shadow=0;sketch=0;" parent="r4kLxaNf1XHd40Li_yTl-22" vertex="1">
          <mxGeometry width="45" height="30" as="geometry">
            <mxRectangle width="45" height="30" as="alternateBounds" />
          </mxGeometry>
        </mxCell>
        <mxCell id="r4kLxaNf1XHd40Li_yTl-24" value="cv uuid" style="shape=partialRectangle;connectable=0;fillColor=none;top=0;left=0;bottom=0;right=0;align=left;spacingLeft=6;fontStyle=1;overflow=hidden;rounded=1;shadow=0;sketch=0;" parent="r4kLxaNf1XHd40Li_yTl-22" vertex="1">
          <mxGeometry x="45" width="240" height="30" as="geometry">
            <mxRectangle width="240" height="30" as="alternateBounds" />
          </mxGeometry>
        </mxCell>
        <mxCell id="C1Lx6RwTq1piZFSp2DUt-672" value="" style="shape=tableRow;horizontal=0;startSize=0;swimlaneHead=0;swimlaneBody=0;fillColor=none;collapsible=0;dropTarget=0;points=[[0,0.5],[1,0.5]];portConstraint=eastwest;top=0;left=0;right=0;bottom=1;rounded=1;shadow=0;sketch=0;" parent="C1Lx6RwTq1piZFSp2DUt-668" vertex="1">
          <mxGeometry y="120" width="285" height="30" as="geometry" />
        </mxCell>
        <mxCell id="C1Lx6RwTq1piZFSp2DUt-673" value="FK" style="shape=partialRectangle;connectable=0;fillColor=none;top=0;left=0;bottom=0;right=0;fontStyle=1;overflow=hidden;rounded=1;shadow=0;sketch=0;" parent="C1Lx6RwTq1piZFSp2DUt-672" vertex="1">
          <mxGeometry width="45" height="30" as="geometry">
            <mxRectangle width="45" height="30" as="alternateBounds" />
          </mxGeometry>
        </mxCell>
        <mxCell id="C1Lx6RwTq1piZFSp2DUt-674" value="project uuid" style="shape=partialRectangle;connectable=0;fillColor=none;top=0;left=0;bottom=0;right=0;align=left;spacingLeft=6;fontStyle=1;overflow=hidden;rounded=1;shadow=0;sketch=0;" parent="C1Lx6RwTq1piZFSp2DUt-672" vertex="1">
          <mxGeometry x="45" width="240" height="30" as="geometry">
            <mxRectangle width="240" height="30" as="alternateBounds" />
          </mxGeometry>
        </mxCell>
        <mxCell id="C1Lx6RwTq1piZFSp2DUt-675" value="" style="shape=tableRow;horizontal=0;startSize=0;swimlaneHead=0;swimlaneBody=0;fillColor=none;collapsible=0;dropTarget=0;points=[[0,0.5],[1,0.5]];portConstraint=eastwest;top=0;left=0;right=0;bottom=0;rounded=1;shadow=0;sketch=0;" parent="C1Lx6RwTq1piZFSp2DUt-668" vertex="1">
          <mxGeometry y="150" width="285" height="30" as="geometry" />
        </mxCell>
        <mxCell id="C1Lx6RwTq1piZFSp2DUt-676" value="" style="shape=partialRectangle;connectable=0;fillColor=none;top=0;left=0;bottom=0;right=0;editable=1;overflow=hidden;rounded=1;shadow=0;sketch=0;" parent="C1Lx6RwTq1piZFSp2DUt-675" vertex="1">
          <mxGeometry width="45" height="30" as="geometry">
            <mxRectangle width="45" height="30" as="alternateBounds" />
          </mxGeometry>
        </mxCell>
        <mxCell id="C1Lx6RwTq1piZFSp2DUt-677" value="field_of_study char()" style="shape=partialRectangle;connectable=0;fillColor=none;top=0;left=0;bottom=0;right=0;align=left;spacingLeft=6;overflow=hidden;rounded=1;shadow=0;sketch=0;" parent="C1Lx6RwTq1piZFSp2DUt-675" vertex="1">
          <mxGeometry x="45" width="240" height="30" as="geometry">
            <mxRectangle width="240" height="30" as="alternateBounds" />
          </mxGeometry>
        </mxCell>
        <mxCell id="C1Lx6RwTq1piZFSp2DUt-678" value="" style="shape=tableRow;horizontal=0;startSize=0;swimlaneHead=0;swimlaneBody=0;fillColor=none;collapsible=0;dropTarget=0;points=[[0,0.5],[1,0.5]];portConstraint=eastwest;top=0;left=0;right=0;bottom=0;rounded=1;shadow=0;sketch=0;" parent="C1Lx6RwTq1piZFSp2DUt-668" vertex="1">
          <mxGeometry y="180" width="285" height="30" as="geometry" />
        </mxCell>
        <mxCell id="C1Lx6RwTq1piZFSp2DUt-679" value="" style="shape=partialRectangle;connectable=0;fillColor=none;top=0;left=0;bottom=0;right=0;editable=1;overflow=hidden;rounded=1;shadow=0;sketch=0;" parent="C1Lx6RwTq1piZFSp2DUt-678" vertex="1">
          <mxGeometry width="45" height="30" as="geometry">
            <mxRectangle width="45" height="30" as="alternateBounds" />
          </mxGeometry>
        </mxCell>
        <mxCell id="C1Lx6RwTq1piZFSp2DUt-680" value="degree char()" style="shape=partialRectangle;connectable=0;fillColor=none;top=0;left=0;bottom=0;right=0;align=left;spacingLeft=6;overflow=hidden;rounded=1;shadow=0;sketch=0;" parent="C1Lx6RwTq1piZFSp2DUt-678" vertex="1">
          <mxGeometry x="45" width="240" height="30" as="geometry">
            <mxRectangle width="240" height="30" as="alternateBounds" />
          </mxGeometry>
        </mxCell>
        <mxCell id="r4kLxaNf1XHd40Li_yTl-19" style="shape=tableRow;horizontal=0;startSize=0;swimlaneHead=0;swimlaneBody=0;fillColor=none;collapsible=0;dropTarget=0;points=[[0,0.5],[1,0.5]];portConstraint=eastwest;top=0;left=0;right=0;bottom=0;rounded=1;shadow=0;sketch=0;" parent="C1Lx6RwTq1piZFSp2DUt-668" vertex="1">
          <mxGeometry y="210" width="285" height="30" as="geometry" />
        </mxCell>
        <mxCell id="r4kLxaNf1XHd40Li_yTl-20" style="shape=partialRectangle;connectable=0;fillColor=none;top=0;left=0;bottom=0;right=0;editable=1;overflow=hidden;rounded=1;shadow=0;sketch=0;" parent="r4kLxaNf1XHd40Li_yTl-19" vertex="1">
          <mxGeometry width="45" height="30" as="geometry">
            <mxRectangle width="45" height="30" as="alternateBounds" />
          </mxGeometry>
        </mxCell>
        <mxCell id="r4kLxaNf1XHd40Li_yTl-21" value="institution char()" style="shape=partialRectangle;connectable=0;fillColor=none;top=0;left=0;bottom=0;right=0;align=left;spacingLeft=6;overflow=hidden;rounded=1;shadow=0;sketch=0;" parent="r4kLxaNf1XHd40Li_yTl-19" vertex="1">
          <mxGeometry x="45" width="240" height="30" as="geometry">
            <mxRectangle width="240" height="30" as="alternateBounds" />
          </mxGeometry>
        </mxCell>
        <mxCell id="FzVgEvcJ2fNg-dl_Ksst-1" style="shape=tableRow;horizontal=0;startSize=0;swimlaneHead=0;swimlaneBody=0;fillColor=none;collapsible=0;dropTarget=0;points=[[0,0.5],[1,0.5]];portConstraint=eastwest;top=0;left=0;right=0;bottom=0;rounded=1;shadow=0;sketch=0;" parent="C1Lx6RwTq1piZFSp2DUt-668" vertex="1">
          <mxGeometry y="240" width="285" height="30" as="geometry" />
        </mxCell>
        <mxCell id="FzVgEvcJ2fNg-dl_Ksst-2" style="shape=partialRectangle;connectable=0;fillColor=none;top=0;left=0;bottom=0;right=0;editable=1;overflow=hidden;rounded=1;shadow=0;sketch=0;" parent="FzVgEvcJ2fNg-dl_Ksst-1" vertex="1">
          <mxGeometry width="45" height="30" as="geometry">
            <mxRectangle width="45" height="30" as="alternateBounds" />
          </mxGeometry>
        </mxCell>
        <mxCell id="FzVgEvcJ2fNg-dl_Ksst-3" value="summary char(250)" style="shape=partialRectangle;connectable=0;fillColor=none;top=0;left=0;bottom=0;right=0;align=left;spacingLeft=6;overflow=hidden;rounded=1;shadow=0;sketch=0;" parent="FzVgEvcJ2fNg-dl_Ksst-1" vertex="1">
          <mxGeometry x="45" width="240" height="30" as="geometry">
            <mxRectangle width="240" height="30" as="alternateBounds" />
          </mxGeometry>
        </mxCell>
        <mxCell id="r4kLxaNf1XHd40Li_yTl-16" style="shape=tableRow;horizontal=0;startSize=0;swimlaneHead=0;swimlaneBody=0;fillColor=none;collapsible=0;dropTarget=0;points=[[0,0.5],[1,0.5]];portConstraint=eastwest;top=0;left=0;right=0;bottom=0;rounded=1;shadow=0;sketch=0;" parent="C1Lx6RwTq1piZFSp2DUt-668" vertex="1">
          <mxGeometry y="270" width="285" height="32" as="geometry" />
        </mxCell>
        <mxCell id="r4kLxaNf1XHd40Li_yTl-17" style="shape=partialRectangle;connectable=0;fillColor=none;top=0;left=0;bottom=0;right=0;editable=1;overflow=hidden;rounded=1;shadow=0;sketch=0;" parent="r4kLxaNf1XHd40Li_yTl-16" vertex="1">
          <mxGeometry width="45" height="32" as="geometry">
            <mxRectangle width="45" height="32" as="alternateBounds" />
          </mxGeometry>
        </mxCell>
        <mxCell id="r4kLxaNf1XHd40Li_yTl-18" value="start_date datetime" style="shape=partialRectangle;connectable=0;fillColor=none;top=0;left=0;bottom=0;right=0;align=left;spacingLeft=6;overflow=hidden;rounded=1;shadow=0;sketch=0;" parent="r4kLxaNf1XHd40Li_yTl-16" vertex="1">
          <mxGeometry x="45" width="240" height="32" as="geometry">
            <mxRectangle width="240" height="32" as="alternateBounds" />
          </mxGeometry>
        </mxCell>
        <mxCell id="r4kLxaNf1XHd40Li_yTl-28" style="shape=tableRow;horizontal=0;startSize=0;swimlaneHead=0;swimlaneBody=0;fillColor=none;collapsible=0;dropTarget=0;points=[[0,0.5],[1,0.5]];portConstraint=eastwest;top=0;left=0;right=0;bottom=0;rounded=1;shadow=0;sketch=0;" parent="C1Lx6RwTq1piZFSp2DUt-668" vertex="1">
          <mxGeometry y="302" width="285" height="32" as="geometry" />
        </mxCell>
        <mxCell id="r4kLxaNf1XHd40Li_yTl-29" style="shape=partialRectangle;connectable=0;fillColor=none;top=0;left=0;bottom=0;right=0;editable=1;overflow=hidden;rounded=1;shadow=0;sketch=0;" parent="r4kLxaNf1XHd40Li_yTl-28" vertex="1">
          <mxGeometry width="45" height="32" as="geometry">
            <mxRectangle width="45" height="32" as="alternateBounds" />
          </mxGeometry>
        </mxCell>
        <mxCell id="r4kLxaNf1XHd40Li_yTl-30" value="end_date datetime" style="shape=partialRectangle;connectable=0;fillColor=none;top=0;left=0;bottom=0;right=0;align=left;spacingLeft=6;overflow=hidden;rounded=1;shadow=0;sketch=0;" parent="r4kLxaNf1XHd40Li_yTl-28" vertex="1">
          <mxGeometry x="45" width="240" height="32" as="geometry">
            <mxRectangle width="240" height="32" as="alternateBounds" />
          </mxGeometry>
        </mxCell>
      </root>
    </mxGraphModel>
  </diagram>
</mxfile>
